<svg width="167" height="167" viewBox="0 0 167 167" fill="none" xmlns="http://www.w3.org/2000/svg">
<path d="M110 79C110 79.5523 108.881 80 107.5 80C106.119 80 105 79.5523 105 79C105 78.4477 106.119 78 107.5 78C108.881 78 110 78.4477 110 79Z" fill="black" fill-opacity="0.2"/>
<rect x="107" y="76" width="1" height="3" fill="#FFE5BE"/>
<path d="M110 75.8373C110 76.1719 109.878 76.4857 109.666 76.7559C109.233 77.3051 108.425 76.7559 107.5 76.7559C106.575 76.7559 105.767 77.3051 105.334 76.7559C105.122 76.4857 105 76.1719 105 75.8373C105 74.8226 106.119 74 107.5 74C108.881 74 110 74.8226 110 75.8373Z" fill="#CEA76C"/>
<path d="M65 57C65 57.5523 63.8807 58 62.5 58C61.1193 58 60 57.5523 60 57C60 56.4477 61.1193 56 62.5 56C63.8807 56 65 56.4477 65 57Z" fill="black" fill-opacity="0.2"/>
<rect x="62" y="54" width="1" height="3" fill="#FFE5BE"/>
<path d="M65 53.8373C65 54.1719 64.8783 54.4857 64.6655 54.7559C64.2333 55.3051 63.4254 54.7559 62.5 54.7559C61.5746 54.7559 60.7667 55.3051 60.3345 54.7559C60.1217 54.4857 60 54.1719 60 53.8373C60 52.8226 61.1193 52 62.5 52C63.8807 52 65 52.8226 65 53.8373Z" fill="#CEA76C"/>
<path d="M117 44C117 44.5523 115.881 45 114.5 45C113.119 45 112 44.5523 112 44C112 43.4477 113.119 43 114.5 43C115.881 43 117 43.4477 117 44Z" fill="black" fill-opacity="0.2"/>
<rect x="114" y="41" width="1" height="3" fill="#FFE5BE"/>
<path d="M117 40.8373C117 41.1719 116.878 41.4857 116.666 41.7559C116.233 42.3051 115.425 41.7559 114.5 41.7559C113.575 41.7559 112.767 42.3051 112.334 41.7559C112.122 41.4857 112 41.1719 112 40.8373C112 39.8226 113.119 39 114.5 39C115.881 39 117 39.8226 117 40.8373Z" fill="#CEA76C"/>
<path d="M157 39C157 39.5523 155.881 40 154.5 40C153.119 40 152 39.5523 152 39C152 38.4477 153.119 38 154.5 38C155.881 38 157 38.4477 157 39Z" fill="black" fill-opacity="0.2"/>
<rect x="154" y="36" width="1" height="3" fill="#FFE5BE"/>
<path d="M157 35.8373C157 36.1719 156.878 36.4857 156.666 36.7559C156.233 37.3051 155.425 36.7559 154.5 36.7559C153.575 36.7559 152.767 37.3051 152.334 36.7559C152.122 36.4857 152 36.1719 152 35.8373C152 34.8226 153.119 34 154.5 34C155.881 34 157 34.8226 157 35.8373Z" fill="#CEA76C"/>
<path d="M17 78C17 78.5523 15.8807 79 14.5 79C13.1193 79 12 78.5523 12 78C12 77.4477 13.1193 77 14.5 77C15.8807 77 17 77.4477 17 78Z" fill="black" fill-opacity="0.2"/>
<rect x="14" y="75" width="1" height="3" fill="#FFE5BE"/>
<path d="M17 74.8373C17 75.1719 16.8783 75.4857 16.6655 75.7559C16.2333 76.3051 15.4254 75.7559 14.5 75.7559C13.5746 75.7559 12.7667 76.3051 12.3345 75.7559C12.1217 75.4857 12 75.1719 12 74.8373C12 73.8226 13.1193 73 14.5 73C15.8807 73 17 73.8226 17 74.8373Z" fill="#CEA76C"/>
<path d="M54 89C54 89.5523 52.8807 90 51.5 90C50.1193 90 49 89.5523 49 89C49 88.4477 50.1193 88 51.5 88C52.8807 88 54 88.4477 54 89Z" fill="black" fill-opacity="0.2"/>
<rect x="51" y="86" width="1" height="3" fill="#FFE5BE"/>
<path d="M54 85.8373C54 86.1719 53.8783 86.4857 53.6655 86.7559C53.2333 87.3051 52.4254 86.7559 51.5 86.7559C50.5746 86.7559 49.7667 87.3051 49.3345 86.7559C49.1217 86.4857 49 86.1719 49 85.8373C49 84.8226 50.1193 84 51.5 84C52.8807 84 54 84.8226 54 85.8373Z" fill="#CEA76C"/>
<path d="M153 95C153 95.5523 151.881 96 150.5 96C149.119 96 148 95.5523 148 95C148 94.4477 149.119 94 150.5 94C151.881 94 153 94.4477 153 95Z" fill="black" fill-opacity="0.2"/>
<rect x="150" y="92" width="1" height="3" fill="#FFE5BE"/>
<path d="M153 91.8373C153 92.1719 152.878 92.4857 152.666 92.7559C152.233 93.3051 151.425 92.7559 150.5 92.7559C149.575 92.7559 148.767 93.3051 148.334 92.7559C148.122 92.4857 148 92.1719 148 91.8373C148 90.8226 149.119 90 150.5 90C151.881 90 153 90.8226 153 91.8373Z" fill="#CEA76C"/>
<path d="M117 102C117 102.552 115.881 103 114.5 103C113.119 103 112 102.552 112 102C112 101.448 113.119 101 114.5 101C115.881 101 117 101.448 117 102Z" fill="black" fill-opacity="0.2"/>
<rect x="114" y="99" width="1" height="3" fill="#FFE5BE"/>
<path d="M117 98.8373C117 99.1719 116.878 99.4857 116.666 99.7559C116.233 100.305 115.425 99.7559 114.5 99.7559C113.575 99.7559 112.767 100.305 112.334 99.7559C112.122 99.4857 112 99.1719 112 98.8373C112 97.8226 113.119 97 114.5 97C115.881 97 117 97.8226 117 98.8373Z" fill="#CEA76C"/>
<ellipse cx="74" cy="76.5" rx="12" ry="4.5" fill="black" fill-opacity="0.2"/>
<rect x="68.1428" y="73.5" width="12.5" height="3.57143" fill="#594220"/>
<circle cx="67.25" cy="70.8214" r="6.25" fill="#576B2D"/>
<circle cx="81.5357" cy="72.6071" r="4.46429" fill="#576B2D"/>
<circle cx="74.3929" cy="69.0357" r="8.03571" fill="#617733"/>
<ellipse cx="30" cy="106.5" rx="12" ry="4.5" fill="black" fill-opacity="0.2"/>
<rect x="24.1428" y="103.5" width="12.5" height="3.57143" fill="#594220"/>
<circle cx="23.25" cy="100.821" r="6.25" fill="#576B2D"/>
<circle cx="37.5357" cy="102.607" r="4.46429" fill="#576B2D"/>
<circle cx="30.3929" cy="99.0357" r="8.03571" fill="#617733"/>
<ellipse cx="139" cy="117.5" rx="12" ry="4.5" fill="black" fill-opacity="0.2"/>
<rect x="133.143" y="114.5" width="12.5" height="3.57143" fill="#594220"/>
<circle cx="132.25" cy="111.821" r="6.25" fill="#576B2D"/>
<circle cx="146.536" cy="113.607" r="4.46429" fill="#576B2D"/>
<circle cx="139.393" cy="110.036" r="8.03571" fill="#617733"/>
<ellipse cx="117" cy="32.5" rx="12" ry="4.5" fill="black" fill-opacity="0.2"/>
<rect x="111.143" y="29.5" width="12.5" height="3.57143" fill="#594220"/>
<circle cx="110.25" cy="26.8214" r="6.25" fill="#576B2D"/>
<circle cx="124.536" cy="28.6071" r="4.46429" fill="#576B2D"/>
<circle cx="117.393" cy="25.0357" r="8.03571" fill="#617733"/>
<ellipse cx="21" cy="30.5" rx="12" ry="4.5" fill="black" fill-opacity="0.2"/>
<rect x="15.1428" y="27.5" width="12.5" height="3.57143" fill="#594220"/>
<circle cx="14.25" cy="24.8214" r="6.25" fill="#576B2D"/>
<circle cx="28.5357" cy="26.6071" r="4.46429" fill="#576B2D"/>
<circle cx="21.3929" cy="23.0357" r="8.03571" fill="#617733"/>
<ellipse cx="63" cy="42.5" rx="11" ry="4.5" fill="black" fill-opacity="0.2"/>
<rect x="60.2858" y="34.5344" width="5.09524" height="8.49206" fill="#594220"/>
<path d="M62.8333 10.1905L78.2775 36.9405H47.3892L62.8333 10.1905Z" fill="url(#paint0_linear_24_263)"/>
<path d="M62.8334 5.09525L74.8455 25.9008H50.8213L62.8334 5.09525Z" fill="url(#paint1_linear_24_263)"/>
<path d="M62.8333 0L71.4134 14.4365H54.2532L62.8333 0Z" fill="url(#paint2_linear_24_263)"/>
<ellipse cx="96" cy="62.5" rx="15" ry="5.5" fill="black" fill-opacity="0.2"/>
<rect x="92.6191" y="52.5714" width="6.42857" height="10.7143" fill="#594220"/>
<path d="M95.8334 21.8571L115.319 55.6071H76.3478L95.8334 21.8571Z" fill="url(#paint3_linear_24_263)"/>
<path d="M95.8335 15.4286L110.989 41.6786H80.6781L95.8335 15.4286Z" fill="url(#paint4_linear_24_263)"/>
<path d="M95.8334 9L106.659 27.2143H85.0081L95.8334 9Z" fill="url(#paint5_linear_24_263)"/>
<ellipse cx="32" cy="81.5" rx="15" ry="5.5" fill="black" fill-opacity="0.2"/>
<rect x="27" y="68" width="9" height="15" fill="#594220"/>
<path d="M31.5 25L58.7798 72.25H4.2202L31.5 25Z" fill="url(#paint6_linear_24_263)"/>
<path d="M31.5 16L52.7176 52.75H10.2824L31.5 16Z" fill="url(#paint7_linear_24_263)"/>
<path d="M31.5 7L46.6554 32.5H16.3446L31.5 7Z" fill="url(#paint8_linear_24_263)"/>
<ellipse cx="138" cy="77.5" rx="15" ry="5.5" fill="black" fill-opacity="0.2"/>
<rect x="133.429" y="65.1905" width="8.14286" height="13.5714" fill="#594220"/>
<path d="M137.5 26.2857L162.182 69.0357H112.818L137.5 26.2857Z" fill="url(#paint9_linear_24_263)"/>
<path d="M137.5 18.1429L156.697 51.3929H118.303L137.5 18.1429Z" fill="url(#paint10_linear_24_263)"/>
<path d="M137.5 10L151.212 33.0714H123.788L137.5 10Z" fill="url(#paint11_linear_24_263)"/>
<defs>
<linearGradient id="paint0_linear_24_263" x1="62.8333" y1="10.1905" x2="62.8333" y2="45.8571" gradientUnits="userSpaceOnUse">
<stop stop-color="#56772D"/>
<stop offset="1" stop-color="#3B511F"/>
</linearGradient>
<linearGradient id="paint1_linear_24_263" x1="62.8334" y1="5.09525" x2="62.8334" y2="32.836" gradientUnits="userSpaceOnUse">
<stop stop-color="#56772D"/>
<stop offset="1" stop-color="#3B511F"/>
</linearGradient>
<linearGradient id="paint2_linear_24_263" x1="62.8333" y1="0" x2="62.8333" y2="19.2487" gradientUnits="userSpaceOnUse">
<stop stop-color="#56772D"/>
<stop offset="1" stop-color="#3B511F"/>
</linearGradient>
<linearGradient id="paint3_linear_24_263" x1="95.8334" y1="21.8571" x2="95.8334" y2="66.8571" gradientUnits="userSpaceOnUse">
<stop stop-color="#5E7442"/>
<stop offset="1" stop-color="#3D4E29"/>
</linearGradient>
<linearGradient id="paint4_linear_24_263" x1="95.8335" y1="15.4286" x2="95.8335" y2="50.4286" gradientUnits="userSpaceOnUse">
<stop stop-color="#5E7442"/>
<stop offset="1" stop-color="#3D4E29"/>
</linearGradient>
<linearGradient id="paint5_linear_24_263" x1="95.8334" y1="9" x2="95.8334" y2="33.2857" gradientUnits="userSpaceOnUse">
<stop stop-color="#5E7442"/>
<stop offset="1" stop-color="#3D4E29"/>
</linearGradient>
<linearGradient id="paint6_linear_24_263" x1="31.5" y1="25" x2="31.5" y2="88" gradientUnits="userSpaceOnUse">
<stop stop-color="#609220"/>
<stop offset="1" stop-color="#476B18"/>
</linearGradient>
<linearGradient id="paint7_linear_24_263" x1="31.5" y1="16" x2="31.5" y2="65" gradientUnits="userSpaceOnUse">
<stop stop-color="#609220"/>
<stop offset="1" stop-color="#476B18"/>
</linearGradient>
<linearGradient id="paint8_linear_24_263" x1="31.5" y1="7" x2="31.5" y2="41" gradientUnits="userSpaceOnUse">
<stop stop-color="#609220"/>
<stop offset="1" stop-color="#476B18"/>
</linearGradient>
<linearGradient id="paint9_linear_24_263" x1="137.5" y1="26.2857" x2="137.5" y2="83.2857" gradientUnits="userSpaceOnUse">
<stop stop-color="#6D9220"/>
<stop offset="1" stop-color="#475F14"/>
</linearGradient>
<linearGradient id="paint10_linear_24_263" x1="137.5" y1="18.1429" x2="137.5" y2="62.4762" gradientUnits="userSpaceOnUse">
<stop stop-color="#6D9220"/>
<stop offset="1" stop-color="#475F14"/>
</linearGradient>
<linearGradient id="paint11_linear_24_263" x1="137.5" y1="10" x2="137.5" y2="40.7619" gradientUnits="userSpaceOnUse">
<stop stop-color="#6D9220"/>
<stop offset="1" stop-color="#475F14"/>
</linearGradient>
</defs>
</svg>
