<svg width="501" height="932" viewBox="0 0 501 932" fill="none" xmlns="http://www.w3.org/2000/svg">
<rect width="501" height="932" fill="#3F4756"/>
<path d="M179 435L87 494L-6.5 578V-12H507L517.5 510.5L387.5 444.5L179 435Z" fill="#343A45"/>
<path d="M29 461L-12 527L-20.5 -12L508 -5L535 469L490.5 436L478.5 368L436 358.5C423 329.667 396.3 271.1 393.5 267.5C390.7 263.9 329.667 249.333 299.5 242.5L189.5 253.5L165 314.5L124.5 358.5L52.5 385.5L29 461Z" fill="#2D333E"/>
<path d="M81 294.5L-5 430.5V-5H504.5V478.5L476 336L443 226L385.5 154C347.333 145.833 269.8 129.7 265 130.5C260.2 131.3 179.667 163.167 140 179V252L81 294.5Z" fill="#262B35"/>
<path d="M122.5 782L-12 671V677V936.5H507L518.5 688.5L496.5 747.5C435 768.333 310.6 810.3 305 811.5C299.4 812.7 181 792.333 122.5 782Z" fill="#343A45"/>
<path d="M39.5 211L-6.5 293.5V-7.5L502 -13.5L524.5 220.5H502L475 147L404.5 95L279 88L218 102.5L129.5 88L62 129.5L39.5 211Z" fill="#1F232C"/>
</svg>
