<svg width="90" height="77" viewBox="0 0 90 77" fill="none" xmlns="http://www.w3.org/2000/svg">
<path d="M89.0437 63.5C89.0437 65.2778 89.9535 67.4688 89.0437 69C87.5088 71.5831 83.4063 73.2111 80.0437 74.5322C77.6594 75.4689 74.9359 76 72.0437 76C67.4618 76 61.6009 74.6672 58.5437 72.5C55.3364 70.2264 55.0437 67.0345 55.0437 63.5C55.0437 59.6981 54.4013 56.2926 58.0437 54C61.0152 52.1297 67.8255 51 72.0437 51C76.2619 51 80.5722 53.1297 83.5437 55C87.1861 57.2926 89.0437 59.6981 89.0437 63.5Z" fill="white"/>
<path d="M88.0437 47.5C88.0437 49.2778 88.9535 51.4688 88.0437 53C86.5088 55.5831 82.4063 57.2111 79.0437 58.5322C76.6594 59.4689 73.9359 60 71.0437 60C66.4618 60 60.6009 58.6672 57.5437 56.5C54.3364 54.2264 54.0437 51.0345 54.0437 47.5C54.0437 43.6981 53.4013 40.2926 57.0437 38C60.0152 36.1297 66.8255 35 71.0437 35C75.2619 35 79.5722 37.1297 82.5437 39C86.1861 41.2926 88.0437 43.6981 88.0437 47.5Z" fill="white"/>
<path d="M82.0437 31.5C82.0437 33.2778 82.9535 35.4688 82.0437 37C80.5088 39.5831 76.4063 41.2111 73.0437 42.5322C70.6594 43.4689 67.9359 44 65.0437 44C60.4618 44 54.6009 42.6672 51.5437 40.5C48.3364 38.2264 48.0437 35.0345 48.0437 31.5C48.0437 27.6981 47.4013 24.2926 51.0437 22C54.0152 20.1297 60.8255 19 65.0437 19C69.2619 19 73.5722 21.1297 76.5437 23C80.1861 25.2926 82.0437 27.6981 82.0437 31.5Z" fill="white"/>
<path d="M34.0437 64.5C34.0437 66.2778 34.9535 68.4688 34.0437 70C32.5088 72.5831 28.4063 74.2111 25.0437 75.5322C22.6594 76.4689 19.9359 77 17.0437 77C12.4618 77 6.60086 75.6672 3.5437 73.5C0.336386 71.2264 0.0436951 68.0345 0.0436951 64.5C0.0436951 60.6981 -0.59873 57.2926 3.0437 55C6.01524 53.1297 12.8255 52 17.0437 52C21.2619 52 25.5722 54.1297 28.5437 56C32.1861 58.2926 34.0437 60.6981 34.0437 64.5Z" fill="white"/>
<path d="M35.6478 49.5C35.6478 51.2778 36.4402 53.4688 35.6478 55C34.3111 57.5831 30.7384 59.2111 27.81 60.5322C25.7335 61.4689 23.3617 62 20.843 62C16.8527 62 11.7485 60.6672 9.08613 58.5C6.29295 56.2264 6.03805 53.0345 6.03805 49.5C6.03805 45.6981 5.47858 42.2926 8.65069 40C11.2385 38.1297 17.1694 37 20.843 37C24.5165 37 28.2702 39.1297 30.858 41C34.0301 43.2926 35.6478 45.6981 35.6478 49.5Z" fill="white"/>
<path d="M34.0437 33.5C34.0437 35.2778 34.9535 37.4688 34.0437 39C32.5088 41.5831 28.4063 43.2111 25.0437 44.5322C22.6594 45.4689 19.9359 46 17.0437 46C12.4618 46 6.60086 44.6672 3.5437 42.5C0.336386 40.2264 0.0436951 37.0345 0.0436951 33.5C0.0436951 29.6981 -0.59873 26.2926 3.0437 24C6.01524 22.1297 12.8255 21 17.0437 21C21.2619 21 25.5722 23.1297 28.5437 25C32.1861 27.2926 34.0437 29.6981 34.0437 33.5Z" fill="white"/>
<path d="M51.0437 21.5C51.0437 23.2778 51.9535 25.4688 51.0437 27C49.5088 29.5831 45.4063 31.2111 42.0437 32.5322C39.6594 33.4689 36.9359 34 34.0437 34C29.4618 34 23.6009 32.6672 20.5437 30.5C17.3364 28.2264 17.0437 25.0345 17.0437 21.5C17.0437 17.6981 16.4013 14.2926 20.0437 12C23.0152 10.1297 29.8255 9 34.0437 9C38.2619 9 42.5722 11.1297 45.5437 13C49.1861 15.2926 51.0437 17.6981 51.0437 21.5Z" fill="white"/>
<path d="M73.0437 12.5C73.0437 14.2778 73.9535 16.4688 73.0437 18C71.5088 20.5831 67.4063 22.2111 64.0437 23.5322C61.6594 24.4689 58.9359 25 56.0437 25C51.4618 25 45.6009 23.6672 42.5437 21.5C39.3364 19.2264 39.0437 16.0345 39.0437 12.5C39.0437 8.69809 38.4013 5.29261 42.0437 3C45.0152 1.12967 51.8255 0 56.0437 0C60.2619 0 64.5722 2.12967 67.5437 4C71.1861 6.29261 73.0437 8.69809 73.0437 12.5Z" fill="white"/>
<path d="M53.0437 15.5C53.0437 17.2778 53.9535 19.4688 53.0437 21C51.5088 23.5831 47.4063 25.2111 44.0437 26.5322C41.6594 27.4689 38.9359 28 36.0437 28C31.4618 28 25.6009 26.6672 22.5437 24.5C19.3364 22.2264 19.0437 19.0345 19.0437 15.5C19.0437 11.6981 18.4013 8.29261 22.0437 6C25.0152 4.12967 31.8255 3 36.0437 3C40.2619 3 44.5722 5.12967 47.5437 7C51.1861 9.29261 53.0437 11.6981 53.0437 15.5Z" fill="white"/>
<path d="M40.0437 23.5C40.0437 25.2778 40.9535 27.4688 40.0437 29C38.5088 31.5831 34.4063 33.2111 31.0437 34.5322C28.6594 35.4689 25.9359 36 23.0437 36C18.4618 36 12.6009 34.6672 9.5437 32.5C6.33639 30.2264 6.0437 27.0345 6.0437 23.5C6.0437 19.6981 5.40127 16.2926 9.0437 14C12.0152 12.1297 18.8255 11 23.0437 11C27.2619 11 31.5722 13.1297 34.5437 15C38.1861 17.2926 40.0437 19.6981 40.0437 23.5Z" fill="white"/>
</svg>
