<svg width="501" height="87" viewBox="0 0 501 87" fill="none" xmlns="http://www.w3.org/2000/svg">
<rect x="282" y="63" width="178" height="24" rx="8" fill="black" fill-opacity="0.2"/>
<path d="M460 56H484V72C484 76.4183 480.418 80 476 80H460V56Z" fill="black" fill-opacity="0.2"/>
<path d="M484 49H495V65C495 69.4183 491.418 73 487 73H484V49Z" fill="black" fill-opacity="0.2"/>
<path d="M495 42H506V58C506 62.4183 502.418 66 498 66H495V42Z" fill="black" fill-opacity="0.2"/>
<rect width="188" height="24" rx="8" transform="matrix(-1 0 0 1 230 63)" fill="black" fill-opacity="0.2"/>
<path d="M42 55H18V71C18 75.4183 21.5817 79 26 79H42V55Z" fill="black" fill-opacity="0.2"/>
<path d="M18 48H7V66C7 69.3137 9.68629 72 13 72H18V48Z" fill="black" fill-opacity="0.2"/>
<path d="M7 43H-4V59C-4 63.4183 -0.418278 67 4 67H7V43Z" fill="black" fill-opacity="0.2"/>
<path d="M0 8.01596H12.4379V63.1679C12.4379 64.2725 11.5425 65.1679 10.4379 65.1679H2C0.895432 65.1679 0 64.2725 0 63.1679V8.01596Z" fill="#594220"/>
<path d="M5.97021 0L0 8.01596H12.4379L5.97021 0Z" fill="#594220"/>
<path d="M47.7617 23.016H60.1997V78.1679C60.1997 79.2725 59.3042 80.1679 58.1997 80.1679H49.7617C48.6572 80.1679 47.7617 79.2725 47.7617 78.1679V23.016Z" fill="#594220"/>
<path d="M53.7319 15L47.7617 23.016H60.1997L53.7319 15Z" fill="#594220"/>
<path d="M95.5233 23.016H107.961V78.1679C107.961 79.2725 107.066 80.1679 105.961 80.1679H97.5233C96.4187 80.1679 95.5233 79.2725 95.5233 78.1679V23.016Z" fill="#594220"/>
<path d="M101.494 15L95.5233 23.016H107.961L101.494 15Z" fill="#594220"/>
<path d="M142.29 23.016H154.728V78.1679C154.728 79.2725 153.832 80.1679 152.728 80.1679H144.29C143.185 80.1679 142.29 79.2725 142.29 78.1679V23.016Z" fill="#594220"/>
<path d="M148.26 15L142.29 23.016H154.728L148.26 15Z" fill="#594220"/>
<path d="M190.052 23.016H202.49V78.1679C202.49 79.2725 201.594 80.1679 200.49 80.1679H192.052C190.947 80.1679 190.052 79.2725 190.052 78.1679V23.016Z" fill="#594220"/>
<path d="M196.022 15L190.052 23.016H202.49L196.022 15Z" fill="#594220"/>
<path d="M285.575 23.016H298.013V78.1679C298.013 79.2725 297.117 80.1679 296.013 80.1679H287.575C286.47 80.1679 285.575 79.2725 285.575 78.1679V23.016Z" fill="#594220"/>
<path d="M291.545 15L285.575 23.016H298.013L291.545 15Z" fill="#594220"/>
<path d="M333.337 23.016H345.775V78.1679C345.775 79.2725 344.879 80.1679 343.775 80.1679H335.337C334.232 80.1679 333.337 79.2725 333.337 78.1679V23.016Z" fill="#594220"/>
<path d="M339.307 15L333.337 23.016H345.775L339.307 15Z" fill="#594220"/>
<path d="M381.098 23.016H393.536V78.1679C393.536 79.2725 392.641 80.1679 391.536 80.1679H383.098C381.994 80.1679 381.098 79.2725 381.098 78.1679V23.016Z" fill="#594220"/>
<path d="M387.068 15L381.098 23.016H393.536L387.068 15Z" fill="#594220"/>
<path d="M428.86 23.016H441.298V78.1679C441.298 79.2725 440.402 80.1679 439.298 80.1679H430.86C429.755 80.1679 428.86 79.2725 428.86 78.1679V23.016Z" fill="#594220"/>
<path d="M434.83 15L428.86 23.016H441.298L434.83 15Z" fill="#594220"/>
<path d="M477.259 12.016H489.697V67.1679C489.697 68.2725 488.802 69.1679 487.697 69.1679H479.259C478.155 69.1679 477.259 68.2725 477.259 67.1679V12.016Z" fill="#594220"/>
<path d="M483.229 4L477.259 12.016H489.697L483.229 4Z" fill="#594220"/>
<path d="M23.8809 17.016H36.3188V72.1679C36.3188 73.2725 35.4234 74.1679 34.3188 74.1679H25.8809C24.7763 74.1679 23.8809 73.2725 23.8809 72.1679V17.016Z" fill="#594220"/>
<path d="M29.8511 9L23.8809 17.016H36.3188L29.8511 9Z" fill="#594220"/>
<path d="M71.6425 23.016H84.0804V78.1679C84.0804 79.2725 83.185 80.1679 82.0804 80.1679H73.6425C72.5379 80.1679 71.6425 79.2725 71.6425 78.1679V23.016Z" fill="#594220"/>
<path d="M77.6127 15L71.6425 23.016H84.0804L77.6127 15Z" fill="#594220"/>
<path d="M119.404 23.016H131.842V78.1679C131.842 79.2725 130.947 80.1679 129.842 80.1679H121.404C120.3 80.1679 119.404 79.2725 119.404 78.1679V23.016Z" fill="#594220"/>
<path d="M125.374 15L119.404 23.016H131.842L125.374 15Z" fill="#594220"/>
<path d="M166.171 23.016H178.609V78.1679C178.609 79.2725 177.713 80.1679 176.609 80.1679H168.171C167.066 80.1679 166.171 79.2725 166.171 78.1679V23.016Z" fill="#594220"/>
<path d="M172.141 15L166.171 23.016H178.609L172.141 15Z" fill="#594220"/>
<path d="M213.932 23.016H226.37V78.1679C226.37 79.2725 225.475 80.1679 224.37 80.1679H215.932C214.828 80.1679 213.932 79.2725 213.932 78.1679V23.016Z" fill="#594220"/>
<path d="M219.903 15L213.932 23.016H226.37L219.903 15Z" fill="#594220"/>
<path d="M309.456 23.016H321.894V78.1679C321.894 79.2725 320.998 80.1679 319.894 80.1679H311.456C310.351 80.1679 309.456 79.2725 309.456 78.1679V23.016Z" fill="#594220"/>
<path d="M315.426 15L309.456 23.016H321.894L315.426 15Z" fill="#594220"/>
<path d="M357.218 23.016H369.655V78.1679C369.655 79.2725 368.76 80.1679 367.655 80.1679H359.218C358.113 80.1679 357.218 79.2725 357.218 78.1679V23.016Z" fill="#594220"/>
<path d="M363.188 15L357.218 23.016H369.655L363.188 15Z" fill="#594220"/>
<path d="M404.979 23.016H417.417V78.1679C417.417 79.2725 416.522 80.1679 415.417 80.1679H406.979C405.875 80.1679 404.979 79.2725 404.979 78.1679V23.016Z" fill="#594220"/>
<path d="M410.949 15L404.979 23.016H417.417L410.949 15Z" fill="#594220"/>
<path d="M453 17.016H465.438V72.1679C465.438 73.2725 464.543 74.1679 463.438 74.1679H455C453.895 74.1679 453 73.2725 453 72.1679V17.016Z" fill="#594220"/>
<path d="M458.97 9L453 17.016H465.438L458.97 9Z" fill="#594220"/>
<path d="M12 11.7969H24.4379V65.3866C24.4379 66.4912 23.5425 67.3866 22.4379 67.3866H14C12.8954 67.3866 12 66.4912 12 65.3866V11.7969Z" fill="#70542C"/>
<path d="M17.9702 4L12 11.7969H24.4379L17.9702 4Z" fill="#70542C"/>
<path d="M59.702 24.5782H72.14V78.168C72.14 79.2725 71.2445 80.168 70.14 80.168H61.702C60.5975 80.168 59.702 79.2725 59.702 78.168V24.5782Z" fill="#70542C"/>
<path d="M65.6722 16.7813L59.702 24.5782H72.14L65.6722 16.7813Z" fill="#70542C"/>
<path d="M107.464 24.5782H119.902V78.168C119.902 79.2725 119.006 80.168 117.902 80.168H109.464C108.359 80.168 107.464 79.2725 107.464 78.168V24.5782Z" fill="#70542C"/>
<path d="M113.434 16.7813L107.464 24.5782H119.902L113.434 16.7813Z" fill="#70542C"/>
<path d="M154.23 24.5782H166.668V78.168C166.668 79.2725 165.773 80.168 164.668 80.168H156.23C155.126 80.168 154.23 79.2725 154.23 78.168V24.5782Z" fill="#70542C"/>
<path d="M160.201 16.7813L154.23 24.5782H166.668L160.201 16.7813Z" fill="#70542C"/>
<path d="M201.992 24.5782H214.43V78.168C214.43 79.2725 213.535 80.168 212.43 80.168H203.992C202.887 80.168 201.992 79.2725 201.992 78.168V24.5782Z" fill="#70542C"/>
<path d="M207.962 16.7813L201.992 24.5782H214.43L207.962 16.7813Z" fill="#70542C"/>
<path d="M297.515 24.5782H309.953V78.168C309.953 79.2725 309.058 80.168 307.953 80.168H299.515C298.411 80.168 297.515 79.2725 297.515 78.168V24.5782Z" fill="#70542C"/>
<path d="M303.486 16.7813L297.515 24.5782H309.953L303.486 16.7813Z" fill="#70542C"/>
<path d="M345.277 24.5782H357.715V78.168C357.715 79.2725 356.82 80.168 355.715 80.168H347.277C346.173 80.168 345.277 79.2725 345.277 78.168V24.5782Z" fill="#70542C"/>
<path d="M351.247 16.7813L345.277 24.5782H357.715L351.247 16.7813Z" fill="#70542C"/>
<path d="M393.039 24.5782H405.477V78.168C405.477 79.2725 404.581 80.168 403.477 80.168H395.039C393.934 80.168 393.039 79.2725 393.039 78.168V24.5782Z" fill="#70542C"/>
<path d="M399.009 16.7813L393.039 24.5782H405.477L399.009 16.7813Z" fill="#70542C"/>
<path d="M440.8 24.5782H453.238V78.168C453.238 79.2725 452.343 80.168 451.238 80.168H442.8C441.696 80.168 440.8 79.2725 440.8 78.168V24.5782Z" fill="#70542C"/>
<path d="M446.771 16.7813L440.8 24.5782H453.238L446.771 16.7813Z" fill="#70542C"/>
<path d="M489 7.79686H501.438V61.3866C501.438 62.4912 500.543 63.3866 499.438 63.3866H491C489.895 63.3866 489 62.4912 489 61.3866V7.79686Z" fill="#70542C"/>
<path d="M494.97 0L489 7.79685H501.438L494.97 0Z" fill="#70542C"/>
<path d="M35.8213 18.5769H48.2592V72.1666C48.2592 73.2712 47.3638 74.1666 46.2592 74.1666H37.8213C36.7167 74.1666 35.8213 73.2712 35.8213 72.1666V18.5769Z" fill="#70542C"/>
<path d="M41.7915 10.78L35.8213 18.5769H48.2592L41.7915 10.78Z" fill="#70542C"/>
<path d="M83.5829 24.5782H96.0208V78.168C96.0208 79.2725 95.1254 80.168 94.0208 80.168H85.5829C84.4783 80.168 83.5829 79.2725 83.5829 78.168V24.5782Z" fill="#70542C"/>
<path d="M89.5531 16.7813L83.5829 24.5782H96.0208L89.5531 16.7813Z" fill="#70542C"/>
<path d="M131.345 24.5782H143.783V78.168C143.783 79.2725 142.887 80.168 141.783 80.168H133.345C132.24 80.168 131.345 79.2725 131.345 78.168V24.5782Z" fill="#70542C"/>
<path d="M137.315 16.7813L131.345 24.5782H143.783L137.315 16.7813Z" fill="#70542C"/>
<path d="M178.111 24.5782H190.549V78.168C190.549 79.2725 189.654 80.168 188.549 80.168H180.111C179.007 80.168 178.111 79.2725 178.111 78.168V24.5782Z" fill="#70542C"/>
<path d="M184.081 16.7813L178.111 24.5782H190.549L184.081 16.7813Z" fill="#70542C"/>
<path d="M321.396 24.5782H333.834V78.168C333.834 79.2725 332.939 80.168 331.834 80.168H323.396C322.292 80.168 321.396 79.2725 321.396 78.168V24.5782Z" fill="#70542C"/>
<path d="M327.366 16.7813L321.396 24.5782H333.834L327.366 16.7813Z" fill="#70542C"/>
<path d="M369.158 24.5782H381.596V78.168C381.596 79.2725 380.7 80.168 379.596 80.168H371.158C370.053 80.168 369.158 79.2725 369.158 78.168V24.5782Z" fill="#70542C"/>
<path d="M375.128 16.7813L369.158 24.5782H381.596L375.128 16.7813Z" fill="#70542C"/>
<path d="M416.92 24.5782H429.357V78.168C429.357 79.2725 428.462 80.168 427.357 80.168H418.92C417.815 80.168 416.92 79.2725 416.92 78.168V24.5782Z" fill="#70542C"/>
<path d="M422.89 16.7813L416.92 24.5782H429.357L422.89 16.7813Z" fill="#70542C"/>
<path d="M464.94 18.5782H477.378V72.168C477.378 73.2725 476.483 74.168 475.378 74.168H466.94C465.836 74.168 464.94 73.2725 464.94 72.168V18.5782Z" fill="#70542C"/>
<path d="M470.911 10.7813L464.94 18.5782H477.378L470.911 10.7813Z" fill="#70542C"/>
<path d="M234 83C242.094 73.7544 244 23.8143 244 0H274L277 83H234Z" fill="#C6B193"/>
</svg>
