<svg width="501" height="932" viewBox="0 0 501 932" fill="none" xmlns="http://www.w3.org/2000/svg">
<ellipse cx="51.3401" cy="208.228" rx="53.9641" ry="18.9197" fill="black" fill-opacity="0.2"/>
<rect x="26.6714" y="142.186" width="45.741" height="69.6179" fill="#594220"/>
<path d="M49.5415 -57.3851L188.187 161.911H-89.1036L49.5415 -57.3851Z" fill="url(#paint0_linear_57_68)"/>
<path d="M49.5419 -99.1558L157.377 71.4082H-58.2932L49.5419 -99.1558Z" fill="url(#paint1_linear_57_68)"/>
<ellipse cx="375.1" cy="165.358" rx="65.2519" ry="23.2657" fill="black" fill-opacity="0.2"/>
<rect x="345.271" y="84.1463" width="55.3087" height="85.6098" fill="#594220"/>
<path d="M372.925 -161.268L540.571 108.402H205.28L372.925 -161.268Z" fill="url(#paint2_linear_57_68)"/>
<ellipse cx="281.633" cy="308.986" rx="38.3481" ry="13.4448" fill="black" fill-opacity="0.2"/>
<rect x="264.104" y="262.056" width="32.5046" height="49.4721" fill="#594220"/>
<path d="M280.356 120.236L378.88 276.073H181.831L280.356 120.236Z" fill="url(#paint3_linear_57_68)"/>
<path d="M280.356 90.5526L356.986 211.759H203.726L280.356 90.5526Z" fill="url(#paint4_linear_57_68)"/>
<path d="M280.355 60.8694L335.091 144.972H225.62L280.355 60.8694Z" fill="url(#paint5_linear_57_68)"/>
<ellipse cx="534.888" cy="387.849" rx="53.9641" ry="18.9197" fill="black" fill-opacity="0.2"/>
<path d="M533.09 122.236L671.735 341.532H394.445L533.09 122.236Z" fill="url(#paint6_linear_57_68)"/>
<path d="M533.09 80.4647L640.925 251.029H425.255L533.09 80.4647Z" fill="url(#paint7_linear_57_68)"/>
<path d="M533.09 38.6941L610.115 157.045H456.065L533.09 38.6941Z" fill="url(#paint8_linear_57_68)"/>
<ellipse cx="98.5146" cy="404.436" rx="48.8164" ry="17.1149" fill="black" fill-opacity="0.2"/>
<rect x="76.1982" y="344.695" width="41.3777" height="62.9769" fill="#594220"/>
<path d="M96.8873 164.161L222.307 362.538H-28.5321L96.8873 164.161Z" fill="url(#paint9_linear_57_68)"/>
<path d="M96.8878 126.375L194.436 280.668H-0.660667L96.8878 126.375Z" fill="url(#paint10_linear_57_68)"/>
<path d="M96.8873 88.5887L166.565 195.649H27.2098L96.8873 88.5887Z" fill="url(#paint11_linear_57_68)"/>
<path d="M444.3 729.738L606.507 986.302H282.093L444.3 729.738Z" fill="url(#paint12_linear_57_68)"/>
<path d="M444.3 680.869L570.461 880.419H318.14L444.3 680.869Z" fill="url(#paint13_linear_57_68)"/>
<path d="M444.3 632L534.415 770.463H354.186L444.3 632Z" fill="url(#paint14_linear_57_68)"/>
<path d="M29.9445 703.613L229.948 1019.96H-170.059L29.9445 703.613Z" fill="url(#paint15_linear_57_68)"/>
<path d="M29.9453 643.356L185.504 889.405H-125.613L29.9453 643.356Z" fill="url(#paint16_linear_57_68)"/>
<path d="M29.9442 583.1L141.057 753.827H-81.169L29.9442 583.1Z" fill="url(#paint17_linear_57_68)"/>
<path d="M198.091 196.509C198.091 199.367 192.035 201.683 184.563 201.683C177.091 201.683 171.034 199.367 171.034 196.509C171.034 193.651 177.091 191.335 184.563 191.335C192.035 191.335 198.091 193.651 198.091 196.509Z" fill="black" fill-opacity="0.2"/>
<rect x="181.857" y="180.986" width="5.41141" height="15.5228" fill="#FFE5BE"/>
<path d="M198.091 180.144C198.091 181.876 197.433 183.499 196.282 184.897C193.942 187.739 189.57 184.897 184.563 184.897C179.555 184.897 175.183 187.739 172.844 184.897C171.693 183.499 171.034 181.876 171.034 180.144C171.034 174.894 177.091 170.638 184.563 170.638C192.035 170.638 198.091 174.894 198.091 180.144Z" fill="#CEA76C"/>
<path d="M458.032 143.288C458.032 146.146 451.975 148.462 444.504 148.462C437.032 148.462 430.975 146.146 430.975 143.288C430.975 140.43 437.032 138.114 444.504 138.114C451.975 138.114 458.032 140.43 458.032 143.288Z" fill="black" fill-opacity="0.2"/>
<rect x="441.798" y="127.765" width="5.41141" height="15.5228" fill="#FFE5BE"/>
<path d="M458.032 126.923C458.032 128.655 457.373 130.278 456.222 131.676C453.883 134.518 449.511 131.676 444.504 131.676C439.496 131.676 435.124 134.518 432.785 131.676C431.634 130.278 430.975 128.655 430.975 126.923C430.975 121.673 437.032 117.417 444.504 117.417C451.975 117.417 458.032 121.673 458.032 126.923Z" fill="#CEA76C"/>
<path d="M416.287 263.035C416.287 265.893 410.23 268.209 402.759 268.209C395.287 268.209 389.23 265.893 389.23 263.035C389.23 260.177 395.287 257.861 402.759 257.861C410.23 257.861 416.287 260.177 416.287 263.035Z" fill="black" fill-opacity="0.2"/>
<rect x="400.053" y="247.512" width="5.41141" height="15.5228" fill="#FFE5BE"/>
<path d="M416.287 246.67C416.287 248.402 415.628 250.025 414.477 251.424C412.138 254.265 407.766 251.424 402.759 251.424C397.751 251.424 393.379 254.265 391.04 251.424C389.889 250.025 389.23 248.402 389.23 246.67C389.23 241.42 395.287 237.164 402.759 237.164C410.23 237.164 416.287 241.42 416.287 246.67Z" fill="#CEA76C"/>
<path d="M249.307 401.631C249.307 404.489 243.25 406.805 235.779 406.805C228.307 406.805 222.25 404.489 222.25 401.631C222.25 398.773 228.307 396.457 235.779 396.457C243.25 396.457 249.307 398.773 249.307 401.631Z" fill="black" fill-opacity="0.2"/>
<rect x="233.072" y="386.108" width="5.41141" height="15.5228" fill="#FFE5BE"/>
<path d="M249.307 385.266C249.307 386.998 248.648 388.621 247.497 390.02C245.158 392.861 240.786 390.02 235.779 390.02C230.771 390.02 226.399 392.861 224.06 390.02C222.909 388.621 222.25 386.998 222.25 385.266C222.25 380.016 228.307 375.76 235.779 375.76C243.25 375.76 249.307 380.016 249.307 385.266Z" fill="#CEA76C"/>
<path d="M412.809 910.556C412.809 913.414 406.752 915.73 399.28 915.73C391.808 915.73 385.751 913.414 385.751 910.556C385.751 907.699 391.808 905.382 399.28 905.382C406.752 905.382 412.809 907.699 412.809 910.556Z" fill="black" fill-opacity="0.2"/>
<rect x="396.574" y="895.033" width="5.41141" height="15.5228" fill="#FFE5BE"/>
<path d="M412.809 894.192C412.809 895.923 412.15 897.547 410.999 898.945C408.659 901.786 404.287 898.945 399.28 898.945C394.273 898.945 389.9 901.786 387.561 898.945C386.41 897.547 385.751 895.923 385.751 894.192C385.751 888.941 391.808 884.685 399.28 884.685C406.752 884.685 412.809 888.941 412.809 894.192Z" fill="#CEA76C"/>
<path d="M222.636 867.314C222.636 870.172 216.579 872.488 209.108 872.488C201.636 872.488 195.579 870.172 195.579 867.314C195.579 864.457 201.636 862.14 209.108 862.14C216.579 862.14 222.636 864.457 222.636 867.314Z" fill="black" fill-opacity="0.2"/>
<rect x="206.402" y="851.791" width="5.41141" height="15.5228" fill="#FFE5BE"/>
<path d="M222.636 850.95C222.636 852.681 221.977 854.305 220.826 855.703C218.487 858.544 214.115 855.703 209.108 855.703C204.1 855.703 199.728 858.544 197.389 855.703C196.238 854.305 195.579 852.681 195.579 850.95C195.579 845.699 201.636 841.443 209.108 841.443C216.579 841.443 222.636 845.699 222.636 850.95Z" fill="#CEA76C"/>
<path d="M46.3793 447.091C46.3793 449.948 40.3224 452.265 32.8508 452.265C25.3792 452.265 19.3223 449.948 19.3223 447.091C19.3223 444.233 25.3792 441.916 32.8508 441.916C40.3224 441.916 46.3793 444.233 46.3793 447.091Z" fill="black" fill-opacity="0.2"/>
<rect x="30.1443" y="431.568" width="5.41141" height="15.5228" fill="#FFE5BE"/>
<path d="M46.3793 430.726C46.3793 432.458 45.7205 434.081 44.5694 435.479C42.2303 438.321 37.8583 435.479 32.8508 435.479C27.8433 435.479 23.4713 438.321 21.1321 435.479C19.9811 434.081 19.3223 432.458 19.3223 430.726C19.3223 425.476 25.3792 421.219 32.8508 421.219C40.3224 421.219 46.3793 425.476 46.3793 430.726Z" fill="#CEA76C"/>
<ellipse cx="365.597" cy="374.063" rx="65.9567" ry="23.6498" fill="black" fill-opacity="0.2"/>
<rect x="333.404" y="358.296" width="68.7049" height="18.7697" fill="#594220"/>
<ellipse cx="328.497" cy="344.219" rx="34.3525" ry="32.847" fill="#576B2D"/>
<ellipse cx="407.016" cy="353.604" rx="24.5375" ry="23.4621" fill="#576B2D"/>
<ellipse cx="367.757" cy="334.834" rx="44.1675" ry="42.2318" fill="#617733"/>
<ellipse cx="277.453" cy="785.461" rx="65.9567" ry="23.6498" fill="black" fill-opacity="0.2"/>
<rect x="245.259" y="769.694" width="68.7049" height="18.7697" fill="#594220"/>
<ellipse cx="240.352" cy="755.617" rx="34.3525" ry="32.847" fill="#576B2D"/>
<ellipse cx="318.872" cy="765.002" rx="24.5375" ry="23.4621" fill="#576B2D"/>
<ellipse cx="279.613" cy="746.232" rx="44.1675" ry="42.2318" fill="#617733"/>
<defs>
<linearGradient id="paint0_linear_57_68" x1="49.5415" y1="-57.3851" x2="49.5415" y2="235.01" gradientUnits="userSpaceOnUse">
<stop stop-color="#1A2906"/>
<stop offset="1" stop-color="#3A4E22"/>
</linearGradient>
<linearGradient id="paint1_linear_57_68" x1="49.5419" y1="-99.1558" x2="49.5419" y2="128.263" gradientUnits="userSpaceOnUse">
<stop stop-color="#1A2906"/>
<stop offset="1" stop-color="#3A4E22"/>
</linearGradient>
<linearGradient id="paint2_linear_57_68" x1="372.925" y1="-161.268" x2="372.925" y2="198.293" gradientUnits="userSpaceOnUse">
<stop stop-color="#1A2906"/>
<stop offset="1" stop-color="#3A4E22"/>
</linearGradient>
<linearGradient id="paint3_linear_57_68" x1="280.356" y1="120.236" x2="280.356" y2="328.019" gradientUnits="userSpaceOnUse">
<stop stop-color="#36550F"/>
<stop offset="1" stop-color="#567036"/>
</linearGradient>
<linearGradient id="paint4_linear_57_68" x1="280.356" y1="90.5526" x2="280.356" y2="252.161" gradientUnits="userSpaceOnUse">
<stop stop-color="#36550F"/>
<stop offset="1" stop-color="#567036"/>
</linearGradient>
<linearGradient id="paint5_linear_57_68" x1="280.355" y1="60.8694" x2="280.355" y2="173.006" gradientUnits="userSpaceOnUse">
<stop stop-color="#36550F"/>
<stop offset="1" stop-color="#567036"/>
</linearGradient>
<linearGradient id="paint6_linear_57_68" x1="533.09" y1="122.236" x2="533.09" y2="414.631" gradientUnits="userSpaceOnUse">
<stop stop-color="#36550F"/>
<stop offset="1" stop-color="#567036"/>
</linearGradient>
<linearGradient id="paint7_linear_57_68" x1="533.09" y1="80.4647" x2="533.09" y2="307.883" gradientUnits="userSpaceOnUse">
<stop stop-color="#36550F"/>
<stop offset="1" stop-color="#567036"/>
</linearGradient>
<linearGradient id="paint8_linear_57_68" x1="533.09" y1="38.6941" x2="533.09" y2="196.495" gradientUnits="userSpaceOnUse">
<stop stop-color="#36550F"/>
<stop offset="1" stop-color="#567036"/>
</linearGradient>
<linearGradient id="paint9_linear_57_68" x1="96.8873" y1="164.161" x2="96.8873" y2="428.664" gradientUnits="userSpaceOnUse">
<stop stop-color="#4A7217"/>
<stop offset="1" stop-color="#618A2D"/>
</linearGradient>
<linearGradient id="paint10_linear_57_68" x1="96.8878" y1="126.375" x2="96.8878" y2="332.099" gradientUnits="userSpaceOnUse">
<stop stop-color="#4A7217"/>
<stop offset="1" stop-color="#618A2D"/>
</linearGradient>
<linearGradient id="paint11_linear_57_68" x1="96.8873" y1="88.5887" x2="96.8873" y2="231.336" gradientUnits="userSpaceOnUse">
<stop stop-color="#4A7217"/>
<stop offset="1" stop-color="#618A2D"/>
</linearGradient>
<linearGradient id="paint12_linear_57_68" x1="444.3" y1="729.738" x2="444.3" y2="1071.82" gradientUnits="userSpaceOnUse">
<stop stop-color="#505F25"/>
<stop offset="1" stop-color="#768844"/>
</linearGradient>
<linearGradient id="paint13_linear_57_68" x1="444.3" y1="680.869" x2="444.3" y2="946.935" gradientUnits="userSpaceOnUse">
<stop stop-color="#505F25"/>
<stop offset="1" stop-color="#768844"/>
</linearGradient>
<linearGradient id="paint14_linear_57_68" x1="444.3" y1="632" x2="444.3" y2="816.617" gradientUnits="userSpaceOnUse">
<stop stop-color="#505F25"/>
<stop offset="1" stop-color="#768844"/>
</linearGradient>
<linearGradient id="paint15_linear_57_68" x1="29.9445" y1="703.613" x2="29.9445" y2="1125.41" gradientUnits="userSpaceOnUse">
<stop stop-color="#4C7E35"/>
<stop offset="1" stop-color="#485439"/>
</linearGradient>
<linearGradient id="paint16_linear_57_68" x1="29.9453" y1="643.356" x2="29.9453" y2="971.421" gradientUnits="userSpaceOnUse">
<stop stop-color="#4C7E35"/>
<stop offset="1" stop-color="#485439"/>
</linearGradient>
<linearGradient id="paint17_linear_57_68" x1="29.9442" y1="583.1" x2="29.9442" y2="810.736" gradientUnits="userSpaceOnUse">
<stop stop-color="#4C7E35"/>
<stop offset="1" stop-color="#485439"/>
</linearGradient>
</defs>
</svg>
