<svg width="200" height="200" viewBox="0 0 200 200" fill="none" xmlns="http://www.w3.org/2000/svg">
<path d="M52.9441 65.4624L104.081 59L181.096 67.948V145H51.0957L52.9441 65.4624Z" fill="#0B0804"/>
<path d="M50.0957 91V83H154.096V91H50.0957Z" fill="#3E311E"/>
<path d="M50.0957 82V74H154.096V82H50.0957Z" fill="#3E311E"/>
<path d="M50.0957 73V65H154.096V73H50.0957Z" fill="#3E311E"/>
<path d="M54.5785 64V56L150.51 56V64H54.5785Z" fill="#3E311E"/>
<path d="M141.096 145V137H143.096V145H141.096Z" fill="#3E311E"/>
<path d="M141.096 136V128H143.096V136H141.096Z" fill="#3E311E"/>
<path d="M141.096 127V119H143.096V127H141.096Z" fill="#3E311E"/>
<path d="M141.096 118V110H143.096V118H141.096Z" fill="#3E311E"/>
<path d="M141.096 94V86H143.096V94H141.096Z" fill="#3E311E"/>
<path d="M141.096 109V101H143.096V109H141.096Z" fill="#3E311E"/>
<path d="M60.0957 87.5V78.95H131.096V87.5H60.0957Z" fill="#3E311E"/>
<rect x="6.09572" y="145" width="189" height="9" fill="#5C5E5F"/>
<path d="M39.2459 147.59C39.1647 146.433 40.0813 145.45 41.241 145.45H53.9272C55.0954 145.45 56.015 146.447 55.9207 147.611L55.736 149.893C55.6555 150.886 54.8559 151.669 53.861 151.728L41.5708 152.458C40.4766 152.523 39.5339 151.695 39.4572 150.601L39.2459 147.59Z" fill="#5A5A5A"/>
<path d="M71.2459 147.59C71.1647 146.433 72.0813 145.45 73.241 145.45H85.9272C87.0954 145.45 88.015 146.447 87.9207 147.611L87.736 149.893C87.6555 150.886 86.8559 151.669 85.861 151.728L73.5708 152.458C72.4766 152.523 71.5339 151.695 71.4572 150.601L71.2459 147.59Z" fill="#5A5A5A"/>
<path d="M123.246 147.59C123.165 146.433 124.081 145.45 125.241 145.45H137.927C139.095 145.45 140.015 146.447 139.921 147.611L139.736 149.893C139.656 150.886 138.856 151.669 137.861 151.728L125.571 152.458C124.477 152.523 123.534 151.695 123.457 150.601L123.246 147.59Z" fill="#5A5A5A"/>
<path d="M47.2389 151.866C47.1614 153.021 48.0771 154 49.2344 154H57.9349C59.1003 154 60.0189 153.008 59.929 151.846L59.8476 150.794C59.7706 149.8 58.9729 149.014 57.9775 148.952L49.4644 148.423C48.3658 148.355 47.4185 149.187 47.3449 150.286L47.2389 151.866Z" fill="#5A5A5A"/>
<path d="M99.2389 151.866C99.1614 153.021 100.077 154 101.234 154H109.935C111.1 154 112.019 153.008 111.929 151.846L111.848 150.794C111.771 149.8 110.973 149.014 109.978 148.952L101.464 148.423C100.366 148.355 99.4185 149.187 99.3449 150.286L99.2389 151.866Z" fill="#5A5A5A"/>
<path d="M144.239 151.866C144.161 153.021 145.077 154 146.234 154H154.935C156.1 154 157.019 153.008 156.929 151.846L156.848 150.794C156.771 149.8 155.973 149.014 154.978 148.952L146.464 148.423C145.366 148.355 144.419 149.187 144.345 150.286L144.239 151.866Z" fill="#5A5A5A"/>
<path d="M142.762 127H161.096L156.512 135.55H142.762V127Z" fill="#4B4B4B"/>
<rect x="142.762" y="142.2" width="15.5833" height="2.85" fill="#4B4B4B"/>
<rect x="145.512" y="135.55" width="9.16667" height="6.65" fill="#4B4B4B"/>
<rect x="139.096" y="127" width="3.66667" height="2.85" fill="#4B4B4B"/>
<rect x="177.096" y="143.698" width="7" height="1" transform="rotate(-31.8891 177.096 143.698)" fill="#362710"/>
<rect x="169.096" y="143" width="14" height="2" fill="#4F3714"/>
<rect x="175.096" y="133" width="3" height="11" fill="#4F3714"/>
<circle cx="176.596" cy="133.5" r="7.5" fill="#AAAAAA"/>
<circle cx="176.596" cy="133.5" r="1.5" fill="#545454"/>
<path d="M56.0957 145V137H88.0957V145H56.0957Z" fill="#3E311E"/>
<path d="M106.096 145V137H138.096V145H106.096Z" fill="#3E311E"/>
<path d="M56.0957 136V128H88.0957V136H56.0957Z" fill="#3E311E"/>
<path d="M106.096 136V128H138.096V136H106.096Z" fill="#3E311E"/>
<path d="M56.0957 127V119H88.0957V127H56.0957Z" fill="#3E311E"/>
<path d="M106.096 127V119H138.096V127H106.096Z" fill="#3E311E"/>
<path d="M106.096 118V110H138.096V118H106.096Z" fill="#3E311E"/>
<path d="M56.0957 118V110H88.0957V118H56.0957Z" fill="#3E311E"/>
<path d="M56.0957 109V101H138.096V109H56.0957Z" fill="#3E311E"/>
<path d="M56.0957 100V95H138.096V100H56.0957Z" fill="#3E311E"/>
<rect x="180.096" y="90" width="9" height="55" fill="#48371D"/>
<path d="M49.0957 56H58.0957V91C58.0957 93.2091 56.3049 95 54.0957 95H53.0957C50.8866 95 49.0957 93.2091 49.0957 91V56Z" fill="#926F3B"/>
<path d="M66.844 56H75.7181V91.2C75.7181 93.4091 73.9272 95.2 71.7181 95.2H70.844C68.6348 95.2 66.844 93.4091 66.844 91.2V56Z" fill="#926F3B"/>
<path d="M84.5922 56H93.4663V91.2C93.4663 93.4091 91.6755 95.2 89.4663 95.2H88.5922C86.3831 95.2 84.5922 93.4091 84.5922 91.2V56Z" fill="#926F3B"/>
<path d="M102.34 56H111.215V91.2C111.215 93.4091 109.424 95.2 107.215 95.2H106.34C104.131 95.2 102.34 93.4091 102.34 91.2V56Z" fill="#926F3B"/>
<path d="M119.096 56H128.096V91C128.096 93.2091 126.305 95 124.096 95H123.096C120.887 95 119.096 93.2091 119.096 91V56Z" fill="#926F3B"/>
<path d="M137.096 56H146.096V91.2C146.096 93.4091 144.305 95.2 142.096 95.2H141.096C138.887 95.2 137.096 93.4091 137.096 91.2V56Z" fill="#926F3B"/>
<path d="M154.599 56H163.473V101C163.473 103.209 161.682 105 159.473 105H158.599C156.39 105 154.599 103.209 154.599 101V56Z" fill="#926F3B"/>
<path d="M172.347 56H181.222V101C181.222 103.209 179.431 105 177.222 105H176.347C174.138 105 172.347 103.209 172.347 101V56Z" fill="#926F3B"/>
<path d="M57.9698 56H66.844V91.2C66.844 93.4091 65.0531 95.2 62.844 95.2H61.9698C59.7607 95.2 57.9698 93.4091 57.9698 91.2V56Z" fill="#765B34"/>
<path d="M75.7181 56H84.5922V90.22C84.5922 92.4291 82.8014 94.22 80.5922 94.22H79.7181C77.509 94.22 75.7181 92.4291 75.7181 90.22V56Z" fill="#765B34"/>
<path d="M93.4664 56H102.34V91.2C102.34 93.4091 100.55 95.2 98.3405 95.2H97.4664C95.2572 95.2 93.4664 93.4091 93.4664 91.2V56Z" fill="#765B34"/>
<path d="M111.215 56H120.089V91.2C120.089 93.4091 118.298 95.2 116.089 95.2H115.215C113.005 95.2 111.215 93.4091 111.215 91.2V56Z" fill="#765B34"/>
<path d="M128.096 56H137.096V91.2C137.096 93.4091 135.305 95.2 133.096 95.2H132.096C129.887 95.2 128.096 93.4091 128.096 91.2V56Z" fill="#765B34"/>
<path d="M145.725 56H154.599V101C154.599 103.209 152.808 105 150.599 105H149.725C147.516 105 145.725 103.209 145.725 101V56Z" fill="#765B34"/>
<path d="M163.473 56H172.347V101C172.347 103.209 170.557 105 168.347 105H167.473C165.264 105 163.473 103.209 163.473 101V56Z" fill="#765B34"/>
<path d="M181.222 56H190.096V101C190.096 103.209 188.305 105 186.096 105H185.222C183.012 105 181.222 103.209 181.222 101V56Z" fill="#765B34"/>
<rect x="28.0957" y="129" width="19" height="16" fill="#898989"/>
<path d="M39.5095 106H47.0957V129H36.0957L39.5095 106Z" fill="#6B6B6B"/>
<path d="M80.0957 73.25V64.7H112.096V73.25H80.0957Z" fill="#3E311E"/>
<path d="M50.0957 97V88.45H141.096V97H50.0957Z" fill="#3E311E"/>
<rect x="11.0957" y="114" width="9" height="31" fill="#594220"/>
<rect x="47.0957" y="97" width="8.55" height="92" transform="rotate(-90 47.0957 97)" fill="#594220"/>
<rect x="138.096" y="90" width="9" height="55" fill="#594220"/>
<rect x="39.0957" y="82" width="10" height="13" fill="#424242"/>
<rect x="38.0957" y="79" width="12" height="4" fill="#5C5C5C"/>
<rect width="8.76854" height="87.544" transform="matrix(-0.647559 0.762016 -0.810241 -0.586097 159.706 98.3092)" fill="#966E33"/>
<rect width="8.76854" height="47.1304" transform="matrix(0.390247 0.92071 0.948365 -0.317182 5 112.434)" fill="#966E33"/>
<rect x="47.0957" y="90" width="9" height="55" fill="#594220"/>
<rect width="8.76854" height="87.5405" transform="matrix(0.647559 0.762016 0.810241 -0.586097 32.0957 98.9072)" fill="#966E33"/>
<rect x="68.0957" y="74.2" width="57" height="19" fill="#241D13"/>
<path d="M84.6357 81.452C84.6357 81.508 84.6197 81.552 84.5877 81.584C84.5557 81.616 84.5117 81.632 84.4557 81.632H80.8797C80.8397 81.632 80.8197 81.652 80.8197 81.692V82.82C80.8197 82.86 80.8397 82.88 80.8797 82.88H83.0997C83.1557 82.88 83.1997 82.896 83.2317 82.928C83.2637 82.96 83.2797 83.004 83.2797 83.06V84.62C83.2797 84.676 83.2637 84.72 83.2317 84.752C83.1997 84.784 83.1557 84.8 83.0997 84.8H80.8797C80.8397 84.8 80.8197 84.82 80.8197 84.86V87.92C80.8197 87.976 80.8037 88.02 80.7717 88.052C80.7397 88.084 80.6957 88.1 80.6397 88.1H78.7437C78.6877 88.1 78.6437 88.084 78.6117 88.052C78.5797 88.02 78.5637 87.976 78.5637 87.92V79.88C78.5637 79.824 78.5797 79.78 78.6117 79.748C78.6437 79.716 78.6877 79.7 78.7437 79.7H84.4557C84.5117 79.7 84.5557 79.716 84.5877 79.748C84.6197 79.78 84.6357 79.824 84.6357 79.88V81.452ZM88.4602 88.244C87.7962 88.244 87.2082 88.112 86.6962 87.848C86.1922 87.576 85.8002 87.2 85.5202 86.72C85.2402 86.232 85.1002 85.668 85.1002 85.028V82.772C85.1002 82.148 85.2402 81.596 85.5202 81.116C85.8002 80.636 86.1922 80.264 86.6962 80C87.2082 79.736 87.7962 79.604 88.4602 79.604C89.1322 79.604 89.7202 79.736 90.2242 80C90.7362 80.264 91.1323 80.636 91.4123 81.116C91.6923 81.596 91.8322 82.148 91.8322 82.772V85.028C91.8322 85.668 91.6923 86.232 91.4123 86.72C91.1323 87.2 90.7362 87.576 90.2242 87.848C89.7202 88.112 89.1322 88.244 88.4602 88.244ZM88.4602 86.312C88.7962 86.312 89.0642 86.204 89.2642 85.988C89.4722 85.764 89.5762 85.468 89.5762 85.1V82.748C89.5762 82.38 89.4722 82.088 89.2642 81.872C89.0642 81.648 88.7962 81.536 88.4602 81.536C88.1322 81.536 87.8642 81.648 87.6562 81.872C87.4562 82.088 87.3562 82.38 87.3562 82.748V85.1C87.3562 85.468 87.4562 85.764 87.6562 85.988C87.8642 86.204 88.1322 86.312 88.4602 86.312ZM97.0774 88.1C96.9734 88.1 96.9054 88.056 96.8734 87.968L95.5534 84.92C95.5374 84.888 95.5134 84.872 95.4814 84.872H94.9774C94.9374 84.872 94.9174 84.892 94.9174 84.932V87.92C94.9174 87.976 94.9014 88.02 94.8694 88.052C94.8374 88.084 94.7934 88.1 94.7374 88.1H92.8414C92.7854 88.1 92.7414 88.084 92.7094 88.052C92.6774 88.02 92.6614 87.976 92.6614 87.92V79.88C92.6614 79.824 92.6774 79.78 92.7094 79.748C92.7414 79.716 92.7854 79.7 92.8414 79.7H96.4774C97.0214 79.7 97.4974 79.812 97.9054 80.036C98.3214 80.26 98.6414 80.576 98.8654 80.984C99.0974 81.384 99.2134 81.848 99.2134 82.376C99.2134 82.904 99.0814 83.368 98.8174 83.768C98.5614 84.16 98.2054 84.448 97.7494 84.632C97.7094 84.648 97.6974 84.676 97.7134 84.716L99.2374 87.884C99.2534 87.932 99.2614 87.96 99.2614 87.968C99.2614 88.008 99.2454 88.04 99.2134 88.064C99.1814 88.088 99.1414 88.1 99.0934 88.1H97.0774ZM94.9774 81.632C94.9374 81.632 94.9174 81.652 94.9174 81.692V83.096C94.9174 83.136 94.9374 83.156 94.9774 83.156H96.1054C96.3614 83.156 96.5694 83.088 96.7294 82.952C96.8894 82.808 96.9694 82.624 96.9694 82.4C96.9694 82.168 96.8894 81.984 96.7294 81.848C96.5694 81.704 96.3614 81.632 96.1054 81.632H94.9774ZM103.248 88.196C102.592 88.196 102.012 88.064 101.508 87.8C101.012 87.536 100.624 87.164 100.344 86.684C100.072 86.204 99.9362 85.652 99.9362 85.028V82.76C99.9362 82.136 100.072 81.588 100.344 81.116C100.624 80.636 101.012 80.264 101.508 80C102.012 79.736 102.592 79.604 103.248 79.604C103.888 79.604 104.46 79.732 104.964 79.988C105.468 80.236 105.856 80.576 106.128 81.008C106.408 81.44 106.548 81.912 106.548 82.424V82.436C106.548 82.492 106.532 82.536 106.5 82.568C106.468 82.6 106.424 82.616 106.368 82.616H104.484C104.364 82.616 104.304 82.58 104.304 82.508C104.304 82.244 104.208 82.016 104.016 81.824C103.832 81.632 103.576 81.536 103.248 81.536C102.928 81.536 102.672 81.644 102.48 81.86C102.288 82.068 102.192 82.348 102.192 82.7V85.1C102.192 85.444 102.3 85.724 102.516 85.94C102.74 86.156 103.016 86.264 103.344 86.264C103.64 86.264 103.88 86.184 104.064 86.024C104.256 85.856 104.352 85.628 104.352 85.34V85.184C104.352 85.144 104.332 85.124 104.292 85.124H103.236C103.18 85.124 103.136 85.108 103.104 85.076C103.072 85.044 103.056 85 103.056 84.944V83.504C103.056 83.448 103.072 83.404 103.104 83.372C103.136 83.34 103.18 83.324 103.236 83.324H106.368C106.424 83.324 106.468 83.34 106.5 83.372C106.532 83.404 106.548 83.448 106.548 83.504V85.148C106.548 85.74 106.408 86.268 106.128 86.732C105.856 87.196 105.468 87.556 104.964 87.812C104.468 88.068 103.896 88.196 103.248 88.196ZM113.464 81.452C113.464 81.508 113.448 81.552 113.416 81.584C113.384 81.616 113.34 81.632 113.284 81.632H109.696C109.656 81.632 109.636 81.652 109.636 81.692V82.82C109.636 82.86 109.656 82.88 109.696 82.88H111.916C111.972 82.88 112.016 82.896 112.048 82.928C112.08 82.96 112.096 83.004 112.096 83.06V84.62C112.096 84.676 112.08 84.72 112.048 84.752C112.016 84.784 111.972 84.8 111.916 84.8H109.696C109.656 84.8 109.636 84.82 109.636 84.86V86.108C109.636 86.148 109.656 86.168 109.696 86.168H113.284C113.34 86.168 113.384 86.184 113.416 86.216C113.448 86.248 113.464 86.292 113.464 86.348V87.92C113.464 87.976 113.448 88.02 113.416 88.052C113.384 88.084 113.34 88.1 113.284 88.1H107.56C107.504 88.1 107.46 88.084 107.428 88.052C107.396 88.02 107.38 87.976 107.38 87.92V79.88C107.38 79.824 107.396 79.78 107.428 79.748C107.46 79.716 107.504 79.7 107.56 79.7H113.284C113.34 79.7 113.384 79.716 113.416 79.748C113.448 79.78 113.464 79.824 113.464 79.88V81.452Z" fill="white"/>
<rect x="87.0957" y="107" width="21" height="38" fill="#0B0703"/>
<rect x="83.0957" y="105" width="5" height="40" fill="#42382A"/>
<rect x="106.096" y="105" width="5" height="40" fill="#42382A"/>
<rect x="83.0957" y="110" width="5" height="28" transform="rotate(-90 83.0957 110)" fill="#42382A"/>
<rect x="86.0957" y="108" width="22" height="37" fill="#261E11"/>
<rect x="88.0957" y="129" width="3" height="1" fill="#8C8C8C"/>
</svg>
