<svg width="167" height="167" viewBox="0 0 167 167" fill="none" xmlns="http://www.w3.org/2000/svg">
<path d="M88.9309 29.1747C98.1902 18.712 85.0729 4.0241 77.3569 0H127.176C116.105 2.51506 117.615 10.0602 117.615 13.5813C126.169 49.2952 98.4921 56.8404 60.7504 57.8464C56.6948 57.9545 51.9243 66.2444 66.286 69.4157C76.538 71.6794 93.0018 70.0866 102.015 70.9247C185.348 74.5464 152.835 136.316 126.5 167H76C94.6192 139.837 86.9181 159.958 107.047 135.813C136.234 94.5663 97.318 93.3926 80.8794 94.0633C60.0796 94.0633 41.628 92.5542 27.0345 70.9247C21.3272 62.4657 24.7404 51.4466 28.5442 47.2831C35.0353 40.1783 39.6151 40.241 48.1699 38.7319C58.4594 36.9169 79.6716 39.6374 88.9309 29.1747Z" fill="#C6B193"/>
<ellipse cx="39" cy="55" rx="5" ry="4" fill="#A89578"/>
<ellipse cx="34" cy="61.5" rx="2" ry="1.5" fill="#A89578"/>
<circle cx="43.5" cy="49.5" r="0.5" fill="#A89578"/>
<circle cx="45.5" cy="52.5" r="0.5" fill="#A89578"/>
<circle cx="43" cy="61" r="1" fill="#A89578"/>
<ellipse rx="5" ry="4" transform="matrix(-1 0 0 1 104 28)" fill="#A89578"/>
<ellipse rx="2" ry="1.5" transform="matrix(-1 0 0 1 109 34.5)" fill="#A89578"/>
<circle r="0.5" transform="matrix(-1 0 0 1 99.5 22.5)" fill="#A89578"/>
<circle r="0.5" transform="matrix(-1 0 0 1 106.5 21.5)" fill="#A89578"/>
<circle r="0.5" transform="matrix(-1 0 0 1 109.5 23.5)" fill="#A89578"/>
<circle r="0.5" transform="matrix(-1 0 0 1 97.5 25.5)" fill="#A89578"/>
<circle r="1" transform="matrix(-1 0 0 1 100 34)" fill="#A89578"/>
<ellipse rx="1.5" ry="1" transform="matrix(-1 0 0 1 109.5 21)" fill="#A89578"/>
<ellipse rx="8.57143" ry="6.85714" transform="matrix(-1 0 0 1 132 99.2857)" fill="#A89578"/>
<ellipse rx="3.42857" ry="2.57143" transform="matrix(-1 0 0 1 140.571 110.429)" fill="#A89578"/>
<circle r="3.5" transform="matrix(-1 0 0 1 132.5 117.5)" fill="#A89578"/>
<ellipse rx="2.5" ry="1.5" transform="matrix(-1 0 0 1 132.5 86.5)" fill="#A89578"/>
<circle r="0.857143" transform="matrix(-1 0 0 1 124.286 89.8571)" fill="#A89578"/>
<circle r="0.857143" transform="matrix(-1 0 0 1 120.857 95)" fill="#A89578"/>
<circle r="0.857143" transform="matrix(-1 0 0 1 143.857 102.857)" fill="#A89578"/>
<circle r="1.71429" transform="matrix(-1 0 0 1 125.143 109.571)" fill="#A89578"/>
<circle r="1.71429" transform="matrix(-1 0 0 1 144.714 93.7143)" fill="#A89578"/>
<rect x="137.143" y="20.4286" width="12.5" height="3.57143" fill="#594220"/>
<circle cx="136.25" cy="17.75" r="6.25" fill="#576B2D"/>
<circle cx="150.536" cy="19.5357" r="4.46429" fill="#576B2D"/>
<circle cx="143.393" cy="15.9643" r="8.03571" fill="#617733"/>
<rect x="19.1428" y="19.5" width="12.5" height="3.57143" fill="#594220"/>
<circle cx="18.25" cy="16.8214" r="6.25" fill="#576B2D"/>
<circle cx="32.5357" cy="18.6071" r="4.46429" fill="#576B2D"/>
<circle cx="25.3929" cy="15.0357" r="8.03571" fill="#617733"/>
<rect x="80.1428" y="116.5" width="12.5" height="3.57143" fill="#594220"/>
<circle cx="79.25" cy="113.821" r="6.25" fill="#576B2D"/>
<circle cx="93.5357" cy="115.607" r="4.46429" fill="#576B2D"/>
<circle cx="86.3929" cy="112.036" r="8.03571" fill="#617733"/>
<rect x="16.1428" y="148.5" width="12.5" height="3.57143" fill="#594220"/>
<circle cx="15.25" cy="145.821" r="6.25" fill="#576B2D"/>
<circle cx="29.5357" cy="147.607" r="4.46429" fill="#576B2D"/>
<circle cx="22.3929" cy="144.036" r="8.03571" fill="#617733"/>
<path d="M131.756 40.0778C131.005 39.3089 128.939 41.0389 128 42V38.1556C130.817 37.1945 132.695 41.0389 131.756 40.0778Z" fill="#56772D"/>
<path d="M126.122 40.0778C126.498 39.3089 127.531 41.0389 128 42V38.1556C126.592 37.1945 125.653 41.0389 126.122 40.0778Z" fill="#56772D"/>
<circle cx="128" cy="37" r="1" fill="white"/>
<circle cx="129" cy="38" r="1" fill="#E0E0E0"/>
<circle cx="127" cy="38" r="1" fill="#E0E0E0"/>
<circle cx="128" cy="39" r="1" fill="#D2D2D2"/>
<circle cx="128" cy="38" r="1" fill="#E2D346"/>
<path d="M136.756 37.0778C136.005 36.3089 133.939 38.0389 133 39V35.1556C135.817 34.1945 137.695 38.0389 136.756 37.0778Z" fill="#56772D"/>
<path d="M131.122 37.0778C131.498 36.3089 132.531 38.0389 133 39V35.1556C131.592 34.1945 130.653 38.0389 131.122 37.0778Z" fill="#56772D"/>
<circle cx="133" cy="34" r="1" fill="white"/>
<circle cx="134" cy="35" r="1" fill="#E0E0E0"/>
<circle cx="132" cy="35" r="1" fill="#E0E0E0"/>
<circle cx="133" cy="36" r="1" fill="#D2D2D2"/>
<circle cx="133" cy="35" r="1" fill="#E2D346"/>
<path d="M137.756 46.0778C137.005 45.3089 134.939 47.0389 134 48V44.1556C136.817 43.1945 138.695 47.0389 137.756 46.0778Z" fill="#56772D"/>
<path d="M132.122 46.0778C132.498 45.3089 133.531 47.0389 134 48V44.1556C132.592 43.1945 131.653 47.0389 132.122 46.0778Z" fill="#56772D"/>
<circle cx="134" cy="43" r="1" fill="white"/>
<circle cx="135" cy="44" r="1" fill="#E0E0E0"/>
<circle cx="133" cy="44" r="1" fill="#E0E0E0"/>
<circle cx="134" cy="45" r="1" fill="#D2D2D2"/>
<circle cx="134" cy="44" r="1" fill="#E2D346"/>
<path d="M154.756 36.0778C154.005 35.3089 151.939 37.0389 151 38V34.1556C153.817 33.1945 155.695 37.0389 154.756 36.0778Z" fill="#56772D"/>
<path d="M149.122 36.0778C149.498 35.3089 150.531 37.0389 151 38V34.1556C149.592 33.1945 148.653 37.0389 149.122 36.0778Z" fill="#56772D"/>
<circle cx="151" cy="33" r="1" fill="white"/>
<circle cx="152" cy="34" r="1" fill="#E0E0E0"/>
<circle cx="150" cy="34" r="1" fill="#E0E0E0"/>
<circle cx="151" cy="35" r="1" fill="#D2D2D2"/>
<circle cx="151" cy="34" r="1" fill="#E2D346"/>
<path d="M134.756 7.07781C134.005 6.30893 131.939 8.0389 131 9V5.1556C133.817 4.1945 135.695 8.0389 134.756 7.07781Z" fill="#56772D"/>
<path d="M129.122 7.07781C129.498 6.30893 130.531 8.0389 131 9V5.1556C129.592 4.1945 128.653 8.0389 129.122 7.07781Z" fill="#56772D"/>
<circle cx="131" cy="4" r="1" fill="white"/>
<circle cx="132" cy="5" r="1" fill="#E0E0E0"/>
<circle cx="130" cy="5" r="1" fill="#E0E0E0"/>
<circle cx="131" cy="6" r="1" fill="#D2D2D2"/>
<circle cx="131" cy="5" r="1" fill="#E2D346"/>
<path d="M68.7558 64.0778C68.0046 63.3089 65.9389 65.0389 65 66V62.1556C67.8168 61.1945 69.6947 65.0389 68.7558 64.0778Z" fill="#56772D"/>
<path d="M63.1221 64.0778C63.4977 63.3089 64.5305 65.0389 65 66V62.1556C63.5916 61.1945 62.6527 65.0389 63.1221 64.0778Z" fill="#56772D"/>
<circle cx="65" cy="61" r="1" fill="white"/>
<circle cx="66" cy="62" r="1" fill="#E0E0E0"/>
<circle cx="64" cy="62" r="1" fill="#E0E0E0"/>
<circle cx="65" cy="63" r="1" fill="#D2D2D2"/>
<circle cx="65" cy="62" r="1" fill="#E2D346"/>
<path d="M75.7558 62.0778C75.0046 61.3089 72.9389 63.0389 72 64V60.1556C74.8168 59.1945 76.6947 63.0389 75.7558 62.0778Z" fill="#56772D"/>
<path d="M70.1221 62.0778C70.4977 61.3089 71.5305 63.0389 72 64V60.1556C70.5916 59.1945 69.6527 63.0389 70.1221 62.0778Z" fill="#56772D"/>
<circle cx="72" cy="59" r="1" fill="white"/>
<circle cx="73" cy="60" r="1" fill="#E0E0E0"/>
<circle cx="71" cy="60" r="1" fill="#E0E0E0"/>
<circle cx="72" cy="61" r="1" fill="#D2D2D2"/>
<circle cx="72" cy="60" r="1" fill="#E2D346"/>
<path d="M89.7558 17.0778C89.0046 16.3089 86.9389 18.0389 86 19V15.1556C88.8168 14.1945 90.6947 18.0389 89.7558 17.0778Z" fill="#56772D"/>
<path d="M84.1221 17.0778C84.4977 16.3089 85.5305 18.0389 86 19V15.1556C84.5916 14.1945 83.6527 18.0389 84.1221 17.0778Z" fill="#56772D"/>
<circle cx="86" cy="14" r="1" fill="white"/>
<circle cx="87" cy="15" r="1" fill="#E0E0E0"/>
<circle cx="85" cy="15" r="1" fill="#E0E0E0"/>
<circle cx="86" cy="16" r="1" fill="#D2D2D2"/>
<circle cx="86" cy="15" r="1" fill="#E2D346"/>
<path d="M87.7558 25.0778C87.0046 24.3089 84.9389 26.0389 84 27V23.1556C86.8168 22.1945 88.6947 26.0389 87.7558 25.0778Z" fill="#56772D"/>
<path d="M82.1221 25.0778C82.4977 24.3089 83.5305 26.0389 84 27V23.1556C82.5916 22.1945 81.6527 26.0389 82.1221 25.0778Z" fill="#56772D"/>
<circle cx="84" cy="22" r="1" fill="white"/>
<circle cx="85" cy="23" r="1" fill="#E0E0E0"/>
<circle cx="83" cy="23" r="1" fill="#E0E0E0"/>
<circle cx="84" cy="24" r="1" fill="#D2D2D2"/>
<circle cx="84" cy="23" r="1" fill="#E2D346"/>
<path d="M45.7558 11.0778C45.0046 10.3089 42.9389 12.0389 42 13V9.1556C44.8168 8.1945 46.6947 12.0389 45.7558 11.0778Z" fill="#56772D"/>
<path d="M40.1221 11.0778C40.4977 10.3089 41.5305 12.0389 42 13V9.1556C40.5916 8.1945 39.6527 12.0389 40.1221 11.0778Z" fill="#56772D"/>
<circle cx="42" cy="8" r="1" fill="white"/>
<circle cx="43" cy="9" r="1" fill="#E0E0E0"/>
<circle cx="41" cy="9" r="1" fill="#E0E0E0"/>
<circle cx="42" cy="10" r="1" fill="#D2D2D2"/>
<circle cx="42" cy="9" r="1" fill="#E2D346"/>
<path d="M15.7558 30.0778C15.0046 29.3089 12.9389 31.0389 12 32V28.1556C14.8168 27.1945 16.6947 31.0389 15.7558 30.0778Z" fill="#56772D"/>
<path d="M10.1221 30.0778C10.4977 29.3089 11.5305 31.0389 12 32V28.1556C10.5916 27.1945 9.65265 31.0389 10.1221 30.0778Z" fill="#56772D"/>
<circle cx="12" cy="27" r="1" fill="white"/>
<circle cx="13" cy="28" r="1" fill="#E0E0E0"/>
<circle cx="11" cy="28" r="1" fill="#E0E0E0"/>
<circle cx="12" cy="29" r="1" fill="#D2D2D2"/>
<circle cx="12" cy="28" r="1" fill="#E2D346"/>
<path d="M16.7558 62.0778C16.0046 61.3089 13.9389 63.0389 13 64V60.1556C15.8168 59.1945 17.6947 63.0389 16.7558 62.0778Z" fill="#56772D"/>
<path d="M11.1221 62.0778C11.4977 61.3089 12.5305 63.0389 13 64V60.1556C11.5916 59.1945 10.6527 63.0389 11.1221 62.0778Z" fill="#56772D"/>
<circle cx="13" cy="59" r="1" fill="white"/>
<circle cx="14" cy="60" r="1" fill="#E0E0E0"/>
<circle cx="12" cy="60" r="1" fill="#E0E0E0"/>
<circle cx="13" cy="61" r="1" fill="#D2D2D2"/>
<circle cx="13" cy="60" r="1" fill="#E2D346"/>
<path d="M34.7558 96.0778C34.0046 95.3089 31.9389 97.0389 31 98V94.1556C33.8168 93.1945 35.6947 97.0389 34.7558 96.0778Z" fill="#56772D"/>
<path d="M29.1221 96.0778C29.4977 95.3089 30.5305 97.0389 31 98V94.1556C29.5916 93.1945 28.6527 97.0389 29.1221 96.0778Z" fill="#56772D"/>
<circle cx="31" cy="93" r="1" fill="white"/>
<circle cx="32" cy="94" r="1" fill="#E0E0E0"/>
<circle cx="30" cy="94" r="1" fill="#E0E0E0"/>
<circle cx="31" cy="95" r="1" fill="#D2D2D2"/>
<circle cx="31" cy="94" r="1" fill="#E2D346"/>
<path d="M25.7558 102.078C25.0046 101.309 22.9389 103.039 22 104V100.156C24.8168 99.1945 26.6947 103.039 25.7558 102.078Z" fill="#56772D"/>
<path d="M20.1221 102.078C20.4977 101.309 21.5305 103.039 22 104V100.156C20.5916 99.1945 19.6527 103.039 20.1221 102.078Z" fill="#56772D"/>
<circle cx="22" cy="99" r="1" fill="white"/>
<circle cx="23" cy="100" r="1" fill="#E0E0E0"/>
<circle cx="21" cy="100" r="1" fill="#E0E0E0"/>
<circle cx="22" cy="101" r="1" fill="#D2D2D2"/>
<circle cx="22" cy="100" r="1" fill="#E2D346"/>
<path d="M35.7558 104.078C35.0046 103.309 32.9389 105.039 32 106V102.156C34.8168 101.194 36.6947 105.039 35.7558 104.078Z" fill="#56772D"/>
<path d="M30.1221 104.078C30.4977 103.309 31.5305 105.039 32 106V102.156C30.5916 101.194 29.6527 105.039 30.1221 104.078Z" fill="#56772D"/>
<circle cx="32" cy="101" r="1" fill="white"/>
<circle cx="33" cy="102" r="1" fill="#E0E0E0"/>
<circle cx="31" cy="102" r="1" fill="#E0E0E0"/>
<circle cx="32" cy="103" r="1" fill="#D2D2D2"/>
<circle cx="32" cy="102" r="1" fill="#E2D346"/>
<path d="M45.7558 160.078C45.0046 159.309 42.9389 161.039 42 162V158.156C44.8168 157.194 46.6947 161.039 45.7558 160.078Z" fill="#56772D"/>
<path d="M40.1221 160.078C40.4977 159.309 41.5305 161.039 42 162V158.156C40.5916 157.194 39.6527 161.039 40.1221 160.078Z" fill="#56772D"/>
<circle cx="42" cy="157" r="1" fill="white"/>
<circle cx="43" cy="158" r="1" fill="#E0E0E0"/>
<circle cx="41" cy="158" r="1" fill="#E0E0E0"/>
<circle cx="42" cy="159" r="1" fill="#D2D2D2"/>
<circle cx="42" cy="158" r="1" fill="#E2D346"/>
<path d="M70.7558 154.078C70.0046 153.309 67.9389 155.039 67 156V152.156C69.8168 151.194 71.6947 155.039 70.7558 154.078Z" fill="#56772D"/>
<path d="M65.1221 154.078C65.4977 153.309 66.5305 155.039 67 156V152.156C65.5916 151.194 64.6527 155.039 65.1221 154.078Z" fill="#56772D"/>
<circle cx="67" cy="151" r="1" fill="white"/>
<circle cx="68" cy="152" r="1" fill="#E0E0E0"/>
<circle cx="66" cy="152" r="1" fill="#E0E0E0"/>
<circle cx="67" cy="153" r="1" fill="#D2D2D2"/>
<circle cx="67" cy="152" r="1" fill="#E2D346"/>
<path d="M69.7558 120.078C69.0046 119.309 66.9389 121.039 66 122V118.156C68.8168 117.194 70.6947 121.039 69.7558 120.078Z" fill="#56772D"/>
<path d="M64.1221 120.078C64.4977 119.309 65.5305 121.039 66 122V118.156C64.5916 117.194 63.6527 121.039 64.1221 120.078Z" fill="#56772D"/>
<circle cx="66" cy="117" r="1" fill="white"/>
<circle cx="67" cy="118" r="1" fill="#E0E0E0"/>
<circle cx="65" cy="118" r="1" fill="#E0E0E0"/>
<circle cx="66" cy="119" r="1" fill="#D2D2D2"/>
<circle cx="66" cy="118" r="1" fill="#E2D346"/>
<path d="M76.7558 128.078C76.0046 127.309 73.9389 129.039 73 130V126.156C75.8168 125.194 77.6947 129.039 76.7558 128.078Z" fill="#56772D"/>
<path d="M71.1221 128.078C71.4977 127.309 72.5305 129.039 73 130V126.156C71.5916 125.194 70.6527 129.039 71.1221 128.078Z" fill="#56772D"/>
<circle cx="73" cy="125" r="1" fill="white"/>
<circle cx="74" cy="126" r="1" fill="#E0E0E0"/>
<circle cx="72" cy="126" r="1" fill="#E0E0E0"/>
<circle cx="73" cy="127" r="1" fill="#D2D2D2"/>
<circle cx="73" cy="126" r="1" fill="#E2D346"/>
<path d="M108.756 114.078C108.005 113.309 105.939 115.039 105 116V112.156C107.817 111.194 109.695 115.039 108.756 114.078Z" fill="#56772D"/>
<path d="M103.122 114.078C103.498 113.309 104.531 115.039 105 116V112.156C103.592 111.194 102.653 115.039 103.122 114.078Z" fill="#56772D"/>
<circle cx="105" cy="111" r="1" fill="white"/>
<circle cx="106" cy="112" r="1" fill="#E0E0E0"/>
<circle cx="104" cy="112" r="1" fill="#E0E0E0"/>
<circle cx="105" cy="113" r="1" fill="#D2D2D2"/>
<circle cx="105" cy="112" r="1" fill="#E2D346"/>
<path d="M144.756 73.0778C144.005 72.3089 141.939 74.0389 141 75V71.1556C143.817 70.1945 145.695 74.0389 144.756 73.0778Z" fill="#56772D"/>
<path d="M139.122 73.0778C139.498 72.3089 140.531 74.0389 141 75V71.1556C139.592 70.1945 138.653 74.0389 139.122 73.0778Z" fill="#56772D"/>
<circle cx="141" cy="70" r="1" fill="white"/>
<circle cx="142" cy="71" r="1" fill="#E0E0E0"/>
<circle cx="140" cy="71" r="1" fill="#E0E0E0"/>
<circle cx="141" cy="72" r="1" fill="#D2D2D2"/>
<circle cx="141" cy="71" r="1" fill="#E2D346"/>
<path d="M152.756 79.0778C152.005 78.3089 149.939 80.0389 149 81V77.1556C151.817 76.1945 153.695 80.0389 152.756 79.0778Z" fill="#56772D"/>
<path d="M147.122 79.0778C147.498 78.3089 148.531 80.0389 149 81V77.1556C147.592 76.1945 146.653 80.0389 147.122 79.0778Z" fill="#56772D"/>
<circle cx="149" cy="76" r="1" fill="white"/>
<circle cx="150" cy="77" r="1" fill="#E0E0E0"/>
<circle cx="148" cy="77" r="1" fill="#E0E0E0"/>
<circle cx="149" cy="78" r="1" fill="#D2D2D2"/>
<circle cx="149" cy="77" r="1" fill="#E2D346"/>
<path d="M162.756 135.078C162.005 134.309 159.939 136.039 159 137V133.156C161.817 132.194 163.695 136.039 162.756 135.078Z" fill="#56772D"/>
<path d="M157.122 135.078C157.498 134.309 158.531 136.039 159 137V133.156C157.592 132.194 156.653 136.039 157.122 135.078Z" fill="#56772D"/>
<circle cx="159" cy="132" r="1" fill="white"/>
<circle cx="160" cy="133" r="1" fill="#E0E0E0"/>
<circle cx="158" cy="133" r="1" fill="#E0E0E0"/>
<circle cx="159" cy="134" r="1" fill="#D2D2D2"/>
<circle cx="159" cy="133" r="1" fill="#E2D346"/>
<path d="M157.756 145.078C157.005 144.309 154.939 146.039 154 147V143.156C156.817 142.194 158.695 146.039 157.756 145.078Z" fill="#56772D"/>
<path d="M152.122 145.078C152.498 144.309 153.531 146.039 154 147V143.156C152.592 142.194 151.653 146.039 152.122 145.078Z" fill="#56772D"/>
<circle cx="154" cy="142" r="1" fill="white"/>
<circle cx="155" cy="143" r="1" fill="#E0E0E0"/>
<circle cx="153" cy="143" r="1" fill="#E0E0E0"/>
<circle cx="154" cy="144" r="1" fill="#D2D2D2"/>
<circle cx="154" cy="143" r="1" fill="#E2D346"/>
<path d="M162.756 163.078C162.005 162.309 159.939 164.039 159 165V161.156C161.817 160.194 163.695 164.039 162.756 163.078Z" fill="#56772D"/>
<path d="M157.122 163.078C157.498 162.309 158.531 164.039 159 165V161.156C157.592 160.194 156.653 164.039 157.122 163.078Z" fill="#56772D"/>
<circle cx="159" cy="160" r="1" fill="white"/>
<circle cx="160" cy="161" r="1" fill="#E0E0E0"/>
<circle cx="158" cy="161" r="1" fill="#E0E0E0"/>
<circle cx="159" cy="162" r="1" fill="#D2D2D2"/>
<circle cx="159" cy="161" r="1" fill="#E2D346"/>
</svg>
