<svg width="200" height="200" viewBox="0 0 200 200" fill="none" xmlns="http://www.w3.org/2000/svg">
<path d="M59 139L101.5 107.5L145 141V191H59V139Z" fill="#1C1711"/>
<rect x="133" y="117" width="10" height="13" fill="#424242"/>
<rect x="132" y="114" width="12" height="4" fill="#5C5C5C"/>
<path d="M65.0001 133.5V124.95H136V133.5H65.0001Z" fill="#3E311E"/>
<rect x="11.0001" y="191" width="151" height="9" fill="#5C5E5F"/>
<path d="M44.1502 193.59C44.0691 192.433 44.9856 191.45 46.1453 191.45H58.8316C59.9998 191.45 60.9193 192.447 60.825 193.611L60.6403 195.893C60.5599 196.886 59.7603 197.669 58.7654 197.728L46.4752 198.458C45.3809 198.523 44.4383 197.695 44.3616 196.601L44.1502 193.59Z" fill="#5A5A5A"/>
<path d="M76.1502 193.59C76.0691 192.433 76.9856 191.45 78.1453 191.45H90.8316C91.9998 191.45 92.9193 192.447 92.825 193.611L92.6403 195.893C92.5599 196.886 91.7603 197.669 90.7654 197.728L78.4752 198.458C77.3809 198.523 76.4383 197.695 76.3616 196.601L76.1502 193.59Z" fill="#5A5A5A"/>
<path d="M128.15 193.59C128.069 192.433 128.986 191.45 130.145 191.45H142.832C144 191.45 144.919 192.447 144.825 193.611L144.64 195.893C144.56 196.886 143.76 197.669 142.765 197.728L130.475 198.458C129.381 198.523 128.438 197.695 128.362 196.601L128.15 193.59Z" fill="#5A5A5A"/>
<path d="M52.1432 197.866C52.0657 199.021 52.9815 200 54.1387 200H62.8393C64.0047 200 64.9232 199.008 64.8333 197.846L64.7519 196.794C64.675 195.8 63.8772 195.014 62.8819 194.952L54.3687 194.423C53.2701 194.355 52.3229 195.187 52.2492 196.286L52.1432 197.866Z" fill="#5A5A5A"/>
<path d="M104.143 197.866C104.066 199.021 104.981 200 106.139 200H114.839C116.005 200 116.923 199.008 116.833 197.846L116.752 196.794C116.675 195.8 115.877 195.014 114.882 194.952L106.369 194.423C105.27 194.355 104.323 195.187 104.249 196.286L104.143 197.866Z" fill="#5A5A5A"/>
<path d="M149.143 197.866C149.066 199.021 149.981 200 151.139 200H159.839C161.005 200 161.923 199.008 161.833 197.846L161.752 196.794C161.675 195.8 160.877 195.014 159.882 194.952L151.369 194.423C150.27 194.355 149.323 195.187 149.249 196.286L149.143 197.866Z" fill="#5A5A5A"/>
<path d="M65.0001 173.097H85.0001L80.0001 181.578H65.0001V173.097Z" fill="#4B4B4B"/>
<rect x="65.0001" y="188.173" width="17" height="2.82672" fill="#4B4B4B"/>
<rect x="68.0001" y="181.578" width="10" height="6.59568" fill="#4B4B4B"/>
<rect x="61.0001" y="173.097" width="4" height="2.82672" fill="#4B4B4B"/>
<rect x="119" y="170" width="24" height="21" fill="#898989"/>
<path d="M133.345 140H143V170H129L133.345 140Z" fill="#6B6B6B"/>
<path d="M85.0001 119.25V110.7H117V119.25H85.0001Z" fill="#3E311E"/>
<path d="M55.0001 143V134.45H146V143H55.0001Z" fill="#3E311E"/>
<rect x="16" y="160" width="9" height="31" fill="#594220"/>
<rect width="8.76854" height="48.7723" transform="matrix(0.390247 0.92071 0.948365 -0.317182 9.90436 158.434)" fill="#966E33"/>
<rect x="52" y="136" width="9" height="55" fill="#594220"/>
<rect x="52.0001" y="143" width="8.55" height="92" transform="rotate(-90 52.0001 143)" fill="#594220"/>
<rect x="143" y="136" width="9" height="55" fill="#594220"/>
<rect width="8.76854" height="87.544" transform="matrix(-0.647559 0.762016 -0.810241 -0.586097 166.182 145.279)" fill="#966E33"/>
<rect width="8.76854" height="87.5405" transform="matrix(0.647559 0.762016 0.810241 -0.586097 37.0001 144.907)" fill="#966E33"/>
<rect x="73.0001" y="120.2" width="57" height="19" fill="#241D13"/>
<path d="M89.5401 127.452C89.5401 127.508 89.5241 127.552 89.4921 127.584C89.4601 127.616 89.4161 127.632 89.3601 127.632H85.7841C85.7441 127.632 85.7241 127.652 85.7241 127.692V128.82C85.7241 128.86 85.7441 128.88 85.7841 128.88H88.0041C88.0601 128.88 88.1041 128.896 88.1361 128.928C88.1681 128.96 88.1841 129.004 88.1841 129.06V130.62C88.1841 130.676 88.1681 130.72 88.1361 130.752C88.1041 130.784 88.0601 130.8 88.0041 130.8H85.7841C85.7441 130.8 85.7241 130.82 85.7241 130.86V133.92C85.7241 133.976 85.7081 134.02 85.6761 134.052C85.6441 134.084 85.6001 134.1 85.5441 134.1H83.6481C83.5921 134.1 83.5481 134.084 83.5161 134.052C83.4841 134.02 83.4681 133.976 83.4681 133.92V125.88C83.4681 125.824 83.4841 125.78 83.5161 125.748C83.5481 125.716 83.5921 125.7 83.6481 125.7H89.3601C89.4161 125.7 89.4601 125.716 89.4921 125.748C89.5241 125.78 89.5401 125.824 89.5401 125.88V127.452ZM93.3646 134.244C92.7006 134.244 92.1126 134.112 91.6006 133.848C91.0966 133.576 90.7046 133.2 90.4246 132.72C90.1446 132.232 90.0046 131.668 90.0046 131.028V128.772C90.0046 128.148 90.1446 127.596 90.4246 127.116C90.7046 126.636 91.0966 126.264 91.6006 126C92.1126 125.736 92.7006 125.604 93.3646 125.604C94.0366 125.604 94.6246 125.736 95.1286 126C95.6406 126.264 96.0366 126.636 96.3166 127.116C96.5966 127.596 96.7366 128.148 96.7366 128.772V131.028C96.7366 131.668 96.5966 132.232 96.3166 132.72C96.0366 133.2 95.6406 133.576 95.1286 133.848C94.6246 134.112 94.0366 134.244 93.3646 134.244ZM93.3646 132.312C93.7006 132.312 93.9686 132.204 94.1686 131.988C94.3766 131.764 94.4806 131.468 94.4806 131.1V128.748C94.4806 128.38 94.3766 128.088 94.1686 127.872C93.9686 127.648 93.7006 127.536 93.3646 127.536C93.0366 127.536 92.7686 127.648 92.5606 127.872C92.3606 128.088 92.2606 128.38 92.2606 128.748V131.1C92.2606 131.468 92.3606 131.764 92.5606 131.988C92.7686 132.204 93.0366 132.312 93.3646 132.312ZM101.982 134.1C101.878 134.1 101.81 134.056 101.778 133.968L100.458 130.92C100.442 130.888 100.418 130.872 100.386 130.872H99.8817C99.8417 130.872 99.8217 130.892 99.8217 130.932V133.92C99.8217 133.976 99.8057 134.02 99.7737 134.052C99.7417 134.084 99.6977 134.1 99.6417 134.1H97.7457C97.6897 134.1 97.6457 134.084 97.6137 134.052C97.5817 134.02 97.5657 133.976 97.5657 133.92V125.88C97.5657 125.824 97.5817 125.78 97.6137 125.748C97.6457 125.716 97.6897 125.7 97.7457 125.7H101.382C101.926 125.7 102.402 125.812 102.81 126.036C103.226 126.26 103.546 126.576 103.77 126.984C104.002 127.384 104.118 127.848 104.118 128.376C104.118 128.904 103.986 129.368 103.722 129.768C103.466 130.16 103.11 130.448 102.654 130.632C102.614 130.648 102.602 130.676 102.618 130.716L104.142 133.884C104.158 133.932 104.166 133.96 104.166 133.968C104.166 134.008 104.15 134.04 104.118 134.064C104.086 134.088 104.046 134.1 103.998 134.1H101.982ZM99.8817 127.632C99.8417 127.632 99.8217 127.652 99.8217 127.692V129.096C99.8217 129.136 99.8417 129.156 99.8817 129.156H101.01C101.266 129.156 101.474 129.088 101.634 128.952C101.794 128.808 101.874 128.624 101.874 128.4C101.874 128.168 101.794 127.984 101.634 127.848C101.474 127.704 101.266 127.632 101.01 127.632H99.8817ZM108.153 134.196C107.497 134.196 106.917 134.064 106.413 133.8C105.917 133.536 105.529 133.164 105.249 132.684C104.977 132.204 104.841 131.652 104.841 131.028V128.76C104.841 128.136 104.977 127.588 105.249 127.116C105.529 126.636 105.917 126.264 106.413 126C106.917 125.736 107.497 125.604 108.153 125.604C108.793 125.604 109.365 125.732 109.869 125.988C110.373 126.236 110.761 126.576 111.033 127.008C111.313 127.44 111.453 127.912 111.453 128.424V128.436C111.453 128.492 111.437 128.536 111.405 128.568C111.373 128.6 111.329 128.616 111.273 128.616H109.389C109.269 128.616 109.209 128.58 109.209 128.508C109.209 128.244 109.113 128.016 108.921 127.824C108.737 127.632 108.481 127.536 108.153 127.536C107.833 127.536 107.577 127.644 107.385 127.86C107.193 128.068 107.097 128.348 107.097 128.7V131.1C107.097 131.444 107.205 131.724 107.421 131.94C107.645 132.156 107.921 132.264 108.249 132.264C108.545 132.264 108.785 132.184 108.969 132.024C109.161 131.856 109.257 131.628 109.257 131.34V131.184C109.257 131.144 109.237 131.124 109.197 131.124H108.141C108.085 131.124 108.041 131.108 108.009 131.076C107.977 131.044 107.961 131 107.961 130.944V129.504C107.961 129.448 107.977 129.404 108.009 129.372C108.041 129.34 108.085 129.324 108.141 129.324H111.273C111.329 129.324 111.373 129.34 111.405 129.372C111.437 129.404 111.453 129.448 111.453 129.504V131.148C111.453 131.74 111.313 132.268 111.033 132.732C110.761 133.196 110.373 133.556 109.869 133.812C109.373 134.068 108.801 134.196 108.153 134.196ZM118.368 127.452C118.368 127.508 118.352 127.552 118.32 127.584C118.288 127.616 118.244 127.632 118.188 127.632H114.6C114.56 127.632 114.54 127.652 114.54 127.692V128.82C114.54 128.86 114.56 128.88 114.6 128.88H116.82C116.876 128.88 116.92 128.896 116.952 128.928C116.984 128.96 117 129.004 117 129.06V130.62C117 130.676 116.984 130.72 116.952 130.752C116.92 130.784 116.876 130.8 116.82 130.8H114.6C114.56 130.8 114.54 130.82 114.54 130.86V132.108C114.54 132.148 114.56 132.168 114.6 132.168H118.188C118.244 132.168 118.288 132.184 118.32 132.216C118.352 132.248 118.368 132.292 118.368 132.348V133.92C118.368 133.976 118.352 134.02 118.32 134.052C118.288 134.084 118.244 134.1 118.188 134.1H112.464C112.408 134.1 112.364 134.084 112.332 134.052C112.3 134.02 112.284 133.976 112.284 133.92V125.88C112.284 125.824 112.3 125.78 112.332 125.748C112.364 125.716 112.408 125.7 112.464 125.7H118.188C118.244 125.7 118.288 125.716 118.32 125.748C118.352 125.78 118.368 125.824 118.368 125.88V127.452Z" fill="white"/>
<rect x="40" y="189.698" width="7" height="1" transform="rotate(-31.8891 40 189.698)" fill="#362710"/>
<rect x="32" y="189" width="14" height="2" fill="#4F3714"/>
<rect x="38" y="179" width="3" height="11" fill="#4F3714"/>
<circle cx="39.5" cy="179.5" r="7.5" fill="#AAAAAA"/>
<circle cx="39.5" cy="179.5" r="1.5" fill="#545454"/>
</svg>
