<svg width="200" height="200" viewBox="0 0 200 200" fill="none" xmlns="http://www.w3.org/2000/svg">
<path d="M59 133.084V102L145 135.311V191H59V133.084Z" fill="#1C1711"/>
<rect x="133" y="123" width="10" height="10" fill="#424242"/>
<rect x="132" y="120" width="12" height="4" fill="#5C5C5C"/>
<rect x="119" y="169" width="24" height="22" fill="#898989"/>
<path d="M133 137H143V169H128.5L133 137Z" fill="#6B6B6B"/>
<path d="M55 139V130H136V139H55Z" fill="#594220"/>
<rect x="44" y="191" width="118" height="9" fill="#5C5E5F"/>
<path d="M44.1422 193.133C44.0652 191.979 44.9808 191 46.1378 191H58.8402C60.0053 191 60.9237 191.992 60.8344 193.153L60.6334 195.766C60.5569 196.76 59.7595 197.546 58.764 197.608L46.4878 198.376C45.3887 198.444 44.4408 197.612 44.3675 196.513L44.1422 193.133Z" fill="#5A5A5A"/>
<path d="M76.1422 193.133C76.0652 191.979 76.9808 191 78.1378 191H90.8402C92.0053 191 92.9237 191.992 92.8344 193.153L92.6334 195.766C92.5569 196.76 91.7595 197.546 90.764 197.608L78.4878 198.376C77.3887 198.444 76.4408 197.612 76.3675 196.513L76.1422 193.133Z" fill="#5A5A5A"/>
<path d="M128.142 193.133C128.065 191.979 128.981 191 130.138 191H142.84C144.005 191 144.924 191.992 144.834 193.153L144.633 195.766C144.557 196.76 143.759 197.546 142.764 197.608L130.488 198.376C129.389 198.444 128.441 197.612 128.368 196.513L128.142 193.133Z" fill="#5A5A5A"/>
<path d="M52.1356 197.873C52.0621 199.025 52.9769 200 54.1315 200H62.8475C64.0099 200 64.9274 199.013 64.8422 197.853L64.7453 196.536C64.6721 195.54 63.8767 194.752 62.8811 194.686L54.3814 194.131C53.2779 194.059 52.3253 194.896 52.2549 195.999L52.1356 197.873Z" fill="#5A5A5A"/>
<path d="M104.136 197.873C104.062 199.025 104.977 200 106.132 200H114.848C116.01 200 116.927 199.013 116.842 197.853L116.745 196.536C116.672 195.54 115.877 194.752 114.881 194.686L106.381 194.131C105.278 194.059 104.325 194.896 104.255 195.999L104.136 197.873Z" fill="#5A5A5A"/>
<path d="M149.136 197.873C149.062 199.025 149.977 200 151.132 200H159.848C161.01 200 161.927 199.013 161.842 197.853L161.745 196.536C161.672 195.54 160.877 194.752 159.881 194.686L151.381 194.131C150.278 194.059 149.325 194.896 149.255 195.999L149.136 197.873Z" fill="#5A5A5A"/>
<path d="M65 172H85L80 181H65V172Z" fill="#4B4B4B"/>
<rect x="65" y="188" width="17" height="3" fill="#4B4B4B"/>
<rect x="68" y="181" width="10" height="7" fill="#4B4B4B"/>
<rect x="61" y="172" width="4" height="3" fill="#4B4B4B"/>
<rect x="52" y="101" width="9" height="90" fill="#594220"/>
<rect x="143" y="140" width="9" height="51" fill="#594220"/>
<rect width="9.03939" height="130.473" transform="matrix(-0.418334 0.908293 -0.919807 -0.39237 166.001 142.577)" fill="#966E33"/>
<rect x="65" y="125" width="57" height="20" fill="#3E3933"/>
<path d="M81.54 132.352C81.54 132.408 81.524 132.452 81.492 132.484C81.46 132.516 81.416 132.532 81.36 132.532H77.784C77.744 132.532 77.724 132.552 77.724 132.592V133.72C77.724 133.76 77.744 133.78 77.784 133.78H80.004C80.06 133.78 80.104 133.796 80.136 133.828C80.168 133.86 80.184 133.904 80.184 133.96V135.52C80.184 135.576 80.168 135.62 80.136 135.652C80.104 135.684 80.06 135.7 80.004 135.7H77.784C77.744 135.7 77.724 135.72 77.724 135.76V138.82C77.724 138.876 77.708 138.92 77.676 138.952C77.644 138.984 77.6 139 77.544 139H75.648C75.592 139 75.548 138.984 75.516 138.952C75.484 138.92 75.468 138.876 75.468 138.82V130.78C75.468 130.724 75.484 130.68 75.516 130.648C75.548 130.616 75.592 130.6 75.648 130.6H81.36C81.416 130.6 81.46 130.616 81.492 130.648C81.524 130.68 81.54 130.724 81.54 130.78V132.352ZM85.3645 139.144C84.7005 139.144 84.1125 139.012 83.6005 138.748C83.0965 138.476 82.7045 138.1 82.4245 137.62C82.1445 137.132 82.0045 136.568 82.0045 135.928V133.672C82.0045 133.048 82.1445 132.496 82.4245 132.016C82.7045 131.536 83.0965 131.164 83.6005 130.9C84.1125 130.636 84.7005 130.504 85.3645 130.504C86.0365 130.504 86.6245 130.636 87.1285 130.9C87.6405 131.164 88.0365 131.536 88.3165 132.016C88.5965 132.496 88.7365 133.048 88.7365 133.672V135.928C88.7365 136.568 88.5965 137.132 88.3165 137.62C88.0365 138.1 87.6405 138.476 87.1285 138.748C86.6245 139.012 86.0365 139.144 85.3645 139.144ZM85.3645 137.212C85.7005 137.212 85.9685 137.104 86.1685 136.888C86.3765 136.664 86.4805 136.368 86.4805 136V133.648C86.4805 133.28 86.3765 132.988 86.1685 132.772C85.9685 132.548 85.7005 132.436 85.3645 132.436C85.0365 132.436 84.7685 132.548 84.5605 132.772C84.3605 132.988 84.2605 133.28 84.2605 133.648V136C84.2605 136.368 84.3605 136.664 84.5605 136.888C84.7685 137.104 85.0365 137.212 85.3645 137.212ZM93.9817 139C93.8777 139 93.8097 138.956 93.7777 138.868L92.4577 135.82C92.4417 135.788 92.4177 135.772 92.3857 135.772H91.8817C91.8417 135.772 91.8217 135.792 91.8217 135.832V138.82C91.8217 138.876 91.8057 138.92 91.7737 138.952C91.7417 138.984 91.6977 139 91.6417 139H89.7457C89.6897 139 89.6457 138.984 89.6137 138.952C89.5817 138.92 89.5657 138.876 89.5657 138.82V130.78C89.5657 130.724 89.5817 130.68 89.6137 130.648C89.6457 130.616 89.6897 130.6 89.7457 130.6H93.3817C93.9257 130.6 94.4017 130.712 94.8097 130.936C95.2257 131.16 95.5457 131.476 95.7697 131.884C96.0017 132.284 96.1177 132.748 96.1177 133.276C96.1177 133.804 95.9857 134.268 95.7217 134.668C95.4657 135.06 95.1097 135.348 94.6537 135.532C94.6137 135.548 94.6017 135.576 94.6177 135.616L96.1417 138.784C96.1577 138.832 96.1657 138.86 96.1657 138.868C96.1657 138.908 96.1497 138.94 96.1177 138.964C96.0857 138.988 96.0457 139 95.9977 139H93.9817ZM91.8817 132.532C91.8417 132.532 91.8217 132.552 91.8217 132.592V133.996C91.8217 134.036 91.8417 134.056 91.8817 134.056H93.0097C93.2657 134.056 93.4737 133.988 93.6337 133.852C93.7937 133.708 93.8737 133.524 93.8737 133.3C93.8737 133.068 93.7937 132.884 93.6337 132.748C93.4737 132.604 93.2657 132.532 93.0097 132.532H91.8817ZM100.152 139.096C99.4965 139.096 98.9165 138.964 98.4125 138.7C97.9165 138.436 97.5285 138.064 97.2485 137.584C96.9765 137.104 96.8405 136.552 96.8405 135.928V133.66C96.8405 133.036 96.9765 132.488 97.2485 132.016C97.5285 131.536 97.9165 131.164 98.4125 130.9C98.9165 130.636 99.4965 130.504 100.152 130.504C100.792 130.504 101.364 130.632 101.868 130.888C102.372 131.136 102.76 131.476 103.032 131.908C103.312 132.34 103.452 132.812 103.452 133.324V133.336C103.452 133.392 103.436 133.436 103.404 133.468C103.372 133.5 103.328 133.516 103.272 133.516H101.388C101.268 133.516 101.208 133.48 101.208 133.408C101.208 133.144 101.112 132.916 100.92 132.724C100.736 132.532 100.48 132.436 100.152 132.436C99.8325 132.436 99.5765 132.544 99.3845 132.76C99.1925 132.968 99.0965 133.248 99.0965 133.6V136C99.0965 136.344 99.2045 136.624 99.4205 136.84C99.6445 137.056 99.9205 137.164 100.248 137.164C100.544 137.164 100.784 137.084 100.968 136.924C101.16 136.756 101.256 136.528 101.256 136.24V136.084C101.256 136.044 101.236 136.024 101.196 136.024H100.14C100.084 136.024 100.04 136.008 100.008 135.976C99.9765 135.944 99.9605 135.9 99.9605 135.844V134.404C99.9605 134.348 99.9765 134.304 100.008 134.272C100.04 134.24 100.084 134.224 100.14 134.224H103.272C103.328 134.224 103.372 134.24 103.404 134.272C103.436 134.304 103.452 134.348 103.452 134.404V136.048C103.452 136.64 103.312 137.168 103.032 137.632C102.76 138.096 102.372 138.456 101.868 138.712C101.372 138.968 100.8 139.096 100.152 139.096ZM110.368 132.352C110.368 132.408 110.352 132.452 110.32 132.484C110.288 132.516 110.244 132.532 110.188 132.532H106.6C106.56 132.532 106.54 132.552 106.54 132.592V133.72C106.54 133.76 106.56 133.78 106.6 133.78H108.82C108.876 133.78 108.92 133.796 108.952 133.828C108.984 133.86 109 133.904 109 133.96V135.52C109 135.576 108.984 135.62 108.952 135.652C108.92 135.684 108.876 135.7 108.82 135.7H106.6C106.56 135.7 106.54 135.72 106.54 135.76V137.008C106.54 137.048 106.56 137.068 106.6 137.068H110.188C110.244 137.068 110.288 137.084 110.32 137.116C110.352 137.148 110.368 137.192 110.368 137.248V138.82C110.368 138.876 110.352 138.92 110.32 138.952C110.288 138.984 110.244 139 110.188 139H104.464C104.408 139 104.364 138.984 104.332 138.952C104.3 138.92 104.284 138.876 104.284 138.82V130.78C104.284 130.724 104.3 130.68 104.332 130.648C104.364 130.616 104.408 130.6 104.464 130.6H110.188C110.244 130.6 110.288 130.616 110.32 130.648C110.352 130.68 110.368 130.724 110.368 130.78V132.352Z" fill="white"/>
</svg>
