<svg width="200" height="200" viewBox="0 0 200 200" fill="none" xmlns="http://www.w3.org/2000/svg">
<path d="M51.0101 141.292L102.02 106L150 141.292V191H50L51.0101 141.292Z" fill="#0B0804"/>
<rect x="44" y="128" width="10" height="13" fill="#424242"/>
<rect x="43" y="125" width="12" height="4" fill="#5C5C5C"/>
<path d="M65 133.5V124.95H136V133.5H65Z" fill="#3E311E"/>
<rect x="11" y="191" width="180" height="9" fill="#5C5E5F"/>
<path d="M44.1502 193.59C44.069 192.433 44.9856 191.45 46.1453 191.45H58.8315C59.9997 191.45 60.9193 192.447 60.825 193.611L60.6402 195.893C60.5598 196.886 59.7602 197.669 58.7653 197.728L46.4751 198.458C45.3809 198.523 44.4382 197.695 44.3615 196.601L44.1502 193.59Z" fill="#5A5A5A"/>
<path d="M76.1502 193.59C76.069 192.433 76.9856 191.45 78.1453 191.45H90.8315C91.9997 191.45 92.9193 192.447 92.825 193.611L92.6402 195.893C92.5598 196.886 91.7602 197.669 90.7653 197.728L78.4751 198.458C77.3809 198.523 76.4382 197.695 76.3615 196.601L76.1502 193.59Z" fill="#5A5A5A"/>
<path d="M128.15 193.59C128.069 192.433 128.986 191.45 130.145 191.45H142.832C144 191.45 144.919 192.447 144.825 193.611L144.64 195.893C144.56 196.886 143.76 197.669 142.765 197.728L130.475 198.458C129.381 198.523 128.438 197.695 128.362 196.601L128.15 193.59Z" fill="#5A5A5A"/>
<path d="M52.1431 197.866C52.0657 199.021 52.9814 200 54.1387 200H62.8392C64.0046 200 64.9232 199.008 64.8333 197.846L64.7519 196.794C64.6749 195.8 63.8772 195.014 62.8818 194.952L54.3687 194.423C53.2701 194.355 52.3228 195.187 52.2492 196.286L52.1431 197.866Z" fill="#5A5A5A"/>
<path d="M104.143 197.866C104.066 199.021 104.981 200 106.139 200H114.839C116.005 200 116.923 199.008 116.833 197.846L116.752 196.794C116.675 195.8 115.877 195.014 114.882 194.952L106.369 194.423C105.27 194.355 104.323 195.187 104.249 196.286L104.143 197.866Z" fill="#5A5A5A"/>
<path d="M149.143 197.866C149.066 199.021 149.981 200 151.139 200H159.839C161.005 200 161.923 199.008 161.833 197.846L161.752 196.794C161.675 195.8 160.877 195.014 159.882 194.952L151.369 194.423C150.27 194.355 149.323 195.187 149.249 196.286L149.143 197.866Z" fill="#5A5A5A"/>
<path d="M147.667 173H166L161.417 181.55H147.667V173Z" fill="#4B4B4B"/>
<rect x="147.667" y="188.2" width="15.5833" height="2.85" fill="#4B4B4B"/>
<rect x="150.417" y="181.55" width="9.16667" height="6.65" fill="#4B4B4B"/>
<rect x="144" y="173" width="3.66667" height="2.85" fill="#4B4B4B"/>
<path d="M61 191V183H93V191H61Z" fill="#3E311E"/>
<path d="M111 191V183H143V191H111Z" fill="#3E311E"/>
<path d="M61 182V174H93V182H61Z" fill="#3E311E"/>
<path d="M111 182V174H143V182H111Z" fill="#3E311E"/>
<path d="M61 173V165H93V173H61Z" fill="#3E311E"/>
<path d="M111 173V165H143V173H111Z" fill="#3E311E"/>
<path d="M111 164V156H143V164H111Z" fill="#3E311E"/>
<path d="M61 164V156H93V164H61Z" fill="#3E311E"/>
<path d="M61 155V147H143V155H61Z" fill="#3E311E"/>
<path d="M61 146V141H143V146H61Z" fill="#3E311E"/>
<rect x="33" y="175" width="19" height="16" fill="#898989"/>
<rect width="9" height="31" transform="matrix(-1 0 0 1 188.442 160)" fill="#594220"/>
<rect x="15.9999" y="160" width="9" height="31" fill="#594220"/>
<rect width="8.76854" height="47.5896" transform="matrix(0.390247 0.92071 0.948365 -0.317182 9.90428 158.434)" fill="#966E33"/>
<rect width="8.76854" height="47.797" transform="matrix(-0.390247 0.92071 -0.948365 -0.317182 194.538 158.434)" fill="#966E33"/>
<path d="M44.4138 152H52V175H41L44.4138 152Z" fill="#6B6B6B"/>
<path d="M85 119.25V110.7H117V119.25H85Z" fill="#3E311E"/>
<path d="M55 143V134.45H146V143H55Z" fill="#3E311E"/>
<rect x="52" y="136" width="9" height="55" fill="#594220"/>
<rect x="52" y="143" width="8.55" height="92" transform="rotate(-90 52 143)" fill="#594220"/>
<rect x="143" y="136" width="9" height="55" fill="#594220"/>
<rect width="8.76854" height="87.544" transform="matrix(-0.647559 0.762016 -0.810241 -0.586097 166.182 145.279)" fill="#966E33"/>
<rect width="8.76854" height="87.5405" transform="matrix(0.647559 0.762016 0.810241 -0.586097 37 144.907)" fill="#966E33"/>
<rect x="73" y="120.2" width="57" height="19" fill="#241D13"/>
<path d="M89.54 127.452C89.54 127.508 89.524 127.552 89.492 127.584C89.46 127.616 89.416 127.632 89.36 127.632H85.784C85.744 127.632 85.724 127.652 85.724 127.692V128.82C85.724 128.86 85.744 128.88 85.784 128.88H88.004C88.06 128.88 88.104 128.896 88.136 128.928C88.168 128.96 88.184 129.004 88.184 129.06V130.62C88.184 130.676 88.168 130.72 88.136 130.752C88.104 130.784 88.06 130.8 88.004 130.8H85.784C85.744 130.8 85.724 130.82 85.724 130.86V133.92C85.724 133.976 85.708 134.02 85.676 134.052C85.644 134.084 85.6 134.1 85.544 134.1H83.648C83.592 134.1 83.548 134.084 83.516 134.052C83.484 134.02 83.468 133.976 83.468 133.92V125.88C83.468 125.824 83.484 125.78 83.516 125.748C83.548 125.716 83.592 125.7 83.648 125.7H89.36C89.416 125.7 89.46 125.716 89.492 125.748C89.524 125.78 89.54 125.824 89.54 125.88V127.452ZM93.3645 134.244C92.7005 134.244 92.1125 134.112 91.6005 133.848C91.0965 133.576 90.7045 133.2 90.4245 132.72C90.1445 132.232 90.0045 131.668 90.0045 131.028V128.772C90.0045 128.148 90.1445 127.596 90.4245 127.116C90.7045 126.636 91.0965 126.264 91.6005 126C92.1125 125.736 92.7005 125.604 93.3645 125.604C94.0365 125.604 94.6245 125.736 95.1285 126C95.6405 126.264 96.0365 126.636 96.3165 127.116C96.5965 127.596 96.7365 128.148 96.7365 128.772V131.028C96.7365 131.668 96.5965 132.232 96.3165 132.72C96.0365 133.2 95.6405 133.576 95.1285 133.848C94.6245 134.112 94.0365 134.244 93.3645 134.244ZM93.3645 132.312C93.7005 132.312 93.9685 132.204 94.1685 131.988C94.3765 131.764 94.4805 131.468 94.4805 131.1V128.748C94.4805 128.38 94.3765 128.088 94.1685 127.872C93.9685 127.648 93.7005 127.536 93.3645 127.536C93.0365 127.536 92.7685 127.648 92.5605 127.872C92.3605 128.088 92.2605 128.38 92.2605 128.748V131.1C92.2605 131.468 92.3605 131.764 92.5605 131.988C92.7685 132.204 93.0365 132.312 93.3645 132.312ZM101.982 134.1C101.878 134.1 101.81 134.056 101.778 133.968L100.458 130.92C100.442 130.888 100.418 130.872 100.386 130.872H99.8817C99.8417 130.872 99.8217 130.892 99.8217 130.932V133.92C99.8217 133.976 99.8057 134.02 99.7737 134.052C99.7417 134.084 99.6977 134.1 99.6417 134.1H97.7457C97.6897 134.1 97.6457 134.084 97.6137 134.052C97.5817 134.02 97.5657 133.976 97.5657 133.92V125.88C97.5657 125.824 97.5817 125.78 97.6137 125.748C97.6457 125.716 97.6897 125.7 97.7457 125.7H101.382C101.926 125.7 102.402 125.812 102.81 126.036C103.226 126.26 103.546 126.576 103.77 126.984C104.002 127.384 104.118 127.848 104.118 128.376C104.118 128.904 103.986 129.368 103.722 129.768C103.466 130.16 103.11 130.448 102.654 130.632C102.614 130.648 102.602 130.676 102.618 130.716L104.142 133.884C104.158 133.932 104.166 133.96 104.166 133.968C104.166 134.008 104.15 134.04 104.118 134.064C104.086 134.088 104.046 134.1 103.998 134.1H101.982ZM99.8817 127.632C99.8417 127.632 99.8217 127.652 99.8217 127.692V129.096C99.8217 129.136 99.8417 129.156 99.8817 129.156H101.01C101.266 129.156 101.474 129.088 101.634 128.952C101.794 128.808 101.874 128.624 101.874 128.4C101.874 128.168 101.794 127.984 101.634 127.848C101.474 127.704 101.266 127.632 101.01 127.632H99.8817ZM108.152 134.196C107.496 134.196 106.916 134.064 106.412 133.8C105.916 133.536 105.528 133.164 105.248 132.684C104.976 132.204 104.84 131.652 104.84 131.028V128.76C104.84 128.136 104.976 127.588 105.248 127.116C105.528 126.636 105.916 126.264 106.412 126C106.916 125.736 107.496 125.604 108.152 125.604C108.792 125.604 109.364 125.732 109.868 125.988C110.372 126.236 110.76 126.576 111.032 127.008C111.312 127.44 111.452 127.912 111.452 128.424V128.436C111.452 128.492 111.436 128.536 111.404 128.568C111.372 128.6 111.328 128.616 111.272 128.616H109.388C109.268 128.616 109.208 128.58 109.208 128.508C109.208 128.244 109.112 128.016 108.92 127.824C108.736 127.632 108.48 127.536 108.152 127.536C107.832 127.536 107.576 127.644 107.384 127.86C107.192 128.068 107.096 128.348 107.096 128.7V131.1C107.096 131.444 107.204 131.724 107.42 131.94C107.644 132.156 107.92 132.264 108.248 132.264C108.544 132.264 108.784 132.184 108.968 132.024C109.16 131.856 109.256 131.628 109.256 131.34V131.184C109.256 131.144 109.236 131.124 109.196 131.124H108.14C108.084 131.124 108.04 131.108 108.008 131.076C107.976 131.044 107.96 131 107.96 130.944V129.504C107.96 129.448 107.976 129.404 108.008 129.372C108.04 129.34 108.084 129.324 108.14 129.324H111.272C111.328 129.324 111.372 129.34 111.404 129.372C111.436 129.404 111.452 129.448 111.452 129.504V131.148C111.452 131.74 111.312 132.268 111.032 132.732C110.76 133.196 110.372 133.556 109.868 133.812C109.372 134.068 108.8 134.196 108.152 134.196ZM118.368 127.452C118.368 127.508 118.352 127.552 118.32 127.584C118.288 127.616 118.244 127.632 118.188 127.632H114.6C114.56 127.632 114.54 127.652 114.54 127.692V128.82C114.54 128.86 114.56 128.88 114.6 128.88H116.82C116.876 128.88 116.92 128.896 116.952 128.928C116.984 128.96 117 129.004 117 129.06V130.62C117 130.676 116.984 130.72 116.952 130.752C116.92 130.784 116.876 130.8 116.82 130.8H114.6C114.56 130.8 114.54 130.82 114.54 130.86V132.108C114.54 132.148 114.56 132.168 114.6 132.168H118.188C118.244 132.168 118.288 132.184 118.32 132.216C118.352 132.248 118.368 132.292 118.368 132.348V133.92C118.368 133.976 118.352 134.02 118.32 134.052C118.288 134.084 118.244 134.1 118.188 134.1H112.464C112.408 134.1 112.364 134.084 112.332 134.052C112.3 134.02 112.284 133.976 112.284 133.92V125.88C112.284 125.824 112.3 125.78 112.332 125.748C112.364 125.716 112.408 125.7 112.464 125.7H118.188C118.244 125.7 118.288 125.716 118.32 125.748C118.352 125.78 118.368 125.824 118.368 125.88V127.452Z" fill="white"/>
<rect x="179" y="189.698" width="7" height="1" transform="rotate(-31.8891 179 189.698)" fill="#362710"/>
<rect x="171" y="189" width="14" height="2" fill="#4F3714"/>
<rect x="177" y="179" width="3" height="11" fill="#4F3714"/>
<circle cx="178.5" cy="179.5" r="7.5" fill="#AAAAAA"/>
<circle cx="178.5" cy="179.5" r="1.5" fill="#545454"/>
<rect x="92" y="153" width="21" height="38" fill="#0B0703"/>
<rect x="88" y="151" width="5" height="40" fill="#42382A"/>
<rect x="111" y="151" width="5" height="40" fill="#42382A"/>
<rect x="88" y="156" width="5" height="28" transform="rotate(-90 88 156)" fill="#42382A"/>
</svg>
