<svg width="167" height="88" viewBox="0 0 167 88" fill="none" xmlns="http://www.w3.org/2000/svg">
<path d="M88.4853 0C88.4853 16.6463 30 14.5278 0 14.5278V34.6999C9.5 34.6999 38.2431 36.1436 76.4873 32.6981C114.981 29.2301 123.48 10.4039 122.98 0H88.4853Z" fill="#C6B193"/>
<rect x="140.143" y="74.3054" width="12.5" height="3.67836" fill="#594220"/>
<ellipse cx="139.25" cy="71.5466" rx="6.25" ry="6.43712" fill="#576B2D"/>
<ellipse cx="153.536" cy="73.3858" rx="4.46429" ry="4.59794" fill="#576B2D"/>
<ellipse cx="146.393" cy="69.7074" rx="8.03571" ry="8.2763" fill="#617733"/>
<rect x="144.143" y="26.3772" width="12.5" height="3.67836" fill="#594220"/>
<ellipse cx="143.25" cy="23.6185" rx="6.25" ry="6.43712" fill="#576B2D"/>
<ellipse cx="157.536" cy="25.4576" rx="4.46429" ry="4.59794" fill="#576B2D"/>
<ellipse cx="150.393" cy="21.7793" rx="8.03571" ry="8.2763" fill="#617733"/>
<rect x="60.1428" y="59.7186" width="12.5" height="3.67836" fill="#594220"/>
<ellipse cx="59.25" cy="56.9598" rx="6.25" ry="6.43712" fill="#576B2D"/>
<ellipse cx="73.5357" cy="58.799" rx="4.46429" ry="4.59794" fill="#576B2D"/>
<ellipse cx="66.3929" cy="55.1206" rx="8.03571" ry="8.2763" fill="#617733"/>
<ellipse cx="111.895" cy="58.607" rx="11.8421" ry="4.52411" fill="black" fill-opacity="0.2"/>
<rect x="108.286" y="48.4816" width="6.42857" height="11.1634" fill="#594220"/>
<path d="M111.5 16.4799L130.986 51.6446H92.0144L111.5 16.4799Z" fill="url(#paint0_linear_32_1344)"/>
<path d="M111.5 9.78185L126.655 37.1322H96.3446L111.5 9.78185Z" fill="url(#paint1_linear_32_1344)"/>
<path d="M111.5 3.08384L122.325 22.0616H100.675L111.5 3.08384Z" fill="url(#paint2_linear_32_1344)"/>
<ellipse cx="27.807" cy="73.3583" rx="9.21053" ry="3.51875" fill="black" fill-opacity="0.2"/>
<rect x="25" y="65.483" width="5" height="8.68263" fill="#594220"/>
<path d="M27.5 40.5928L42.6554 67.9431H12.3446L27.5 40.5928Z" fill="url(#paint3_linear_32_1344)"/>
<path d="M27.5 35.3832L39.2876 56.6557H15.7125L27.5 35.3832Z" fill="url(#paint4_linear_32_1344)"/>
<path d="M27.5001 30.1737L35.9197 44.9341H19.0804L27.5001 30.1737Z" fill="url(#paint5_linear_32_1344)"/>
<path d="M159.756 45.8346C159.005 45.0427 156.939 46.8245 156 47.8144V43.8549C158.817 42.865 160.695 46.8245 159.756 45.8346Z" fill="#56772D"/>
<path d="M154.122 45.8346C154.498 45.0427 155.531 46.8245 156 47.8144V43.8549C154.592 42.865 153.653 46.8245 154.122 45.8346Z" fill="#56772D"/>
<ellipse cx="156" cy="42.6647" rx="1" ry="1.02994" fill="white"/>
<ellipse cx="157" cy="43.6946" rx="1" ry="1.02994" fill="#E0E0E0"/>
<ellipse cx="155" cy="43.6946" rx="1" ry="1.02994" fill="#E0E0E0"/>
<ellipse cx="156" cy="44.7246" rx="1" ry="1.02994" fill="#D2D2D2"/>
<ellipse cx="156" cy="43.6946" rx="1" ry="1.02994" fill="#E2D346"/>
<path d="M45.7558 10.4095C45.0046 9.61758 42.9389 11.3993 42 12.3892V8.42971C44.8168 7.43984 46.6947 11.3993 45.7558 10.4095Z" fill="#56772D"/>
<path d="M40.1221 10.4095C40.4977 9.61758 41.5305 11.3993 42 12.3892V8.42971C40.5916 7.43984 39.6527 11.3993 40.1221 10.4095Z" fill="#56772D"/>
<ellipse cx="42" cy="7.23952" rx="1" ry="1.02994" fill="white"/>
<ellipse cx="43" cy="8.26947" rx="1" ry="1.02994" fill="#E0E0E0"/>
<ellipse cx="41" cy="8.26947" rx="1" ry="1.02994" fill="#E0E0E0"/>
<ellipse cx="42" cy="9.2994" rx="1" ry="1.02994" fill="#D2D2D2"/>
<ellipse cx="42" cy="8.26947" rx="1" ry="1.02994" fill="#E2D346"/>
<path d="M20.7558 13.5352C20.0046 12.7433 17.9389 14.5251 17 15.515V11.5555C19.8168 10.5656 21.6947 14.5251 20.7558 13.5352Z" fill="#56772D"/>
<path d="M15.1221 13.5352C15.4977 12.7433 16.5305 14.5251 17 15.515V11.5555C15.5916 10.5656 14.6527 14.5251 15.1221 13.5352Z" fill="#56772D"/>
<ellipse cx="17" cy="10.3653" rx="1" ry="1.02994" fill="white"/>
<ellipse cx="18" cy="11.3952" rx="1" ry="1.02994" fill="#E0E0E0"/>
<ellipse cx="16" cy="11.3952" rx="1" ry="1.02994" fill="#E0E0E0"/>
<ellipse cx="17" cy="12.4251" rx="1" ry="1.02994" fill="#D2D2D2"/>
<ellipse cx="17" cy="11.3952" rx="1" ry="1.02994" fill="#E2D346"/>
<path d="M55.7558 77.0921C55.0046 76.3002 52.9389 78.082 52 79.0719V75.1124C54.8168 74.1225 56.6947 78.082 55.7558 77.0921Z" fill="#56772D"/>
<path d="M50.1221 77.0921C50.4977 76.3002 51.5305 78.082 52 79.0719V75.1124C50.5916 74.1225 49.6527 78.082 50.1221 77.0921Z" fill="#56772D"/>
<ellipse cx="52" cy="73.9222" rx="1" ry="1.02994" fill="white"/>
<ellipse cx="53" cy="74.9521" rx="1" ry="1.02994" fill="#E0E0E0"/>
<ellipse cx="51" cy="74.9521" rx="1" ry="1.02994" fill="#E0E0E0"/>
<ellipse cx="52" cy="75.982" rx="1" ry="1.02994" fill="#D2D2D2"/>
<ellipse cx="52" cy="74.9521" rx="1" ry="1.02994" fill="#E2D346"/>
<path d="M136.756 12.4933C136.005 11.7014 133.939 13.4832 133 14.4731V10.5135C135.817 9.52368 137.695 13.4832 136.756 12.4933Z" fill="#56772D"/>
<path d="M131.122 12.4933C131.498 11.7014 132.531 13.4832 133 14.4731V10.5135C131.592 9.52368 130.653 13.4832 131.122 12.4933Z" fill="#56772D"/>
<ellipse cx="133" cy="9.32335" rx="1" ry="1.02994" fill="white"/>
<ellipse cx="134" cy="10.3533" rx="1" ry="1.02994" fill="#E0E0E0"/>
<ellipse cx="132" cy="10.3533" rx="1" ry="1.02994" fill="#E0E0E0"/>
<ellipse cx="133" cy="11.3832" rx="1" ry="1.02994" fill="#D2D2D2"/>
<ellipse cx="133" cy="10.3533" rx="1" ry="1.02994" fill="#E2D346"/>
<ellipse rx="1.94661" ry="1.31683" transform="matrix(0.860378 0.509656 0.770412 -0.637546 92.6893 6.25436)" fill="#A89578"/>
<ellipse rx="3.45693" ry="1.21385" transform="matrix(-0.998271 0.058776 -0.490476 0.871455 64.4532 30.3927)" fill="#A89578"/>
<ellipse rx="1.98716" ry="1.79235" transform="matrix(0.860378 0.509656 0.770412 -0.637546 99.4219 6.28122)" fill="#A89578"/>
<ellipse rx="3.52895" ry="1.65218" transform="matrix(-0.998271 0.058776 -0.490476 0.871455 54.6921 33.78)" fill="#A89578"/>
<ellipse rx="0.973303" ry="0.877887" transform="matrix(0.860378 0.509656 0.770412 -0.637546 99.8878 10.9987)" fill="#A89578"/>
<ellipse rx="1.72847" ry="0.809233" transform="matrix(-0.998271 0.058776 -0.490476 0.871455 49.1224 30.9544)" fill="#A89578"/>
<defs>
<linearGradient id="paint0_linear_32_1344" x1="111.5" y1="16.4799" x2="111.5" y2="63.3661" gradientUnits="userSpaceOnUse">
<stop stop-color="#6D9220"/>
<stop offset="1" stop-color="#475F14"/>
</linearGradient>
<linearGradient id="paint1_linear_32_1344" x1="111.5" y1="9.78185" x2="111.5" y2="46.2489" gradientUnits="userSpaceOnUse">
<stop stop-color="#6D9220"/>
<stop offset="1" stop-color="#475F14"/>
</linearGradient>
<linearGradient id="paint2_linear_32_1344" x1="111.5" y1="3.08384" x2="111.5" y2="28.3875" gradientUnits="userSpaceOnUse">
<stop stop-color="#6D9220"/>
<stop offset="1" stop-color="#475F14"/>
</linearGradient>
<linearGradient id="paint3_linear_32_1344" x1="27.5" y1="40.5928" x2="27.5" y2="77.0599" gradientUnits="userSpaceOnUse">
<stop stop-color="#82AD26"/>
<stop offset="1" stop-color="#5A7522"/>
</linearGradient>
<linearGradient id="paint4_linear_32_1344" x1="27.5" y1="35.3832" x2="27.5" y2="63.7465" gradientUnits="userSpaceOnUse">
<stop stop-color="#82AD26"/>
<stop offset="1" stop-color="#5A7522"/>
</linearGradient>
<linearGradient id="paint5_linear_32_1344" x1="27.5001" y1="30.1737" x2="27.5001" y2="49.8543" gradientUnits="userSpaceOnUse">
<stop stop-color="#82AD26"/>
<stop offset="1" stop-color="#5A7522"/>
</linearGradient>
</defs>
</svg>
