<svg width="200" height="200" viewBox="0 0 200 200" fill="none" xmlns="http://www.w3.org/2000/svg">
<path d="M154 146H44L99 74L154 146Z" fill="#0B0804"/>
<rect x="45" y="145" width="109" height="47" fill="#0B0804"/>
<rect x="48" y="140" width="8" height="97" transform="rotate(-90 48 140)" fill="#3E311E"/>
<rect x="48" y="131" width="7" height="97" transform="rotate(-90 48 131)" fill="#3E311E"/>
<rect x="60" y="123" width="8" height="77" transform="rotate(-90 60 123)" fill="#3E311E"/>
<rect x="64" y="114" width="8" height="69" transform="rotate(-90 64 114)" fill="#3E311E"/>
<path d="M71 105V98H126V105H71Z" fill="#3E311E"/>
<rect x="78" y="97" width="8" height="42" transform="rotate(-90 78 97)" fill="#3E311E"/>
<rect x="84" y="88" width="8" height="27" transform="rotate(-90 84 88)" fill="#3E311E"/>
<rect x="109.646" y="192.183" width="7.81714" height="46.9028" transform="rotate(-90 109.646 192.183)" fill="#3E311E"/>
<rect x="109.646" y="183.497" width="7.81714" height="46.9028" transform="rotate(-90 109.646 183.497)" fill="#3E311E"/>
<rect x="109.646" y="174.811" width="7.81714" height="46.9028" transform="rotate(-90 109.646 174.811)" fill="#3E311E"/>
<rect x="109.646" y="166.126" width="7.81714" height="47.7714" transform="rotate(-90 109.646 166.126)" fill="#3E311E"/>
<rect x="115.726" y="157.44" width="7.81714" height="41.9809" transform="rotate(-90 115.726 157.44)" fill="#3E311E"/>
<rect x="39.2914" y="192.183" width="7.81714" height="48.64" transform="rotate(-90 39.2914 192.183)" fill="#3E311E"/>
<rect x="39.2914" y="183.497" width="7.81714" height="48.64" transform="rotate(-90 39.2914 183.497)" fill="#3E311E"/>
<rect x="40.16" y="174.811" width="7.81714" height="47.7714" transform="rotate(-90 40.16 174.811)" fill="#3E311E"/>
<rect x="41.0286" y="166.126" width="7.81714" height="46.9028" transform="rotate(-90 41.0286 166.126)" fill="#3E311E"/>
<rect x="41.0286" y="157.44" width="7.81714" height="81.6457" transform="rotate(-90 41.0286 157.44)" fill="#3E311E"/>
<rect x="39.2914" y="144.411" width="7.81714" height="50.3771" fill="#594220"/>
<rect x="150.469" y="145.28" width="7.81714" height="50.3771" fill="#594220"/>
<rect x="112.251" y="144.411" width="7.81714" height="50.3771" fill="#594220"/>
<rect x="89.6686" y="158.309" width="18.24" height="33.8743" fill="#0B0703"/>
<rect x="106.171" y="156.571" width="4.34286" height="38.2171" fill="#42382A"/>
<rect x="87.0629" y="155.703" width="4.34286" height="38.2171" fill="#42382A"/>
<rect x="87.0629" y="160.046" width="4.34286" height="23.4514" transform="rotate(-90 87.0629 160.046)" fill="#42382A"/>
<rect x="89.6686" y="110.537" width="18.24" height="30.4" fill="#0B0703"/>
<rect x="106.171" y="108.665" width="4.34286" height="32.2722" fill="#42382A"/>
<rect x="87.0629" y="107.931" width="4.34286" height="33.0057" fill="#42382A"/>
<rect x="87.0629" y="111.599" width="3.6673" height="23.4514" transform="rotate(-90 87.0629 111.599)" fill="#42382A"/>
<rect x="77.5085" y="144.411" width="7.81714" height="50.3771" fill="#594220"/>
<rect x="66.2171" y="122.697" width="2.60571" height="21.7143" fill="#594220"/>
<rect x="128.754" y="122.697" width="2.60571" height="22.5828" fill="#594220"/>
<rect x="84.4571" y="122.697" width="2.60571" height="21.7143" fill="#594220"/>
<rect x="110.514" y="122.697" width="2.60571" height="21.7143" fill="#594220"/>
<rect x="42.7657" y="148.754" width="7.81714" height="112.046" transform="rotate(-90 42.7657 148.754)" fill="#594220"/>
<rect x="54.0571" y="127.04" width="3.47428" height="91.2" transform="rotate(-90 54.0571 127.04)" fill="#594220"/>
<rect x="35" y="192" width="128" height="8" fill="#5C5E5F"/>
<rect width="12.8958" height="129.827" transform="matrix(-0.81392 0.580977 -0.603857 -0.797092 169.527 151.649)" fill="#966E33"/>
<rect width="12.8958" height="129.825" transform="matrix(0.81392 0.580977 0.603857 -0.797092 28 151.483)" fill="#966E33"/>
<path d="M35.134 194.126C35.0614 192.974 35.976 192 37.13 192H47.8493C49.011 192 49.9283 192.986 49.844 194.145L49.6851 196.331C49.6127 197.326 48.8179 198.116 47.8223 198.181L37.443 198.868C36.3384 198.941 35.3846 198.103 35.315 196.998L35.134 194.126Z" fill="#5A5A5A"/>
<path d="M78.1246 194.117C78.057 192.969 78.9704 192 80.1211 192H89.8597C91.0175 192 91.9335 192.98 91.8551 194.135L91.7061 196.33C91.6385 197.326 90.8474 198.119 89.852 198.19L80.4308 198.857C79.3196 198.936 78.3583 198.091 78.2929 196.979L78.1246 194.117Z" fill="#5A5A5A"/>
<path d="M123.125 194.117C123.057 192.969 123.97 192 125.121 192H134.86C136.018 192 136.933 192.98 136.855 194.135L136.706 196.33C136.639 197.326 135.847 198.119 134.852 198.19L125.431 198.857C124.32 198.936 123.358 198.091 123.293 196.979L123.125 194.117Z" fill="#5A5A5A"/>
<path d="M57.1378 197.871C57.0632 199.024 57.9782 200 59.1336 200H65.8451C67.0083 200 67.9262 199.011 67.8396 197.851L67.806 197.402C67.7317 196.407 66.9357 195.619 65.9401 195.555L59.3188 195.128C58.2167 195.058 57.2657 195.893 57.1944 196.995L57.1378 197.871Z" fill="#5A5A5A"/>
<path d="M102.138 197.871C102.063 199.024 102.978 200 104.134 200H110.845C112.008 200 112.926 199.011 112.84 197.851L112.806 197.402C112.732 196.407 111.936 195.619 110.94 195.555L104.319 195.128C103.217 195.058 102.266 195.893 102.194 196.995L102.138 197.871Z" fill="#5A5A5A"/>
<path d="M147.138 197.871C147.063 199.024 147.978 200 149.134 200H155.845C157.008 200 157.926 199.011 157.84 197.851L157.806 197.402C157.732 196.407 156.936 195.619 155.94 195.555L149.319 195.128C148.217 195.058 147.266 195.893 147.194 196.995L147.138 197.871Z" fill="#5A5A5A"/>
<circle cx="134.834" cy="169.6" r="8.68571" fill="#E0E0E0"/>
<path d="M143.52 169.6C143.52 174.811 139.177 178.286 134.834 178.286V169.6H143.52Z" fill="#E05D5D"/>
<path d="M126.149 169.6C126.149 164.389 130.491 160.914 134.834 160.914V169.6H126.149Z" fill="#E05D5D"/>
<rect x="66.7856" y="162.955" width="0.868571" height="17.3714" transform="rotate(32.9074 66.7856 162.955)" fill="#977137"/>
<path d="M70.4425 168.495C72.8233 166.415 70.0567 163.763 68.684 163.219L68.1049 164.914L65.9491 163.449L65.0054 164.907C66.0024 164.965 65.6059 164.778 66.8284 166.087C68.3109 167.673 65.2021 169.932 63.858 171.477C64.9017 171.462 68.0618 170.576 70.4425 168.495Z" fill="#9F9F9F"/>
<rect x="60.7252" y="170.819" width="0.868571" height="2.60571" transform="rotate(-25.5844 60.7252 170.819)" fill="#4E4E4E"/>
</svg>
