<svg width="173" height="190" viewBox="0 0 173 190" fill="none" xmlns="http://www.w3.org/2000/svg">
<ellipse cx="89.9043" cy="178.867" rx="79.4141" ry="11.1328" fill="black" fill-opacity="0.2"/>
<path d="M52.4238 50.8398L74.6895 15.5859L125.529 0L165.236 70.8789L172.658 143.984L125.529 178.496L31.6426 169.219L1.58398 127.656L10.8613 77.1875L52.4238 50.8398Z" fill="#A9A9A9"/>
<path d="M122.561 144.727L31.6426 169.219L125.529 179.238L172.658 144.727L164.865 70.1367L149.65 43.418L153.732 79.7852L122.561 144.727Z" fill="#959595"/>
<path d="M0.841797 125.801L9.37695 138.789L7.15039 118.75L23.1074 80.5273L73.5762 73.4766L81.3691 31.9141L118.107 15.2148L134.064 31.9141L125.529 0.371094L73.5762 15.2148L52.0527 51.582L9.37695 77.1875L0.841797 125.801Z" fill="#BCBCBC"/>
</svg>
