<svg width="334" height="86" viewBox="0 0 334 86" fill="none" xmlns="http://www.w3.org/2000/svg">
<path d="M182.144 17.0964C224.5 17.0964 240.67 5.69879 243.5 0H294.5C290.005 4.66265 279.543 15.3349 275.547 26.9397C284.908 31.7944 292.904 39.111 299.5 47.1313C310.924 61.0217 300.5 76 297.5 85.9999H264C264 45 215.31 59.2674 148.179 47.6626C81.0489 36.0578 78.5848 11.0522 85.744 0H121.707C124.204 5.69879 139.788 17.0964 182.144 17.0964Z" fill="#C6B193"/>
<ellipse rx="3.04392" ry="1.72172" transform="matrix(0.457512 0.889204 0.893439 -0.449184 163.931 21.2732)" fill="#A89578"/>
<ellipse rx="1.50111" ry="1.72172" transform="matrix(0.457512 0.889204 0.893439 -0.449184 172.225 19.9013)" fill="#A89578"/>
<ellipse rx="0.641421" ry="0.790812" transform="matrix(0.457512 0.889204 0.893439 -0.449184 170 25.6383)" fill="#A89578"/>
<rect x="24.1428" y="21.2529" width="12.5" height="3.53038" fill="#594220"/>
<ellipse cx="23.25" cy="18.6051" rx="6.25" ry="6.17816" fill="#576B2D"/>
<ellipse cx="37.5357" cy="20.3703" rx="4.46429" ry="4.41297" fill="#576B2D"/>
<ellipse cx="30.3929" cy="16.8399" rx="8.03571" ry="7.94334" fill="#617733"/>
<rect x="64.1428" y="62.7701" width="12.5" height="3.53038" fill="#594220"/>
<ellipse cx="63.25" cy="60.1223" rx="6.25" ry="6.17816" fill="#576B2D"/>
<ellipse cx="77.5357" cy="61.8875" rx="4.46429" ry="4.41297" fill="#576B2D"/>
<ellipse cx="70.3929" cy="58.3571" rx="8.03571" ry="7.94334" fill="#617733"/>
<rect x="166.143" y="79.5747" width="12.5" height="3.53038" fill="#594220"/>
<ellipse cx="165.25" cy="76.9269" rx="6.25" ry="6.17816" fill="#576B2D"/>
<ellipse cx="179.536" cy="78.6921" rx="4.46429" ry="4.41297" fill="#576B2D"/>
<ellipse cx="172.393" cy="75.1617" rx="8.03571" ry="7.94334" fill="#617733"/>
<path d="M72.7558 12.9275C72.0046 12.1674 69.9389 13.8775 69 14.8276V11.0274C71.8168 10.0773 73.6947 13.8775 72.7558 12.9275Z" fill="#56772D"/>
<path d="M67.1221 12.9275C67.4977 12.1674 68.5305 13.8775 69 14.8276V11.0274C67.5916 10.0773 66.6527 13.8775 67.1221 12.9275Z" fill="#56772D"/>
<ellipse cx="69" cy="9.88505" rx="1" ry="0.988505" fill="white"/>
<ellipse cx="70" cy="10.8736" rx="1" ry="0.988505" fill="#E0E0E0"/>
<ellipse cx="68" cy="10.8736" rx="1" ry="0.988505" fill="#E0E0E0"/>
<ellipse cx="69" cy="11.8621" rx="1" ry="0.988505" fill="#D2D2D2"/>
<ellipse cx="69" cy="10.8736" rx="1" ry="0.988505" fill="#E2D346"/>
<path d="M81.7558 32.6976C81.0046 31.9375 78.9389 33.6476 78 34.5977V30.7975C80.8168 29.8474 82.6947 33.6476 81.7558 32.6976Z" fill="#56772D"/>
<path d="M76.1221 32.6976C76.4977 31.9375 77.5305 33.6476 78 34.5977V30.7975C76.5916 29.8474 75.6527 33.6476 76.1221 32.6976Z" fill="#56772D"/>
<ellipse cx="78" cy="29.6552" rx="1" ry="0.988505" fill="white"/>
<ellipse cx="79" cy="30.6437" rx="1" ry="0.988505" fill="#E0E0E0"/>
<ellipse cx="77" cy="30.6437" rx="1" ry="0.988505" fill="#E0E0E0"/>
<ellipse cx="78" cy="31.6322" rx="1" ry="0.988505" fill="#D2D2D2"/>
<ellipse cx="78" cy="30.6437" rx="1" ry="0.988505" fill="#E2D346"/>
<path d="M28.7558 48.5137C28.0046 47.7536 25.9389 49.4637 25 50.4138V46.6136C27.8168 45.6635 29.6947 49.4637 28.7558 48.5137Z" fill="#56772D"/>
<path d="M23.1221 48.5137C23.4977 47.7536 24.5305 49.4637 25 50.4138V46.6136C23.5916 45.6635 22.6527 49.4637 23.1221 48.5137Z" fill="#56772D"/>
<ellipse cx="25" cy="45.4712" rx="1" ry="0.988505" fill="white"/>
<ellipse cx="26" cy="46.4597" rx="1" ry="0.988505" fill="#E0E0E0"/>
<ellipse cx="24" cy="46.4597" rx="1" ry="0.988505" fill="#E0E0E0"/>
<ellipse cx="25" cy="47.4483" rx="1" ry="0.988505" fill="#D2D2D2"/>
<ellipse cx="25" cy="46.4597" rx="1" ry="0.988505" fill="#E2D346"/>
<path d="M101.756 84.0999C101.005 83.3398 98.9389 85.0499 98 86V82.1998C100.817 81.2497 102.695 85.0499 101.756 84.0999Z" fill="#56772D"/>
<path d="M96.1221 84.0999C96.4977 83.3398 97.5305 85.0499 98 86V82.1998C96.5916 81.2497 95.6527 85.0499 96.1221 84.0999Z" fill="#56772D"/>
<ellipse cx="98" cy="81.0574" rx="1" ry="0.988505" fill="white"/>
<ellipse cx="99" cy="82.046" rx="1" ry="0.988505" fill="#E0E0E0"/>
<ellipse cx="97" cy="82.046" rx="1" ry="0.988505" fill="#E0E0E0"/>
<ellipse cx="98" cy="83.0345" rx="1" ry="0.988505" fill="#D2D2D2"/>
<ellipse cx="98" cy="82.046" rx="1" ry="0.988505" fill="#E2D346"/>
<path d="M36.7558 72.2378C36.0046 71.4778 33.9389 73.1879 33 74.1379V70.3377C35.8168 69.3877 37.6947 73.1879 36.7558 72.2378Z" fill="#56772D"/>
<path d="M31.1221 72.2378C31.4977 71.4778 32.5305 73.1879 33 74.1379V70.3377C31.5916 69.3877 30.6527 73.1879 31.1221 72.2378Z" fill="#56772D"/>
<ellipse cx="33" cy="69.1954" rx="1" ry="0.988505" fill="white"/>
<ellipse cx="34" cy="70.1839" rx="1" ry="0.988505" fill="#E0E0E0"/>
<ellipse cx="32" cy="70.1839" rx="1" ry="0.988505" fill="#E0E0E0"/>
<ellipse cx="33" cy="71.1724" rx="1" ry="0.988505" fill="#D2D2D2"/>
<ellipse cx="33" cy="70.1839" rx="1" ry="0.988505" fill="#E2D346"/>
<path d="M28.7558 77.1803C28.0046 76.4203 25.9389 78.1304 25 79.0804V75.2802C27.8168 74.3302 29.6947 78.1304 28.7558 77.1803Z" fill="#56772D"/>
<path d="M23.1221 77.1803C23.4977 76.4203 24.5305 78.1304 25 79.0804V75.2802C23.5916 74.3302 22.6527 78.1304 23.1221 77.1803Z" fill="#56772D"/>
<ellipse cx="25" cy="74.1379" rx="1" ry="0.988505" fill="white"/>
<ellipse cx="26" cy="75.1264" rx="1" ry="0.988505" fill="#E0E0E0"/>
<ellipse cx="24" cy="75.1264" rx="1" ry="0.988505" fill="#E0E0E0"/>
<ellipse cx="25" cy="76.1149" rx="1" ry="0.988505" fill="#D2D2D2"/>
<ellipse cx="25" cy="75.1264" rx="1" ry="0.988505" fill="#E2D346"/>
<path d="M38.7558 80.1459C38.0046 79.3858 35.9389 81.0959 35 82.046V78.2457C37.8168 77.2957 39.6947 81.0959 38.7558 80.1459Z" fill="#56772D"/>
<path d="M33.1221 80.1459C33.4977 79.3858 34.5305 81.0959 35 82.046V78.2457C33.5916 77.2957 32.6527 81.0959 33.1221 80.1459Z" fill="#56772D"/>
<ellipse cx="35" cy="77.1034" rx="1" ry="0.988505" fill="white"/>
<ellipse cx="36" cy="78.0919" rx="1" ry="0.988505" fill="#E0E0E0"/>
<ellipse cx="34" cy="78.0919" rx="1" ry="0.988505" fill="#E0E0E0"/>
<ellipse cx="35" cy="79.0804" rx="1" ry="0.988505" fill="#D2D2D2"/>
<ellipse cx="35" cy="78.0919" rx="1" ry="0.988505" fill="#E2D346"/>
<path d="M13.7558 64.3298C13.0046 63.5697 10.9389 65.2798 10 66.2299V62.4296C12.8168 61.4796 14.6947 65.2798 13.7558 64.3298Z" fill="#56772D"/>
<path d="M8.12212 64.3298C8.4977 63.5697 9.53053 65.2798 10 66.2299V62.4296C8.59159 61.4796 7.65265 65.2798 8.12212 64.3298Z" fill="#56772D"/>
<ellipse cx="10" cy="61.2873" rx="1" ry="0.988505" fill="white"/>
<ellipse cx="11" cy="62.2758" rx="1" ry="0.988505" fill="#E0E0E0"/>
<ellipse cx="9" cy="62.2758" rx="1" ry="0.988505" fill="#E0E0E0"/>
<ellipse cx="10" cy="63.2643" rx="1" ry="0.988505" fill="#D2D2D2"/>
<ellipse cx="10" cy="62.2758" rx="1" ry="0.988505" fill="#E2D346"/>
<path d="M118.756 59.3872C118.005 58.6272 115.939 60.3373 115 61.2873V57.4871C117.817 56.5371 119.695 60.3373 118.756 59.3872Z" fill="#56772D"/>
<path d="M113.122 59.3872C113.498 58.6272 114.531 60.3373 115 61.2873V57.4871C113.592 56.5371 112.653 60.3373 113.122 59.3872Z" fill="#56772D"/>
<ellipse cx="115" cy="56.3448" rx="1" ry="0.988505" fill="white"/>
<ellipse cx="116" cy="57.3333" rx="1" ry="0.988505" fill="#E0E0E0"/>
<ellipse cx="114" cy="57.3333" rx="1" ry="0.988505" fill="#E0E0E0"/>
<ellipse cx="115" cy="58.3218" rx="1" ry="0.988505" fill="#D2D2D2"/>
<ellipse cx="115" cy="57.3333" rx="1" ry="0.988505" fill="#E2D346"/>
<path d="M217.756 78.1688C217.005 77.4088 214.939 79.1189 214 80.0689V76.2687C216.817 75.3187 218.695 79.1189 217.756 78.1688Z" fill="#56772D"/>
<path d="M212.122 78.1688C212.498 77.4088 213.531 79.1189 214 80.0689V76.2687C212.592 75.3187 211.653 79.1189 212.122 78.1688Z" fill="#56772D"/>
<ellipse cx="214" cy="75.1264" rx="1" ry="0.988505" fill="white"/>
<ellipse cx="215" cy="76.1149" rx="1" ry="0.988505" fill="#E0E0E0"/>
<ellipse cx="213" cy="76.1149" rx="1" ry="0.988505" fill="#E0E0E0"/>
<ellipse cx="214" cy="77.1034" rx="1" ry="0.988505" fill="#D2D2D2"/>
<ellipse cx="214" cy="76.1149" rx="1" ry="0.988505" fill="#E2D346"/>
<path d="M184.756 7.98495C184.005 7.22491 181.939 8.935 181 9.88505V6.08484C183.817 5.13479 185.695 8.935 184.756 7.98495Z" fill="#56772D"/>
<path d="M179.122 7.98495C179.498 7.22491 180.531 8.935 181 9.88505V6.08484C179.592 5.13479 178.653 8.935 179.122 7.98495Z" fill="#56772D"/>
<ellipse cx="181" cy="4.94253" rx="1" ry="0.988505" fill="white"/>
<ellipse cx="182" cy="5.93103" rx="1" ry="0.988505" fill="#E0E0E0"/>
<ellipse cx="180" cy="5.93103" rx="1" ry="0.988505" fill="#E0E0E0"/>
<ellipse cx="181" cy="6.91954" rx="1" ry="0.988505" fill="#D2D2D2"/>
<ellipse cx="181" cy="5.93103" rx="1" ry="0.988505" fill="#E2D346"/>
<ellipse rx="6.32918" ry="5.0261" transform="matrix(-0.90705 0.421023 0.429075 0.903269 110.53 14.9323)" fill="#A89578"/>
<ellipse rx="2.53167" ry="1.88479" transform="matrix(-0.90705 0.421023 0.429075 0.903269 119.775 19.645)" fill="#A89578"/>
<ellipse rx="2.58442" ry="2.5654" transform="matrix(-0.90705 0.421023 0.429075 0.903269 116.593 26.836)" fill="#A89578"/>
<ellipse rx="1.84601" ry="1.09946" transform="matrix(-0.90705 0.421023 0.429075 0.903269 106.844 6.31184)" fill="#A89578"/>
<ellipse rx="0.632918" ry="0.628262" transform="matrix(-0.90705 0.421023 0.429075 0.903269 102.398 11.0882)" fill="#A89578"/>
<ellipse rx="0.632918" ry="0.628262" transform="matrix(-0.90705 0.421023 0.429075 0.903269 101.719 15.559)" fill="#A89578"/>
<ellipse rx="0.632918" ry="0.628262" transform="matrix(-0.90705 0.421023 0.429075 0.903269 119.595 13.6107)" fill="#A89578"/>
<ellipse rx="1.26584" ry="1.25652" transform="matrix(-0.90705 0.421023 0.429075 0.903269 109.172 23.874)" fill="#A89578"/>
<ellipse rx="1.26584" ry="1.25652" transform="matrix(-0.90705 0.421023 0.429075 0.903269 117.293 7.29097)" fill="#A89578"/>
<ellipse rx="10.4363" ry="7.87074" transform="matrix(0.457512 0.889204 0.893439 -0.449184 242.688 32.7479)" fill="#A89578"/>
<ellipse rx="4.17453" ry="2.95153" transform="matrix(0.457512 0.889204 0.893439 -0.449184 249.34 17.7227)" fill="#A89578"/>
<ellipse rx="4.26149" ry="4.01736" transform="matrix(0.457512 0.889204 0.893439 -0.449184 261.088 22.8156)" fill="#A89578"/>
<ellipse rx="3.04392" ry="1.72172" transform="matrix(0.457512 0.889204 0.893439 -0.449184 229.297 38.7986)" fill="#A89578"/>
<ellipse rx="1.04363" ry="0.983843" transform="matrix(0.457512 0.889204 0.893439 -0.449184 237.316 45.961)" fill="#A89578"/>
<ellipse rx="1.04363" ry="0.983843" transform="matrix(0.457512 0.889204 0.893439 -0.449184 244.5 47.0215)" fill="#A89578"/>
<ellipse rx="1.04363" ry="0.983843" transform="matrix(0.457512 0.889204 0.893439 -0.449184 239.745 18.0693)" fill="#A89578"/>
<ellipse rx="2.08726" ry="1.96769" transform="matrix(0.457512 0.889204 0.893439 -0.449184 257.055 34.8687)" fill="#A89578"/>
<ellipse rx="2.08726" ry="1.96769" transform="matrix(0.457512 0.889204 0.893439 -0.449184 229.891 21.8551)" fill="#A89578"/>
<ellipse cx="311" cy="30.6437" rx="20" ry="6.91954" fill="black" fill-opacity="0.2"/>
<path d="M328.535 18.9048C328.535 21.9815 330.032 28.7158 327.655 31.0136C325.591 33.0084 322.095 31.5659 318.851 32.5377C316.549 33.2273 314.021 33.6084 311.368 33.6084C306.888 33.6084 301.444 33.703 298.163 31.8786C295.661 30.4874 294.97 27.4862 293.665 25.3917C292.595 23.6738 292 21.7714 292 19.7697C292 17.9346 292.5 16.1828 293.408 14.5802C294.928 11.8968 293.408 8.9583 300.968 8.09338C303.972 6.72437 304.325 6.36355 311.368 5.93109C318.411 6.36355 318.006 7.46585 321.492 11.1206C323.608 13.3384 328.535 16.0184 328.535 18.9048Z" fill="#7E7E7E"/>
</svg>
