<svg width="200" height="200" viewBox="0 0 200 200" fill="none" xmlns="http://www.w3.org/2000/svg">
<rect x="74" y="33" width="20" height="36" fill="#6B6B6B"/>
<rect x="71" y="24" width="26" height="9" fill="#4B4B4B"/>
<path d="M116.5 27.5H125L177.5 89H61L116.5 27.5Z" fill="#18140D"/>
<rect x="89" y="66" width="15" height="69" rx="7.5" transform="rotate(-90 89 66)" fill="#4E3B20"/>
<rect x="73" y="83" width="15" height="100" rx="7.5" transform="rotate(-90 73 83)" fill="#4E3B20"/>
<rect x="104" y="49" width="15" height="37" rx="7.5" transform="rotate(-90 104 49)" fill="#4E3B20"/>
<rect width="15" height="99" transform="matrix(0.707107 0.707107 0.707107 -0.707107 52 87.0036)" fill="#AA8247"/>
<rect x="192.61" y="87.0036" width="15" height="99" transform="rotate(135 192.61 87.0036)" fill="#AA8247"/>
<rect x="8" y="98" width="15" height="179" rx="7.5" transform="rotate(-90 8 98)" fill="#977644"/>
<rect x="67" y="124" width="108" height="71" fill="#18140D"/>
<path d="M122 84.5L76.5 130.5H167L122 84.5Z" fill="#241D13"/>
<rect x="70" y="123" width="15" height="77" fill="#594220"/>
<rect x="11" y="124" width="9" height="71" rx="4.5" fill="#2D2417"/>
<rect x="61" y="124" width="9" height="71" fill="#2D2417"/>
<rect x="175" y="119" width="12" height="81" fill="#2D2417"/>
<rect x="88" y="123" width="15" height="77" fill="#594220"/>
<rect x="106" y="123" width="15" height="27" fill="#594220"/>
<rect x="124" y="123" width="15" height="27" fill="#594220"/>
<rect x="142" y="123" width="15" height="77" fill="#594220"/>
<rect x="160" y="123" width="15" height="77" fill="#594220"/>
<rect width="12" height="67" rx="6" transform="matrix(1 0 0 -1 32 150)" fill="#997A4B"/>
<rect width="12" height="65" rx="6" transform="matrix(1 0 0 -1 8 149)" fill="#997A4B"/>
<rect width="12" height="67" rx="6" transform="matrix(1 0 0 -1 55 150)" fill="#997A4B"/>
<rect x="187" y="150" width="12" height="67" rx="6" transform="rotate(180 187 150)" fill="#997A4B"/>
<rect width="12" height="35" rx="6" transform="matrix(1 0 0 -1 79 119)" fill="#997A4B"/>
<rect x="163" y="119" width="12" height="35" rx="6" transform="rotate(180 163 119)" fill="#997A4B"/>
<rect width="12" height="67" rx="6" transform="matrix(1 0 0 -1 44 150)" fill="#876C43"/>
<rect width="12" height="65" rx="6" transform="matrix(1 0 0 -1 20 149)" fill="#876C43"/>
<rect width="12" height="47" rx="6" transform="matrix(1 0 0 -1 67 130)" fill="#876C43"/>
<rect x="175" y="130" width="12" height="47" rx="6" transform="rotate(180 175 130)" fill="#876C43"/>
<rect width="12" height="26" rx="6" transform="matrix(1 0 0 -1 91 109)" fill="#876C43"/>
<rect x="151" y="109" width="12" height="26" rx="6" transform="rotate(180 151 109)" fill="#876C43"/>
<rect x="83" y="131" width="15" height="77" rx="7.5" transform="rotate(-90 83 131)" fill="#4E3B20"/>
<rect x="92" y="114" width="15" height="61" rx="7.5" transform="rotate(-90 92 114)" fill="#4E3B20"/>
<rect x="108" y="97.0001" width="15" height="28" rx="7.5" transform="rotate(-90 108 97.0001)" fill="#4E3B20"/>
<rect x="111" y="79.6067" width="15" height="99" transform="rotate(-45 111 79.6067)" fill="#AA8247"/>
<rect width="15" height="99" transform="matrix(0.707107 0.707107 0.707107 -0.707107 52 139.004)" fill="#AA8247"/>
<rect x="8" y="200" width="10" height="179" transform="rotate(-90 8 200)" fill="#392C18"/>
<rect x="89" y="119" width="66" height="23" rx="6" fill="#241D13"/>
<path d="M104.81 127.028C104.81 127.112 104.786 127.178 104.738 127.226C104.69 127.274 104.624 127.298 104.54 127.298H99.176C99.116 127.298 99.086 127.328 99.086 127.388V129.08C99.086 129.14 99.116 129.17 99.176 129.17H102.506C102.59 129.17 102.656 129.194 102.704 129.242C102.752 129.29 102.776 129.356 102.776 129.44V131.78C102.776 131.864 102.752 131.93 102.704 131.978C102.656 132.026 102.59 132.05 102.506 132.05H99.176C99.116 132.05 99.086 132.08 99.086 132.14V136.73C99.086 136.814 99.062 136.88 99.014 136.928C98.966 136.976 98.9 137 98.816 137H95.972C95.888 137 95.822 136.976 95.774 136.928C95.726 136.88 95.702 136.814 95.702 136.73V124.67C95.702 124.586 95.726 124.52 95.774 124.472C95.822 124.424 95.888 124.4 95.972 124.4H104.54C104.624 124.4 104.69 124.424 104.738 124.472C104.786 124.52 104.81 124.586 104.81 124.67V127.028ZM110.547 137.216C109.551 137.216 108.669 137.018 107.901 136.622C107.145 136.214 106.557 135.65 106.137 134.93C105.717 134.198 105.507 133.352 105.507 132.392V129.008C105.507 128.072 105.717 127.244 106.137 126.524C106.557 125.804 107.145 125.246 107.901 124.85C108.669 124.454 109.551 124.256 110.547 124.256C111.555 124.256 112.437 124.454 113.193 124.85C113.961 125.246 114.555 125.804 114.975 126.524C115.395 127.244 115.605 128.072 115.605 129.008V132.392C115.605 133.352 115.395 134.198 114.975 134.93C114.555 135.65 113.961 136.214 113.193 136.622C112.437 137.018 111.555 137.216 110.547 137.216ZM110.547 134.318C111.051 134.318 111.453 134.156 111.753 133.832C112.065 133.496 112.221 133.052 112.221 132.5V128.972C112.221 128.42 112.065 127.982 111.753 127.658C111.453 127.322 111.051 127.154 110.547 127.154C110.055 127.154 109.653 127.322 109.341 127.658C109.041 127.982 108.891 128.42 108.891 128.972V132.5C108.891 133.052 109.041 133.496 109.341 133.832C109.653 134.156 110.055 134.318 110.547 134.318ZM123.472 137C123.316 137 123.214 136.934 123.166 136.802L121.186 132.23C121.162 132.182 121.126 132.158 121.078 132.158H120.322C120.262 132.158 120.232 132.188 120.232 132.248V136.73C120.232 136.814 120.208 136.88 120.16 136.928C120.112 136.976 120.046 137 119.962 137H117.118C117.034 137 116.968 136.976 116.92 136.928C116.872 136.88 116.848 136.814 116.848 136.73V124.67C116.848 124.586 116.872 124.52 116.92 124.472C116.968 124.424 117.034 124.4 117.118 124.4H122.572C123.388 124.4 124.102 124.568 124.714 124.904C125.338 125.24 125.818 125.714 126.154 126.326C126.502 126.926 126.676 127.622 126.676 128.414C126.676 129.206 126.478 129.902 126.082 130.502C125.698 131.09 125.164 131.522 124.48 131.798C124.42 131.822 124.402 131.864 124.426 131.924L126.712 136.676C126.736 136.748 126.748 136.79 126.748 136.802C126.748 136.862 126.724 136.91 126.676 136.946C126.628 136.982 126.568 137 126.496 137H123.472ZM120.322 127.298C120.262 127.298 120.232 127.328 120.232 127.388V129.494C120.232 129.554 120.262 129.584 120.322 129.584H122.014C122.398 129.584 122.71 129.482 122.95 129.278C123.19 129.062 123.31 128.786 123.31 128.45C123.31 128.102 123.19 127.826 122.95 127.622C122.71 127.406 122.398 127.298 122.014 127.298H120.322ZM132.729 137.144C131.745 137.144 130.875 136.946 130.119 136.55C129.375 136.154 128.793 135.596 128.373 134.876C127.965 134.156 127.761 133.328 127.761 132.392V128.99C127.761 128.054 127.965 127.232 128.373 126.524C128.793 125.804 129.375 125.246 130.119 124.85C130.875 124.454 131.745 124.256 132.729 124.256C133.689 124.256 134.547 124.448 135.303 124.832C136.059 125.204 136.641 125.714 137.049 126.362C137.469 127.01 137.679 127.718 137.679 128.486V128.504C137.679 128.588 137.655 128.654 137.607 128.702C137.559 128.75 137.493 128.774 137.409 128.774H134.583C134.403 128.774 134.313 128.72 134.313 128.612C134.313 128.216 134.169 127.874 133.881 127.586C133.605 127.298 133.221 127.154 132.729 127.154C132.249 127.154 131.865 127.316 131.577 127.64C131.289 127.952 131.145 128.372 131.145 128.9V132.5C131.145 133.016 131.307 133.436 131.631 133.76C131.967 134.084 132.381 134.246 132.873 134.246C133.317 134.246 133.677 134.126 133.953 133.886C134.241 133.634 134.385 133.292 134.385 132.86V132.626C134.385 132.566 134.355 132.536 134.295 132.536H132.711C132.627 132.536 132.561 132.512 132.513 132.464C132.465 132.416 132.441 132.35 132.441 132.266V130.106C132.441 130.022 132.465 129.956 132.513 129.908C132.561 129.86 132.627 129.836 132.711 129.836H137.409C137.493 129.836 137.559 129.86 137.607 129.908C137.655 129.956 137.679 130.022 137.679 130.106V132.572C137.679 133.46 137.469 134.252 137.049 134.948C136.641 135.644 136.059 136.184 135.303 136.568C134.559 136.952 133.701 137.144 132.729 137.144ZM148.053 127.028C148.053 127.112 148.029 127.178 147.981 127.226C147.933 127.274 147.867 127.298 147.783 127.298H142.401C142.341 127.298 142.311 127.328 142.311 127.388V129.08C142.311 129.14 142.341 129.17 142.401 129.17H145.731C145.815 129.17 145.881 129.194 145.929 129.242C145.977 129.29 146.001 129.356 146.001 129.44V131.78C146.001 131.864 145.977 131.93 145.929 131.978C145.881 132.026 145.815 132.05 145.731 132.05H142.401C142.341 132.05 142.311 132.08 142.311 132.14V134.012C142.311 134.072 142.341 134.102 142.401 134.102H147.783C147.867 134.102 147.933 134.126 147.981 134.174C148.029 134.222 148.053 134.288 148.053 134.372V136.73C148.053 136.814 148.029 136.88 147.981 136.928C147.933 136.976 147.867 137 147.783 137H139.197C139.113 137 139.047 136.976 138.999 136.928C138.951 136.88 138.927 136.814 138.927 136.73V124.67C138.927 124.586 138.951 124.52 138.999 124.472C139.047 124.424 139.113 124.4 139.197 124.4H147.783C147.867 124.4 147.933 124.424 147.981 124.472C148.029 124.52 148.053 124.586 148.053 124.67V127.028Z" fill="white"/>
<path d="M31.6671 171H51.6671L46.6671 180H31.6671V171Z" fill="#4B4B4B"/>
<rect x="31.6671" y="187" width="17" height="3" fill="#4B4B4B"/>
<rect x="34.6671" y="180" width="10" height="7" fill="#4B4B4B"/>
<rect x="27.6671" y="171" width="4" height="3" fill="#4B4B4B"/>
</svg>
