<svg width="200" height="200" viewBox="0 0 200 200" fill="none" xmlns="http://www.w3.org/2000/svg">
<rect x="52" y="134" width="11" height="69" rx="5.5" transform="rotate(-90 52 134)" fill="#4E3B20"/>
<rect x="108" y="125" width="11" height="69" fill="#4E3B20"/>
<rect x="49" y="99" width="15" height="101" fill="#594220"/>
<rect x="42.3329" y="199.741" width="10" height="116" transform="rotate(-90 42.3329 199.741)" fill="#392C18"/>
<rect x="64" y="166" width="22" height="24" fill="#696969"/>
<path d="M130 171H150L145 180H130V171Z" fill="#4B4B4B"/>
<rect x="130" y="187" width="17" height="3" fill="#4B4B4B"/>
<rect x="133" y="180" width="10" height="7" fill="#4B4B4B"/>
<rect x="126" y="171" width="4" height="3" fill="#4B4B4B"/>
<rect x="42" y="100.632" width="15" height="91.8888" transform="rotate(-65.3376 42 100.632)" fill="#AA8247"/>
<rect x="52" y="117" width="66" height="23" rx="6" fill="#241D13"/>
<path d="M67.81 125.028C67.81 125.112 67.786 125.178 67.738 125.226C67.69 125.274 67.624 125.298 67.54 125.298H62.176C62.116 125.298 62.086 125.328 62.086 125.388V127.08C62.086 127.14 62.116 127.17 62.176 127.17H65.506C65.59 127.17 65.656 127.194 65.704 127.242C65.752 127.29 65.776 127.356 65.776 127.44V129.78C65.776 129.864 65.752 129.93 65.704 129.978C65.656 130.026 65.59 130.05 65.506 130.05H62.176C62.116 130.05 62.086 130.08 62.086 130.14V134.73C62.086 134.814 62.062 134.88 62.014 134.928C61.966 134.976 61.9 135 61.816 135H58.972C58.888 135 58.822 134.976 58.774 134.928C58.726 134.88 58.702 134.814 58.702 134.73V122.67C58.702 122.586 58.726 122.52 58.774 122.472C58.822 122.424 58.888 122.4 58.972 122.4H67.54C67.624 122.4 67.69 122.424 67.738 122.472C67.786 122.52 67.81 122.586 67.81 122.67V125.028ZM73.5468 135.216C72.5508 135.216 71.6688 135.018 70.9008 134.622C70.1448 134.214 69.5568 133.65 69.1368 132.93C68.7168 132.198 68.5068 131.352 68.5068 130.392V127.008C68.5068 126.072 68.7168 125.244 69.1368 124.524C69.5568 123.804 70.1448 123.246 70.9008 122.85C71.6688 122.454 72.5508 122.256 73.5468 122.256C74.5548 122.256 75.4368 122.454 76.1928 122.85C76.9608 123.246 77.5548 123.804 77.9748 124.524C78.3948 125.244 78.6048 126.072 78.6048 127.008V130.392C78.6048 131.352 78.3948 132.198 77.9748 132.93C77.5548 133.65 76.9608 134.214 76.1928 134.622C75.4368 135.018 74.5548 135.216 73.5468 135.216ZM73.5468 132.318C74.0508 132.318 74.4528 132.156 74.7528 131.832C75.0648 131.496 75.2208 131.052 75.2208 130.5V126.972C75.2208 126.42 75.0648 125.982 74.7528 125.658C74.4528 125.322 74.0508 125.154 73.5468 125.154C73.0548 125.154 72.6528 125.322 72.3408 125.658C72.0408 125.982 71.8908 126.42 71.8908 126.972V130.5C71.8908 131.052 72.0408 131.496 72.3408 131.832C72.6528 132.156 73.0548 132.318 73.5468 132.318ZM86.4725 135C86.3165 135 86.2145 134.934 86.1665 134.802L84.1865 130.23C84.1625 130.182 84.1265 130.158 84.0785 130.158H83.3225C83.2625 130.158 83.2325 130.188 83.2325 130.248V134.73C83.2325 134.814 83.2085 134.88 83.1605 134.928C83.1125 134.976 83.0465 135 82.9625 135H80.1185C80.0345 135 79.9685 134.976 79.9205 134.928C79.8725 134.88 79.8485 134.814 79.8485 134.73V122.67C79.8485 122.586 79.8725 122.52 79.9205 122.472C79.9685 122.424 80.0345 122.4 80.1185 122.4H85.5725C86.3885 122.4 87.1025 122.568 87.7145 122.904C88.3385 123.24 88.8185 123.714 89.1545 124.326C89.5025 124.926 89.6765 125.622 89.6765 126.414C89.6765 127.206 89.4785 127.902 89.0825 128.502C88.6985 129.09 88.1645 129.522 87.4805 129.798C87.4205 129.822 87.4025 129.864 87.4265 129.924L89.7125 134.676C89.7365 134.748 89.7485 134.79 89.7485 134.802C89.7485 134.862 89.7245 134.91 89.6765 134.946C89.6285 134.982 89.5685 135 89.4965 135H86.4725ZM83.3225 125.298C83.2625 125.298 83.2325 125.328 83.2325 125.388V127.494C83.2325 127.554 83.2625 127.584 83.3225 127.584H85.0145C85.3985 127.584 85.7105 127.482 85.9505 127.278C86.1905 127.062 86.3105 126.786 86.3105 126.45C86.3105 126.102 86.1905 125.826 85.9505 125.622C85.7105 125.406 85.3985 125.298 85.0145 125.298H83.3225ZM95.7287 135.144C94.7447 135.144 93.8747 134.946 93.1187 134.55C92.3747 134.154 91.7927 133.596 91.3727 132.876C90.9647 132.156 90.7607 131.328 90.7607 130.392V126.99C90.7607 126.054 90.9647 125.232 91.3727 124.524C91.7927 123.804 92.3747 123.246 93.1187 122.85C93.8747 122.454 94.7447 122.256 95.7287 122.256C96.6887 122.256 97.5467 122.448 98.3027 122.832C99.0587 123.204 99.6407 123.714 100.049 124.362C100.469 125.01 100.679 125.718 100.679 126.486V126.504C100.679 126.588 100.655 126.654 100.607 126.702C100.559 126.75 100.493 126.774 100.409 126.774H97.5827C97.4027 126.774 97.3127 126.72 97.3127 126.612C97.3127 126.216 97.1687 125.874 96.8807 125.586C96.6047 125.298 96.2207 125.154 95.7287 125.154C95.2487 125.154 94.8647 125.316 94.5767 125.64C94.2887 125.952 94.1447 126.372 94.1447 126.9V130.5C94.1447 131.016 94.3067 131.436 94.6307 131.76C94.9667 132.084 95.3807 132.246 95.8727 132.246C96.3167 132.246 96.6767 132.126 96.9527 131.886C97.2407 131.634 97.3847 131.292 97.3847 130.86V130.626C97.3847 130.566 97.3547 130.536 97.2947 130.536H95.7107C95.6267 130.536 95.5607 130.512 95.5127 130.464C95.4647 130.416 95.4407 130.35 95.4407 130.266V128.106C95.4407 128.022 95.4647 127.956 95.5127 127.908C95.5607 127.86 95.6267 127.836 95.7107 127.836H100.409C100.493 127.836 100.559 127.86 100.607 127.908C100.655 127.956 100.679 128.022 100.679 128.106V130.572C100.679 131.46 100.469 132.252 100.049 132.948C99.6407 133.644 99.0587 134.184 98.3027 134.568C97.5587 134.952 96.7007 135.144 95.7287 135.144ZM111.053 125.028C111.053 125.112 111.029 125.178 110.981 125.226C110.933 125.274 110.867 125.298 110.783 125.298H105.401C105.341 125.298 105.311 125.328 105.311 125.388V127.08C105.311 127.14 105.341 127.17 105.401 127.17H108.731C108.815 127.17 108.881 127.194 108.929 127.242C108.977 127.29 109.001 127.356 109.001 127.44V129.78C109.001 129.864 108.977 129.93 108.929 129.978C108.881 130.026 108.815 130.05 108.731 130.05H105.401C105.341 130.05 105.311 130.08 105.311 130.14V132.012C105.311 132.072 105.341 132.102 105.401 132.102H110.783C110.867 132.102 110.933 132.126 110.981 132.174C111.029 132.222 111.053 132.288 111.053 132.372V134.73C111.053 134.814 111.029 134.88 110.981 134.928C110.933 134.976 110.867 135 110.783 135H102.197C102.113 135 102.047 134.976 101.999 134.928C101.951 134.88 101.927 134.814 101.927 134.73V122.67C101.927 122.586 101.951 122.52 101.999 122.472C102.047 122.424 102.113 122.4 102.197 122.4H110.783C110.867 122.4 110.933 122.424 110.981 122.472C111.029 122.52 111.053 122.586 111.053 122.67V125.028Z" fill="white"/>
</svg>
