<svg width="200" height="200" viewBox="0 0 200 200" fill="none" xmlns="http://www.w3.org/2000/svg">
<rect x="58" y="165.741" width="22" height="24" fill="#696969"/>
<path d="M113 170.741H133L128 179.741H113V170.741Z" fill="#4B4B4B"/>
<rect x="113" y="186.741" width="17" height="3" fill="#4B4B4B"/>
<rect x="116" y="179.741" width="10" height="7" fill="#4B4B4B"/>
<rect x="109" y="170.741" width="4" height="3" fill="#4B4B4B"/>
<rect x="106.333" y="127.983" width="6" height="46.9174" rx="3" transform="rotate(-45 106.333 127.983)" fill="#4E3B20"/>
<rect width="6" height="43.148" rx="3" transform="matrix(-0.707107 -0.707107 -0.707107 0.707107 81.7512 131.983)" fill="#4E3B20"/>
<rect x="50.3329" y="134.741" width="15" height="93" rx="7.5" transform="rotate(-90 50.3329 134.741)" fill="#4E3B20"/>
<rect x="50.3329" y="113.741" width="15" height="54" rx="7.5" transform="rotate(-90 50.3329 113.741)" fill="#4E3B20"/>
<rect x="43.3329" y="82.7407" width="15" height="117" fill="#594220"/>
<rect x="133.333" y="122.741" width="15" height="77" fill="#594220"/>
<rect x="35" y="82.6317" width="15" height="136.345" transform="rotate(-65.3376 35 82.6317)" fill="#AA8247"/>
<rect x="61.3329" y="108.741" width="66" height="23" rx="6" fill="#241D13"/>
<path d="M77.1429 116.769C77.1429 116.853 77.1189 116.919 77.0709 116.967C77.0229 117.015 76.9569 117.039 76.8729 117.039H71.5089C71.4489 117.039 71.4189 117.069 71.4189 117.129V118.821C71.4189 118.881 71.4489 118.911 71.5089 118.911H74.8389C74.9229 118.911 74.9889 118.935 75.0369 118.983C75.0849 119.031 75.1089 119.097 75.1089 119.181V121.521C75.1089 121.605 75.0849 121.671 75.0369 121.719C74.9889 121.767 74.9229 121.791 74.8389 121.791H71.5089C71.4489 121.791 71.4189 121.821 71.4189 121.881V126.471C71.4189 126.555 71.3949 126.621 71.3469 126.669C71.2989 126.717 71.2329 126.741 71.1489 126.741H68.3049C68.2209 126.741 68.1549 126.717 68.1069 126.669C68.0589 126.621 68.0349 126.555 68.0349 126.471V114.411C68.0349 114.327 68.0589 114.261 68.1069 114.213C68.1549 114.165 68.2209 114.141 68.3049 114.141H76.8729C76.9569 114.141 77.0229 114.165 77.0709 114.213C77.1189 114.261 77.1429 114.327 77.1429 114.411V116.769ZM82.8797 126.957C81.8837 126.957 81.0017 126.759 80.2337 126.363C79.4777 125.955 78.8897 125.391 78.4697 124.671C78.0497 123.939 77.8397 123.093 77.8397 122.133V118.749C77.8397 117.813 78.0497 116.985 78.4697 116.265C78.8897 115.545 79.4777 114.987 80.2337 114.591C81.0017 114.195 81.8837 113.997 82.8797 113.997C83.8877 113.997 84.7697 114.195 85.5257 114.591C86.2937 114.987 86.8877 115.545 87.3077 116.265C87.7277 116.985 87.9377 117.813 87.9377 118.749V122.133C87.9377 123.093 87.7277 123.939 87.3077 124.671C86.8877 125.391 86.2937 125.955 85.5257 126.363C84.7697 126.759 83.8877 126.957 82.8797 126.957ZM82.8797 124.059C83.3837 124.059 83.7857 123.897 84.0857 123.573C84.3977 123.237 84.5537 122.793 84.5537 122.241V118.713C84.5537 118.161 84.3977 117.723 84.0857 117.399C83.7857 117.063 83.3837 116.895 82.8797 116.895C82.3877 116.895 81.9857 117.063 81.6737 117.399C81.3737 117.723 81.2237 118.161 81.2237 118.713V122.241C81.2237 122.793 81.3737 123.237 81.6737 123.573C81.9857 123.897 82.3877 124.059 82.8797 124.059ZM95.8054 126.741C95.6494 126.741 95.5474 126.675 95.4994 126.543L93.5194 121.971C93.4954 121.923 93.4594 121.899 93.4114 121.899H92.6554C92.5954 121.899 92.5654 121.929 92.5654 121.989V126.471C92.5654 126.555 92.5414 126.621 92.4934 126.669C92.4454 126.717 92.3794 126.741 92.2954 126.741H89.4514C89.3674 126.741 89.3014 126.717 89.2534 126.669C89.2054 126.621 89.1814 126.555 89.1814 126.471V114.411C89.1814 114.327 89.2054 114.261 89.2534 114.213C89.3014 114.165 89.3674 114.141 89.4514 114.141H94.9054C95.7214 114.141 96.4354 114.309 97.0474 114.645C97.6714 114.981 98.1514 115.455 98.4874 116.067C98.8354 116.667 99.0094 117.363 99.0094 118.155C99.0094 118.947 98.8114 119.643 98.4154 120.243C98.0314 120.831 97.4974 121.263 96.8134 121.539C96.7534 121.563 96.7354 121.605 96.7594 121.665L99.0454 126.417C99.0694 126.489 99.0814 126.531 99.0814 126.543C99.0814 126.603 99.0574 126.651 99.0094 126.687C98.9614 126.723 98.9014 126.741 98.8294 126.741H95.8054ZM92.6554 117.039C92.5954 117.039 92.5654 117.069 92.5654 117.129V119.235C92.5654 119.295 92.5954 119.325 92.6554 119.325H94.3474C94.7314 119.325 95.0434 119.223 95.2834 119.019C95.5234 118.803 95.6434 118.527 95.6434 118.191C95.6434 117.843 95.5234 117.567 95.2834 117.363C95.0434 117.147 94.7314 117.039 94.3474 117.039H92.6554ZM105.062 126.885C104.078 126.885 103.208 126.687 102.452 126.291C101.708 125.895 101.126 125.337 100.706 124.617C100.298 123.897 100.094 123.069 100.094 122.133V118.731C100.094 117.795 100.298 116.973 100.706 116.265C101.126 115.545 101.708 114.987 102.452 114.591C103.208 114.195 104.078 113.997 105.062 113.997C106.022 113.997 106.88 114.189 107.636 114.573C108.392 114.945 108.974 115.455 109.382 116.103C109.802 116.751 110.012 117.459 110.012 118.227V118.245C110.012 118.329 109.988 118.395 109.94 118.443C109.892 118.491 109.826 118.515 109.742 118.515H106.916C106.736 118.515 106.646 118.461 106.646 118.353C106.646 117.957 106.502 117.615 106.214 117.327C105.938 117.039 105.554 116.895 105.062 116.895C104.582 116.895 104.198 117.057 103.91 117.381C103.622 117.693 103.478 118.113 103.478 118.641V122.241C103.478 122.757 103.64 123.177 103.964 123.501C104.3 123.825 104.714 123.987 105.206 123.987C105.65 123.987 106.01 123.867 106.286 123.627C106.574 123.375 106.718 123.033 106.718 122.601V122.367C106.718 122.307 106.688 122.277 106.628 122.277H105.044C104.96 122.277 104.894 122.253 104.846 122.205C104.798 122.157 104.774 122.091 104.774 122.007V119.847C104.774 119.763 104.798 119.697 104.846 119.649C104.894 119.601 104.96 119.577 105.044 119.577H109.742C109.826 119.577 109.892 119.601 109.94 119.649C109.988 119.697 110.012 119.763 110.012 119.847V122.313C110.012 123.201 109.802 123.993 109.382 124.689C108.974 125.385 108.392 125.925 107.636 126.309C106.892 126.693 106.034 126.885 105.062 126.885ZM120.385 116.769C120.385 116.853 120.361 116.919 120.313 116.967C120.265 117.015 120.199 117.039 120.115 117.039H114.733C114.673 117.039 114.643 117.069 114.643 117.129V118.821C114.643 118.881 114.673 118.911 114.733 118.911H118.063C118.147 118.911 118.213 118.935 118.261 118.983C118.309 119.031 118.333 119.097 118.333 119.181V121.521C118.333 121.605 118.309 121.671 118.261 121.719C118.213 121.767 118.147 121.791 118.063 121.791H114.733C114.673 121.791 114.643 121.821 114.643 121.881V123.753C114.643 123.813 114.673 123.843 114.733 123.843H120.115C120.199 123.843 120.265 123.867 120.313 123.915C120.361 123.963 120.385 124.029 120.385 124.113V126.471C120.385 126.555 120.361 126.621 120.313 126.669C120.265 126.717 120.199 126.741 120.115 126.741H111.529C111.445 126.741 111.379 126.717 111.331 126.669C111.283 126.621 111.259 126.555 111.259 126.471V114.411C111.259 114.327 111.283 114.261 111.331 114.213C111.379 114.165 111.445 114.141 111.529 114.141H120.115C120.199 114.141 120.265 114.165 120.313 114.213C120.361 114.261 120.385 114.327 120.385 114.411V116.769Z" fill="white"/>
<rect x="36.3329" y="199.741" width="10" height="116" transform="rotate(-90 36.3329 199.741)" fill="#392C18"/>
</svg>
