<svg width="200" height="200" viewBox="0 0 200 200" fill="none" xmlns="http://www.w3.org/2000/svg">
<rect x="64.2346" y="86.0895" width="10.4749" height="67.0391" rx="5.23743" transform="rotate(-90 64.2346 86.0895)" fill="#4E3B20"/>
<rect x="76.1062" y="74.2179" width="10.4749" height="48.1844" rx="5.23743" transform="rotate(-90 76.1062 74.2179)" fill="#4E3B20"/>
<rect x="86.581" y="62.3463" width="10.4749" height="25.838" rx="5.23743" transform="rotate(-90 86.581 62.3463)" fill="#4E3B20"/>
<rect width="10.4749" height="69.1341" rx="5.23743" transform="matrix(0.707107 0.707107 0.707107 -0.707107 50.2682 88.8851)" fill="#AA8247"/>
<rect x="148.46" y="88.8851" width="10.4749" height="69.1341" rx="5.23743" transform="rotate(135 148.46 88.8851)" fill="#AA8247"/>
<rect x="37" y="88.1844" width="10.4749" height="72.6257" rx="5.23743" transform="rotate(-90 37 88.1844)" fill="#977644"/>
<rect x="89.3743" y="88.1844" width="10.4749" height="72.6257" rx="5.23743" transform="rotate(-90 89.3743 88.1844)" fill="#977644"/>
<rect x="45.3799" y="109.134" width="91.4804" height="46.7877" fill="#18140D"/>
<path d="M99.8491 78.7571L68.0754 110.88H131.274L99.8491 78.7571Z" fill="#241D13"/>
<rect x="63.5363" y="105.642" width="10.4749" height="53.771" rx="5.23743" fill="#594220"/>
<rect x="52.3632" y="106.341" width="9.07821" height="49.581" rx="4.53911" fill="#2D2417"/>
<rect x="151.525" y="105.642" width="9.07821" height="49.581" rx="4.53911" fill="#2D2417"/>
<rect x="39.7933" y="106.341" width="10.4749" height="49.581" rx="5.23743" fill="#2D2417"/>
<rect x="138.955" y="105.642" width="10.4749" height="49.581" rx="5.23743" fill="#2D2417"/>
<rect x="76.1062" y="105.642" width="10.4749" height="53.771" rx="5.23743" fill="#594220"/>
<rect x="88.676" y="105.642" width="10.4749" height="18.8547" rx="5.23743" fill="#594220"/>
<rect x="101.246" y="105.642" width="10.4749" height="18.8547" rx="5.23743" fill="#594220"/>
<rect x="113.816" y="105.642" width="10.4749" height="53.771" rx="5.23743" fill="#594220"/>
<rect x="126.385" y="105.642" width="10.4749" height="53.771" rx="5.23743" fill="#594220"/>
<rect width="8.37989" height="46.7877" rx="4.18994" transform="matrix(1 0 0 -1 37 124.497)" fill="#997A4B"/>
<rect x="162" y="124.497" width="8.37989" height="46.7877" rx="4.18994" transform="rotate(180 162 124.497)" fill="#997A4B"/>
<rect width="8.37989" height="46.7877" rx="4.18994" transform="matrix(1 0 0 -1 53.0614 124.497)" fill="#997A4B"/>
<rect x="145.939" y="124.497" width="8.37989" height="46.7877" rx="4.18994" transform="rotate(180 145.939 124.497)" fill="#997A4B"/>
<rect width="8.37989" height="24.4413" rx="4.18994" transform="matrix(1 0 0 -1 69.8212 102.849)" fill="#997A4B"/>
<rect x="129.179" y="102.849" width="8.37989" height="24.4413" rx="4.18994" transform="rotate(180 129.179 102.849)" fill="#997A4B"/>
<rect width="8.37989" height="46.7877" rx="4.18994" transform="matrix(1 0 0 -1 45.3799 124.497)" fill="#876C43"/>
<rect x="153.62" y="124.497" width="8.37989" height="46.7877" rx="4.18994" transform="rotate(180 153.62 124.497)" fill="#876C43"/>
<rect width="8.37989" height="32.8212" rx="4.18994" transform="matrix(1 0 0 -1 61.4414 110.531)" fill="#876C43"/>
<rect x="137.559" y="110.531" width="8.37989" height="32.8212" rx="4.18994" transform="rotate(180 137.559 110.531)" fill="#876C43"/>
<rect width="8.37989" height="18.1564" rx="4.18994" transform="matrix(1 0 0 -1 78.2011 95.866)" fill="#876C43"/>
<rect x="120.799" y="95.866" width="8.37989" height="18.1564" rx="4.18994" transform="rotate(180 120.799 95.866)" fill="#876C43"/>
<rect x="72.6146" y="111.229" width="10.4749" height="53.771" rx="5.23743" transform="rotate(-90 72.6146 111.229)" fill="#4E3B20"/>
<rect x="78.8995" y="99.3575" width="10.4749" height="42.5978" rx="5.23743" transform="rotate(-90 78.8995 99.3575)" fill="#4E3B20"/>
<rect x="90.0726" y="87.486" width="10.4749" height="19.5531" rx="5.23743" transform="rotate(-90 90.0726 87.486)" fill="#4E3B20"/>
<rect x="92.1676" y="75.34" width="10.4749" height="69.1341" rx="5.23743" transform="rotate(-45 92.1676 75.34)" fill="#AA8247"/>
<rect width="10.4749" height="69.1341" rx="5.23743" transform="matrix(0.707107 0.707107 0.707107 -0.707107 50.9665 116.818)" fill="#AA8247"/>
<rect x="37" y="159.413" width="6.98324" height="125" rx="3.49162" transform="rotate(-90 37 159.413)" fill="#392C18"/>
<rect x="78.2011" y="102.849" width="46.0894" height="16.0615" rx="6" fill="#241D13"/>
<path d="M88.6163 115.447C87.8323 115.447 87.1463 115.321 86.5583 115.069C85.9703 114.808 85.513 114.439 85.1863 113.963C84.869 113.487 84.7103 112.937 84.7103 112.311V112.115C84.7103 112.05 84.729 111.999 84.7663 111.961C84.8036 111.924 84.855 111.905 84.9203 111.905H87.0903C87.1556 111.905 87.207 111.924 87.2443 111.961C87.2816 111.999 87.3003 112.05 87.3003 112.115V112.199C87.3003 112.461 87.4356 112.694 87.7063 112.899C87.9863 113.095 88.355 113.193 88.8123 113.193C89.1576 113.193 89.405 113.123 89.5543 112.983C89.7036 112.834 89.7783 112.671 89.7783 112.493C89.7783 112.288 89.685 112.134 89.4983 112.031C89.3116 111.929 88.971 111.803 88.4763 111.653L88.0703 111.541C87.1463 111.261 86.3716 110.888 85.7463 110.421C85.121 109.955 84.8083 109.278 84.8083 108.391C84.8083 107.803 84.967 107.285 85.2843 106.837C85.6016 106.38 86.0356 106.03 86.5863 105.787C87.1463 105.545 87.7716 105.423 88.4623 105.423C89.1903 105.423 89.8483 105.559 90.4363 105.829C91.0336 106.1 91.5003 106.483 91.8363 106.977C92.1816 107.472 92.3543 108.037 92.3543 108.671V108.797C92.3543 108.863 92.3356 108.914 92.2983 108.951C92.261 108.989 92.2096 109.007 92.1443 109.007H89.9743C89.909 109.007 89.8576 108.989 89.8203 108.951C89.783 108.914 89.7643 108.863 89.7643 108.797V108.783C89.7643 108.503 89.6383 108.251 89.3863 108.027C89.1343 107.794 88.7936 107.677 88.3643 107.677C88.0656 107.677 87.8276 107.738 87.6503 107.859C87.4823 107.981 87.3983 108.149 87.3983 108.363C87.3983 108.531 87.459 108.676 87.5803 108.797C87.711 108.909 87.907 109.021 88.1683 109.133C88.4296 109.236 88.831 109.371 89.3723 109.539C89.447 109.567 89.7736 109.67 90.3523 109.847C90.9403 110.015 91.4303 110.328 91.8223 110.785C92.2143 111.233 92.4103 111.779 92.4103 112.423C92.4103 113.049 92.2516 113.59 91.9343 114.047C91.617 114.495 91.1736 114.841 90.6043 115.083C90.035 115.326 89.3723 115.447 88.6163 115.447ZM98.2842 105.745C98.2842 105.68 98.3028 105.629 98.3402 105.591C98.3775 105.554 98.4288 105.535 98.4942 105.535H100.706C100.771 105.535 100.823 105.554 100.86 105.591C100.897 105.629 100.916 105.68 100.916 105.745V115.125C100.916 115.191 100.897 115.242 100.86 115.279C100.823 115.317 100.771 115.335 100.706 115.335H98.4942C98.4288 115.335 98.3775 115.317 98.3402 115.279C98.3028 115.242 98.2842 115.191 98.2842 115.125V111.569C98.2842 111.523 98.2608 111.499 98.2142 111.499H96.0302C95.9835 111.499 95.9602 111.523 95.9602 111.569V115.125C95.9602 115.191 95.9415 115.242 95.9042 115.279C95.8668 115.317 95.8155 115.335 95.7502 115.335H93.5382C93.4728 115.335 93.4215 115.317 93.3842 115.279C93.3468 115.242 93.3282 115.191 93.3282 115.125V105.745C93.3282 105.68 93.3468 105.629 93.3842 105.591C93.4215 105.554 93.4728 105.535 93.5382 105.535H95.7502C95.8155 105.535 95.8668 105.554 95.9042 105.591C95.9415 105.629 95.9602 105.68 95.9602 105.745V109.175C95.9602 109.222 95.9835 109.245 96.0302 109.245H98.2142C98.2608 109.245 98.2842 109.222 98.2842 109.175V105.745ZM105.681 115.503C104.906 115.503 104.22 115.349 103.623 115.041C103.035 114.724 102.577 114.285 102.251 113.725C101.924 113.156 101.761 112.498 101.761 111.751V109.119C101.761 108.391 101.924 107.747 102.251 107.187C102.577 106.627 103.035 106.193 103.623 105.885C104.22 105.577 104.906 105.423 105.681 105.423C106.465 105.423 107.151 105.577 107.739 105.885C108.336 106.193 108.798 106.627 109.125 107.187C109.451 107.747 109.615 108.391 109.615 109.119V111.751C109.615 112.498 109.451 113.156 109.125 113.725C108.798 114.285 108.336 114.724 107.739 115.041C107.151 115.349 106.465 115.503 105.681 115.503ZM105.681 113.249C106.073 113.249 106.385 113.123 106.619 112.871C106.861 112.61 106.983 112.265 106.983 111.835V109.091C106.983 108.662 106.861 108.321 106.619 108.069C106.385 107.808 106.073 107.677 105.681 107.677C105.298 107.677 104.985 107.808 104.743 108.069C104.509 108.321 104.393 108.662 104.393 109.091V111.835C104.393 112.265 104.509 112.61 104.743 112.871C104.985 113.123 105.298 113.249 105.681 113.249ZM114.852 105.535C115.515 105.535 116.098 105.671 116.602 105.941C117.106 106.203 117.493 106.581 117.764 107.075C118.044 107.561 118.184 108.121 118.184 108.755C118.184 109.381 118.039 109.931 117.75 110.407C117.461 110.883 117.055 111.252 116.532 111.513C116.009 111.775 115.407 111.905 114.726 111.905H113.242C113.195 111.905 113.172 111.929 113.172 111.975V115.125C113.172 115.191 113.153 115.242 113.116 115.279C113.079 115.317 113.027 115.335 112.962 115.335H110.75C110.685 115.335 110.633 115.317 110.596 115.279C110.559 115.242 110.54 115.191 110.54 115.125V105.745C110.54 105.68 110.559 105.629 110.596 105.591C110.633 105.554 110.685 105.535 110.75 105.535H114.852ZM114.418 109.805C114.763 109.805 115.039 109.717 115.244 109.539C115.459 109.353 115.566 109.11 115.566 108.811C115.566 108.503 115.459 108.256 115.244 108.069C115.039 107.883 114.763 107.789 114.418 107.789H113.242C113.195 107.789 113.172 107.813 113.172 107.859V109.735C113.172 109.782 113.195 109.805 113.242 109.805H114.418Z" fill="white"/>
</svg>
