<svg width="200" height="200" viewBox="0 0 200 200" fill="none" xmlns="http://www.w3.org/2000/svg">
<rect x="63.6671" y="166" width="22" height="24" fill="#696969"/>
<path d="M118.667 171H138.667L133.667 180H118.667V171Z" fill="#4B4B4B"/>
<rect x="118.667" y="187" width="17" height="3" fill="#4B4B4B"/>
<rect x="121.667" y="180" width="10" height="7" fill="#4B4B4B"/>
<rect x="114.667" y="171" width="4" height="3" fill="#4B4B4B"/>
<rect x="112" y="128.243" width="6" height="46.9174" rx="3" transform="rotate(-45 112 128.243)" fill="#4E3B20"/>
<rect width="6" height="43.148" rx="3" transform="matrix(-0.707107 -0.707107 -0.707107 0.707107 87.4183 132.243)" fill="#4E3B20"/>
<rect x="56" y="135" width="15" height="93" rx="7.5" transform="rotate(-90 56 135)" fill="#4E3B20"/>
<rect x="55.6671" y="114" width="15" height="90" rx="7.5" transform="rotate(-90 55.6671 114)" fill="#4E3B20"/>
<rect x="49" y="83" width="15" height="117" fill="#594220"/>
<rect x="138.667" y="83" width="15" height="117" fill="#594220"/>
<rect x="42" y="200" width="10" height="116" transform="rotate(-90 42 200)" fill="#392C18"/>
<rect width="12" height="106" rx="6" transform="matrix(0 -1 -1 0 154.667 87)" fill="#997A4B"/>
<rect width="12" height="67" rx="6" transform="matrix(1 0 0 -1 72.6671 142)" fill="#997A4B"/>
<rect width="12" height="67" rx="6" transform="matrix(1 0 0 -1 119.667 142)" fill="#997A4B"/>
<rect width="12" height="67" rx="6" transform="matrix(1 0 0 -1 48.6671 142)" fill="#997A4B"/>
<rect width="12" height="67" rx="6" transform="matrix(1 0 0 -1 95.6671 142)" fill="#997A4B"/>
<rect width="12" height="67" rx="6" transform="matrix(1 0 0 -1 142.667 142)" fill="#997A4B"/>
<rect width="12" height="67" rx="6" transform="matrix(1 0 0 -1 84.6671 142)" fill="#876C43"/>
<rect width="12" height="67" rx="6" transform="matrix(1 0 0 -1 131.667 142)" fill="#876C43"/>
<rect width="12" height="67" rx="6" transform="matrix(1 0 0 -1 60.6671 142)" fill="#876C43"/>
<rect width="12" height="67" rx="6" transform="matrix(1 0 0 -1 107.667 142)" fill="#876C43"/>
<rect x="67" y="109" width="66" height="23" rx="6" fill="#241D13"/>
<path d="M82.81 117.028C82.81 117.112 82.786 117.178 82.738 117.226C82.69 117.274 82.624 117.298 82.54 117.298H77.176C77.116 117.298 77.086 117.328 77.086 117.388V119.08C77.086 119.14 77.116 119.17 77.176 119.17H80.506C80.59 119.17 80.656 119.194 80.704 119.242C80.752 119.29 80.776 119.356 80.776 119.44V121.78C80.776 121.864 80.752 121.93 80.704 121.978C80.656 122.026 80.59 122.05 80.506 122.05H77.176C77.116 122.05 77.086 122.08 77.086 122.14V126.73C77.086 126.814 77.062 126.88 77.014 126.928C76.966 126.976 76.9 127 76.816 127H73.972C73.888 127 73.822 126.976 73.774 126.928C73.726 126.88 73.702 126.814 73.702 126.73V114.67C73.702 114.586 73.726 114.52 73.774 114.472C73.822 114.424 73.888 114.4 73.972 114.4H82.54C82.624 114.4 82.69 114.424 82.738 114.472C82.786 114.52 82.81 114.586 82.81 114.67V117.028ZM88.5468 127.216C87.5508 127.216 86.6688 127.018 85.9008 126.622C85.1448 126.214 84.5568 125.65 84.1368 124.93C83.7168 124.198 83.5068 123.352 83.5068 122.392V119.008C83.5068 118.072 83.7168 117.244 84.1368 116.524C84.5568 115.804 85.1448 115.246 85.9008 114.85C86.6688 114.454 87.5508 114.256 88.5468 114.256C89.5548 114.256 90.4368 114.454 91.1928 114.85C91.9608 115.246 92.5548 115.804 92.9748 116.524C93.3948 117.244 93.6048 118.072 93.6048 119.008V122.392C93.6048 123.352 93.3948 124.198 92.9748 124.93C92.5548 125.65 91.9608 126.214 91.1928 126.622C90.4368 127.018 89.5548 127.216 88.5468 127.216ZM88.5468 124.318C89.0508 124.318 89.4528 124.156 89.7528 123.832C90.0648 123.496 90.2208 123.052 90.2208 122.5V118.972C90.2208 118.42 90.0648 117.982 89.7528 117.658C89.4528 117.322 89.0508 117.154 88.5468 117.154C88.0548 117.154 87.6528 117.322 87.3408 117.658C87.0408 117.982 86.8908 118.42 86.8908 118.972V122.5C86.8908 123.052 87.0408 123.496 87.3408 123.832C87.6528 124.156 88.0548 124.318 88.5468 124.318ZM101.472 127C101.316 127 101.214 126.934 101.166 126.802L99.1865 122.23C99.1625 122.182 99.1265 122.158 99.0785 122.158H98.3225C98.2625 122.158 98.2325 122.188 98.2325 122.248V126.73C98.2325 126.814 98.2085 126.88 98.1605 126.928C98.1125 126.976 98.0465 127 97.9625 127H95.1185C95.0345 127 94.9685 126.976 94.9205 126.928C94.8725 126.88 94.8485 126.814 94.8485 126.73V114.67C94.8485 114.586 94.8725 114.52 94.9205 114.472C94.9685 114.424 95.0345 114.4 95.1185 114.4H100.572C101.388 114.4 102.102 114.568 102.714 114.904C103.338 115.24 103.818 115.714 104.154 116.326C104.502 116.926 104.676 117.622 104.676 118.414C104.676 119.206 104.478 119.902 104.082 120.502C103.698 121.09 103.164 121.522 102.48 121.798C102.42 121.822 102.402 121.864 102.426 121.924L104.712 126.676C104.736 126.748 104.748 126.79 104.748 126.802C104.748 126.862 104.724 126.91 104.676 126.946C104.628 126.982 104.568 127 104.496 127H101.472ZM98.3225 117.298C98.2625 117.298 98.2325 117.328 98.2325 117.388V119.494C98.2325 119.554 98.2625 119.584 98.3225 119.584H100.014C100.398 119.584 100.71 119.482 100.95 119.278C101.19 119.062 101.31 118.786 101.31 118.45C101.31 118.102 101.19 117.826 100.95 117.622C100.71 117.406 100.398 117.298 100.014 117.298H98.3225ZM110.729 127.144C109.745 127.144 108.875 126.946 108.119 126.55C107.375 126.154 106.793 125.596 106.373 124.876C105.965 124.156 105.761 123.328 105.761 122.392V118.99C105.761 118.054 105.965 117.232 106.373 116.524C106.793 115.804 107.375 115.246 108.119 114.85C108.875 114.454 109.745 114.256 110.729 114.256C111.689 114.256 112.547 114.448 113.303 114.832C114.059 115.204 114.641 115.714 115.049 116.362C115.469 117.01 115.679 117.718 115.679 118.486V118.504C115.679 118.588 115.655 118.654 115.607 118.702C115.559 118.75 115.493 118.774 115.409 118.774H112.583C112.403 118.774 112.313 118.72 112.313 118.612C112.313 118.216 112.169 117.874 111.881 117.586C111.605 117.298 111.221 117.154 110.729 117.154C110.249 117.154 109.865 117.316 109.577 117.64C109.289 117.952 109.145 118.372 109.145 118.9V122.5C109.145 123.016 109.307 123.436 109.631 123.76C109.967 124.084 110.381 124.246 110.873 124.246C111.317 124.246 111.677 124.126 111.953 123.886C112.241 123.634 112.385 123.292 112.385 122.86V122.626C112.385 122.566 112.355 122.536 112.295 122.536H110.711C110.627 122.536 110.561 122.512 110.513 122.464C110.465 122.416 110.441 122.35 110.441 122.266V120.106C110.441 120.022 110.465 119.956 110.513 119.908C110.561 119.86 110.627 119.836 110.711 119.836H115.409C115.493 119.836 115.559 119.86 115.607 119.908C115.655 119.956 115.679 120.022 115.679 120.106V122.572C115.679 123.46 115.469 124.252 115.049 124.948C114.641 125.644 114.059 126.184 113.303 126.568C112.559 126.952 111.701 127.144 110.729 127.144ZM126.053 117.028C126.053 117.112 126.029 117.178 125.981 117.226C125.933 117.274 125.867 117.298 125.783 117.298H120.401C120.341 117.298 120.311 117.328 120.311 117.388V119.08C120.311 119.14 120.341 119.17 120.401 119.17H123.731C123.815 119.17 123.881 119.194 123.929 119.242C123.977 119.29 124.001 119.356 124.001 119.44V121.78C124.001 121.864 123.977 121.93 123.929 121.978C123.881 122.026 123.815 122.05 123.731 122.05H120.401C120.341 122.05 120.311 122.08 120.311 122.14V124.012C120.311 124.072 120.341 124.102 120.401 124.102H125.783C125.867 124.102 125.933 124.126 125.981 124.174C126.029 124.222 126.053 124.288 126.053 124.372V126.73C126.053 126.814 126.029 126.88 125.981 126.928C125.933 126.976 125.867 127 125.783 127H117.197C117.113 127 117.047 126.976 116.999 126.928C116.951 126.88 116.927 126.814 116.927 126.73V114.67C116.927 114.586 116.951 114.52 116.999 114.472C117.047 114.424 117.113 114.4 117.197 114.4H125.783C125.867 114.4 125.933 114.424 125.981 114.472C126.029 114.52 126.053 114.586 126.053 114.67V117.028Z" fill="white"/>
</svg>
