<svg width="168" height="167" viewBox="0 0 168 167" fill="none" xmlns="http://www.w3.org/2000/svg">
<path d="M147.638 94C104.838 89.6 118.333 29.5 130.5 0H97C96.5 16 51.1 21.4 39.5 61C32.3738 85.3272 62.0655 109.473 73 130C81.1683 145.334 76.5 153 77 167H107C107 159.198 107.337 137.489 97 117C88.7638 100.675 69.4425 85.1252 69 78C68.4122 68.5375 77.5364 55.1939 87 61C93.5647 65.0277 105.617 90.5535 112 97.5C128.99 115.989 154.109 115.667 167.115 115.5L167.138 115.5V95.5C162.5 95.5 158.838 95.2 147.638 94Z" fill="#C6B193"/>
<ellipse rx="2.3241" ry="1.6246" transform="matrix(0.128758 -0.991676 -0.963201 -0.268783 50.034 71.6693)" fill="#A89578"/>
<ellipse rx="2.3241" ry="1.6246" transform="matrix(0.525541 0.850768 0.916986 -0.398919 86.7111 127.625)" fill="#A89578"/>
<ellipse rx="1.92657" ry="1.29556" transform="matrix(0.869326 0.49424 0.783061 -0.621945 152.689 100.043)" fill="#A89578"/>
<ellipse rx="2.37252" ry="2.21126" transform="matrix(0.128758 -0.991676 -0.963201 -0.268783 46.4354 65.0428)" fill="#A89578"/>
<ellipse rx="2.37252" ry="2.21126" transform="matrix(0.525541 0.850768 0.916986 -0.398919 93.6831 130.498)" fill="#A89578"/>
<ellipse rx="1.96671" ry="1.7634" transform="matrix(0.869326 0.49424 0.783061 -0.621945 159.422 100.069)" fill="#A89578"/>
<ellipse rx="1.16205" ry="1.08306" transform="matrix(0.128758 -0.991676 -0.963201 -0.268783 51.9023 61.4435)" fill="#A89578"/>
<ellipse rx="1.16205" ry="1.08306" transform="matrix(0.525541 0.850768 0.916986 -0.398919 91.7108 136.739)" fill="#A89578"/>
<ellipse rx="0.963286" ry="0.863706" transform="matrix(0.869326 0.49424 0.783061 -0.621945 159.888 104.596)" fill="#A89578"/>
<rect x="20.1428" y="36.3563" width="12.5" height="3.53038" fill="#594220"/>
<ellipse cx="19.25" cy="33.7085" rx="6.25" ry="6.17816" fill="#576B2D"/>
<ellipse cx="33.5357" cy="35.4737" rx="4.46429" ry="4.41297" fill="#576B2D"/>
<ellipse cx="26.3929" cy="31.9433" rx="8.03571" ry="7.94334" fill="#617733"/>
<rect x="144.143" y="22.3563" width="12.5" height="3.53038" fill="#594220"/>
<ellipse cx="143.25" cy="19.7085" rx="6.25" ry="6.17816" fill="#576B2D"/>
<ellipse cx="157.536" cy="21.4737" rx="4.46429" ry="4.41297" fill="#576B2D"/>
<ellipse cx="150.393" cy="17.9433" rx="8.03571" ry="7.94334" fill="#617733"/>
<rect x="136.143" y="146.356" width="12.5" height="3.53038" fill="#594220"/>
<ellipse cx="135.25" cy="143.709" rx="6.25" ry="6.17816" fill="#576B2D"/>
<ellipse cx="149.536" cy="145.474" rx="4.46429" ry="4.41297" fill="#576B2D"/>
<ellipse cx="142.393" cy="141.943" rx="8.03571" ry="7.94334" fill="#617733"/>
<rect x="26.1428" y="149.356" width="12.5" height="3.53038" fill="#594220"/>
<ellipse cx="25.25" cy="146.709" rx="6.25" ry="6.17816" fill="#576B2D"/>
<ellipse cx="39.5357" cy="148.474" rx="4.46429" ry="4.41297" fill="#576B2D"/>
<ellipse cx="32.3929" cy="144.943" rx="8.03571" ry="7.94334" fill="#617733"/>
<path d="M86.7558 78.1688C86.0046 77.4088 83.9389 79.1189 83 80.0689V76.2687C85.8168 75.3187 87.6947 79.1189 86.7558 78.1688Z" fill="#56772D"/>
<path d="M81.1221 78.1688C81.4977 77.4088 82.5305 79.1189 83 80.0689V76.2687C81.5916 75.3187 80.6527 79.1189 81.1221 78.1688Z" fill="#56772D"/>
<ellipse cx="83" cy="75.1264" rx="1" ry="0.988505" fill="white"/>
<ellipse cx="84" cy="76.1149" rx="1" ry="0.988505" fill="#E0E0E0"/>
<ellipse cx="82" cy="76.1149" rx="1" ry="0.988505" fill="#E0E0E0"/>
<ellipse cx="83" cy="77.1034" rx="1" ry="0.988505" fill="#D2D2D2"/>
<ellipse cx="83" cy="76.1149" rx="1" ry="0.988505" fill="#E2D346"/>
<path d="M59.7558 11.0309C59.0046 10.2709 56.9389 11.981 56 12.931V9.13082C58.8168 8.18077 60.6947 11.981 59.7558 11.0309Z" fill="#56772D"/>
<path d="M54.1221 11.0309C54.4977 10.2709 55.5305 11.981 56 12.931V9.13082C54.5916 8.18077 53.6527 11.981 54.1221 11.0309Z" fill="#56772D"/>
<ellipse cx="56" cy="7.9885" rx="1" ry="0.988505" fill="white"/>
<ellipse cx="57" cy="8.97701" rx="1" ry="0.988505" fill="#E0E0E0"/>
<ellipse cx="55" cy="8.97701" rx="1" ry="0.988505" fill="#E0E0E0"/>
<ellipse cx="56" cy="9.96551" rx="1" ry="0.988505" fill="#D2D2D2"/>
<ellipse cx="56" cy="8.97701" rx="1" ry="0.988505" fill="#E2D346"/>
<path d="M43.7558 9.03093C43.0046 8.27089 40.9389 9.98098 40 10.931V7.13082C42.8168 6.18077 44.6947 9.98098 43.7558 9.03093Z" fill="#56772D"/>
<path d="M38.1221 9.03093C38.4977 8.27089 39.5305 9.98098 40 10.931V7.13082C38.5916 6.18077 37.6527 9.98098 38.1221 9.03093Z" fill="#56772D"/>
<ellipse cx="40" cy="5.9885" rx="1" ry="0.988505" fill="white"/>
<ellipse cx="41" cy="6.97701" rx="1" ry="0.988505" fill="#E0E0E0"/>
<ellipse cx="39" cy="6.97701" rx="1" ry="0.988505" fill="#E0E0E0"/>
<ellipse cx="40" cy="7.96551" rx="1" ry="0.988505" fill="#D2D2D2"/>
<ellipse cx="40" cy="6.97701" rx="1" ry="0.988505" fill="#E2D346"/>
<path d="M15.7558 61.0309C15.0046 60.2709 12.9389 61.981 12 62.931V59.1308C14.8168 58.1808 16.6947 61.981 15.7558 61.0309Z" fill="#56772D"/>
<path d="M10.1221 61.0309C10.4977 60.2709 11.5305 61.981 12 62.931V59.1308C10.5916 58.1808 9.65265 61.981 10.1221 61.0309Z" fill="#56772D"/>
<ellipse cx="12" cy="57.9885" rx="1" ry="0.988505" fill="white"/>
<ellipse cx="13" cy="58.977" rx="1" ry="0.988505" fill="#E0E0E0"/>
<ellipse cx="11" cy="58.977" rx="1" ry="0.988505" fill="#E0E0E0"/>
<ellipse cx="12" cy="59.9655" rx="1" ry="0.988505" fill="#D2D2D2"/>
<ellipse cx="12" cy="58.977" rx="1" ry="0.988505" fill="#E2D346"/>
<path d="M40.7558 117.031C40.0046 116.271 37.9389 117.981 37 118.931V115.131C39.8168 114.181 41.6947 117.981 40.7558 117.031Z" fill="#56772D"/>
<path d="M35.1221 117.031C35.4977 116.271 36.5305 117.981 37 118.931V115.131C35.5916 114.181 34.6527 117.981 35.1221 117.031Z" fill="#56772D"/>
<ellipse cx="37" cy="113.989" rx="1" ry="0.988505" fill="white"/>
<ellipse cx="38" cy="114.977" rx="1" ry="0.988505" fill="#E0E0E0"/>
<ellipse cx="36" cy="114.977" rx="1" ry="0.988505" fill="#E0E0E0"/>
<ellipse cx="37" cy="115.966" rx="1" ry="0.988505" fill="#D2D2D2"/>
<ellipse cx="37" cy="114.977" rx="1" ry="0.988505" fill="#E2D346"/>
<path d="M149.756 73.0309C149.005 72.2709 146.939 73.981 146 74.931V71.1308C148.817 70.1808 150.695 73.981 149.756 73.0309Z" fill="#56772D"/>
<path d="M144.122 73.0309C144.498 72.2709 145.531 73.981 146 74.931V71.1308C144.592 70.1808 143.653 73.981 144.122 73.0309Z" fill="#56772D"/>
<ellipse cx="146" cy="69.9885" rx="1" ry="0.988505" fill="white"/>
<ellipse cx="147" cy="70.977" rx="1" ry="0.988505" fill="#E0E0E0"/>
<ellipse cx="145" cy="70.977" rx="1" ry="0.988505" fill="#E0E0E0"/>
<ellipse cx="146" cy="71.9655" rx="1" ry="0.988505" fill="#D2D2D2"/>
<ellipse cx="146" cy="70.977" rx="1" ry="0.988505" fill="#E2D346"/>
<path d="M163.756 42.0309C163.005 41.2709 160.939 42.981 160 43.931V40.1308C162.817 39.1808 164.695 42.981 163.756 42.0309Z" fill="#56772D"/>
<path d="M158.122 42.0309C158.498 41.2709 159.531 42.981 160 43.931V40.1308C158.592 39.1808 157.653 42.981 158.122 42.0309Z" fill="#56772D"/>
<ellipse cx="160" cy="38.9885" rx="1" ry="0.988505" fill="white"/>
<ellipse cx="161" cy="39.977" rx="1" ry="0.988505" fill="#E0E0E0"/>
<ellipse cx="159" cy="39.977" rx="1" ry="0.988505" fill="#E0E0E0"/>
<ellipse cx="160" cy="40.9655" rx="1" ry="0.988505" fill="#D2D2D2"/>
<ellipse cx="160" cy="39.977" rx="1" ry="0.988505" fill="#E2D346"/>
<path d="M131.756 39.0309C131.005 38.2709 128.939 39.981 128 40.931V37.1308C130.817 36.1808 132.695 39.981 131.756 39.0309Z" fill="#56772D"/>
<path d="M126.122 39.0309C126.498 38.2709 127.531 39.981 128 40.931V37.1308C126.592 36.1808 125.653 39.981 126.122 39.0309Z" fill="#56772D"/>
<ellipse cx="128" cy="35.9885" rx="1" ry="0.988505" fill="white"/>
<ellipse cx="129" cy="36.977" rx="1" ry="0.988505" fill="#E0E0E0"/>
<ellipse cx="127" cy="36.977" rx="1" ry="0.988505" fill="#E0E0E0"/>
<ellipse cx="128" cy="37.9655" rx="1" ry="0.988505" fill="#D2D2D2"/>
<ellipse cx="128" cy="36.977" rx="1" ry="0.988505" fill="#E2D346"/>
<path d="M159.756 130.031C159.005 129.271 156.939 130.981 156 131.931V128.131C158.817 127.181 160.695 130.981 159.756 130.031Z" fill="#56772D"/>
<path d="M154.122 130.031C154.498 129.271 155.531 130.981 156 131.931V128.131C154.592 127.181 153.653 130.981 154.122 130.031Z" fill="#56772D"/>
<ellipse cx="156" cy="126.989" rx="1" ry="0.988505" fill="white"/>
<ellipse cx="157" cy="127.977" rx="1" ry="0.988505" fill="#E0E0E0"/>
<ellipse cx="155" cy="127.977" rx="1" ry="0.988505" fill="#E0E0E0"/>
<ellipse cx="156" cy="128.966" rx="1" ry="0.988505" fill="#D2D2D2"/>
<ellipse cx="156" cy="127.977" rx="1" ry="0.988505" fill="#E2D346"/>
<path d="M117.756 125.031C117.005 124.271 114.939 125.981 114 126.931V123.131C116.817 122.181 118.695 125.981 117.756 125.031Z" fill="#56772D"/>
<path d="M112.122 125.031C112.498 124.271 113.531 125.981 114 126.931V123.131C112.592 122.181 111.653 125.981 112.122 125.031Z" fill="#56772D"/>
<ellipse cx="114" cy="121.989" rx="1" ry="0.988505" fill="white"/>
<ellipse cx="115" cy="122.977" rx="1" ry="0.988505" fill="#E0E0E0"/>
<ellipse cx="113" cy="122.977" rx="1" ry="0.988505" fill="#E0E0E0"/>
<ellipse cx="114" cy="123.966" rx="1" ry="0.988505" fill="#D2D2D2"/>
<ellipse cx="114" cy="122.977" rx="1" ry="0.988505" fill="#E2D346"/>
<path d="M14.7558 157.031C14.0046 156.271 11.9389 157.981 11 158.931V155.131C13.8168 154.181 15.6947 157.981 14.7558 157.031Z" fill="#56772D"/>
<path d="M9.12212 157.031C9.4977 156.271 10.5305 157.981 11 158.931V155.131C9.59159 154.181 8.65265 157.981 9.12212 157.031Z" fill="#56772D"/>
<ellipse cx="11" cy="153.989" rx="1" ry="0.988505" fill="white"/>
<ellipse cx="12" cy="154.977" rx="1" ry="0.988505" fill="#E0E0E0"/>
<ellipse cx="10" cy="154.977" rx="1" ry="0.988505" fill="#E0E0E0"/>
<ellipse cx="11" cy="155.966" rx="1" ry="0.988505" fill="#D2D2D2"/>
<ellipse cx="11" cy="154.977" rx="1" ry="0.988505" fill="#E2D346"/>
<ellipse rx="6.98376" ry="5.26693" transform="matrix(0.739783 0.672846 0.679729 -0.733464 94.1554 34.1431)" fill="#A89578"/>
<ellipse rx="2.7935" ry="1.9751" transform="matrix(0.739783 0.672846 0.679729 -0.733464 94.8066 23.1665)" fill="#A89578"/>
<ellipse rx="2.8517" ry="2.68833" transform="matrix(0.739783 0.672846 0.679729 -0.733464 103.363 23.6076)" fill="#A89578"/>
<ellipse rx="2.03693" ry="1.15214" transform="matrix(0.739783 0.672846 0.679729 -0.733464 87.1786 41.0721)" fill="#A89578"/>
<ellipse rx="0.698376" ry="0.658367" transform="matrix(0.739783 0.672846 0.679729 -0.733464 93.8825 43.684)" fill="#A89578"/>
<ellipse rx="0.698376" ry="0.658367" transform="matrix(0.739783 0.672846 0.679729 -0.733464 98.6342 42.6663)" fill="#A89578"/>
<ellipse rx="0.698376" ry="0.658367" transform="matrix(0.739783 0.672846 0.679729 -0.733464 88.8731 25.6309)" fill="#A89578"/>
<ellipse rx="1.39675" ry="1.31673" transform="matrix(0.739783 0.672846 0.679729 -0.733464 103.659 32.1076)" fill="#A89578"/>
<ellipse rx="1.39675" ry="1.31673" transform="matrix(0.739783 0.672846 0.679729 -0.733464 83.583 30.3118)" fill="#A89578"/>
</svg>
