<svg width="500" height="835" viewBox="0 0 500 835" fill="none" xmlns="http://www.w3.org/2000/svg">
<rect width="166" height="167" fill="#80944A"/>
<rect y="167" width="166" height="167" fill="#80944A"/>
<rect y="334" width="166" height="167" fill="#80944A"/>
<rect y="501" width="166" height="167" fill="#80944A"/>
<rect y="668" width="166" height="167" fill="#80944A"/>
<rect x="166" width="167" height="167" fill="#80944A"/>
<rect x="166" y="167" width="167" height="167" fill="#80944A"/>
<rect x="166" y="334" width="167" height="167" fill="#80944A"/>
<rect x="166" y="501" width="167" height="167" fill="#80944A"/>
<rect x="166" y="668" width="167" height="167" fill="#80944A"/>
<rect x="333" width="167" height="167" fill="#80944A"/>
<rect x="333" y="167" width="167" height="167" fill="#80944A"/>
<rect x="333" y="334" width="167" height="167" fill="#80944A"/>
<rect x="333" y="501" width="167" height="167" fill="#80944A"/>
<rect x="333" y="668" width="167" height="167" fill="#80944A"/>
<path d="M205.5 219C268.7 209.8 265.5 180.833 256 167.5V160C264 159.167 281.5 158.7 287.5 163.5C307.5 208.5 286 252.5 234 252C182 251.5 221 343 263 369C363 412.6 408.333 361.5 418.5 330.5H448.5C453.7 374.9 406.333 401 382 408.5C365.167 417.833 326.5 449.6 306.5 502C281.5 567.5 295 593 311.5 602.5C389.5 648.5 418 607.667 422.5 581.5H453.5C458 591.333 464.3 624.9 453.5 680.5C442.7 736.1 343.333 719.667 295 704.5C278.5 698 233.7 683.1 186.5 675.5C61.7001 661.9 72.8334 603.833 94.0001 576.5H116.5C118.167 581.167 122.7 591.5 127.5 595.5C225.5 643.9 252.333 546.667 253.5 492C254.333 461.333 238.5 399.2 168.5 396C98.5001 392.8 89.0001 351 93.0001 330.5H119C124.167 337.667 137.1 352 147.5 352C194.7 356.8 188.167 319.333 179 300C161.5 276.833 142.3 228.2 205.5 219Z" fill="#CEAF7F"/>
</svg>
