<svg width="200" height="200" viewBox="0 0 200 200" fill="none" xmlns="http://www.w3.org/2000/svg">
<rect x="49" y="146" width="149" height="5" fill="#5C5E5F"/>
<path d="M56.2769 148.215C56.1299 147.039 57.0469 146 58.2322 146H70.9698C72.0408 146 72.8631 146.949 72.7102 148.009V148.009C72.5886 148.853 71.8799 149.487 71.0284 149.516L58.2979 149.94C57.2795 149.974 56.4033 149.226 56.2769 148.215V148.215Z" fill="#5A5A5A"/>
<path d="M88.2769 148.215C88.1299 147.039 89.0469 146 90.2322 146H102.97C104.041 146 104.863 146.949 104.71 148.009V148.009C104.589 148.853 103.88 149.487 103.028 149.516L90.2979 149.94C89.2795 149.974 88.4033 149.226 88.2769 148.215V148.215Z" fill="#5A5A5A"/>
<path d="M140.277 148.215C140.13 147.039 141.047 146 142.232 146H154.97C156.041 146 156.863 146.949 156.71 148.009V148.009C156.589 148.853 155.88 149.487 155.028 149.516L142.298 149.94C141.28 149.974 140.403 149.226 140.277 148.215V148.215Z" fill="#5A5A5A"/>
<path d="M64.1646 148.848C64.0758 150.009 64.9941 151 66.1588 151H74.8158C75.9897 151 76.9112 149.994 76.808 148.824L76.77 148.394C76.6826 147.403 75.88 146.626 74.8866 146.572L66.3361 146.106C65.2502 146.047 64.3161 146.867 64.2332 147.951L64.1646 148.848Z" fill="#5A5A5A"/>
<path d="M116.165 148.848C116.076 150.009 116.994 151 118.159 151H126.816C127.99 151 128.911 149.994 128.808 148.824L128.77 148.394C128.683 147.403 127.88 146.626 126.887 146.572L118.336 146.106C117.25 146.047 116.316 146.867 116.233 147.951L116.165 148.848Z" fill="#5A5A5A"/>
<path d="M161.165 148.848C161.076 150.009 161.994 151 163.159 151H171.816C172.99 151 173.911 149.994 173.808 148.824L173.77 148.394C173.683 147.403 172.88 146.626 171.887 146.572L163.336 146.106C162.25 146.047 161.316 146.867 161.233 147.951L161.165 148.848Z" fill="#5A5A5A"/>
<path d="M63.0101 96.2924L114.02 61L162 96.2924V146H62L63.0101 96.2924Z" fill="#0B0804"/>
<rect x="78" y="67" width="10" height="13" fill="#424242"/>
<rect x="77" y="64" width="12" height="4" fill="#5C5C5C"/>
<path d="M77 88.9V80.35H148V88.9H77Z" fill="#3E311E"/>
<path d="M73 101.4V96.4H155V101.4H73Z" fill="#3E311E"/>
<path d="M164 92L196 101.692V146H164V92Z" fill="#0B0703"/>
<path d="M139 110C136.791 110 135 108.209 135 106V106C135 103.791 136.791 102 139 102H193C195.209 102 197 103.791 197 106V106C197 108.209 195.209 110 193 110H139Z" fill="#3E311E"/>
<rect x="193" y="113" width="3" height="33" fill="#292115"/>
<path d="M97 74.65V66.1H129V74.65H97Z" fill="#3E311E"/>
<rect width="5.08633" height="36.0647" rx="2.54317" transform="matrix(-0.343477 0.939161 -0.963108 -0.269114 198.626 111.555)" fill="#705030"/>
<path d="M67 98.4V89.85H158V98.4H67Z" fill="#3E311E"/>
<path d="M60.9043 98L113.904 60L163.904 98V146H60.9043V98Z" fill="#292115"/>
<rect x="154.904" y="94" width="11" height="52" fill="#292115"/>
<path d="M62.9043 101C60.6952 101 58.9043 99.2091 58.9043 97V97C58.9043 94.7909 60.6952 93 62.9043 93H163.904C166.113 93 167.904 94.7909 167.904 97V97C167.904 99.2091 166.113 101 163.904 101H62.9043Z" fill="#3E311E"/>
<path d="M74.9043 92C72.6952 92 70.9043 90.2091 70.9043 88V88C70.9043 85.7909 72.6952 84 74.9043 84H149.904C152.113 84 153.904 85.7909 153.904 88V88C153.904 90.2091 152.113 92 149.904 92H74.9043Z" fill="#3E311E"/>
<path d="M86.9043 83C84.6952 83 82.9043 81.2091 82.9043 79V79C82.9043 76.7909 84.6952 75 86.9043 75H138.904C141.113 75 142.904 76.7909 142.904 79V79C142.904 81.2091 141.113 83 138.904 83H86.9043Z" fill="#3E311E"/>
<path d="M120 67C117.791 67 116 65.2091 116 63V63C116 60.7909 117.791 59 120 59L194 59C196.209 59 198 60.7909 198 63V63C198 65.2091 196.209 67 194 67H120Z" fill="#60462B"/>
<path d="M190 63C190 60.7909 191.791 59 194 59V59C196.209 59 198 60.7909 198 63V100C198 102.209 196.209 104 194 104V104C191.791 104 190 102.209 190 100V63Z" fill="#60462B"/>
<path d="M174 63C174 60.7909 175.791 59 178 59V59C180.209 59 182 60.7909 182 63V100C182 102.209 180.209 104 178 104V104C175.791 104 174 102.209 174 100V63Z" fill="#60462B"/>
<path d="M158 63C158 60.7909 159.791 59 162 59V59C164.209 59 166 60.7909 166 63V100C166 102.209 164.209 104 162 104V104C159.791 104 158 102.209 158 100V63Z" fill="#60462B"/>
<path d="M142 63C142 60.7909 143.791 59 146 59V59C148.209 59 150 60.7909 150 63V80C150 82.2091 148.209 84 146 84V84C143.791 84 142 82.2091 142 80V63Z" fill="#60462B"/>
<path d="M126 63C126 60.7909 127.791 59 130 59V59C132.209 59 134 60.7909 134 63V71C134 73.2091 132.209 75 130 75V75C127.791 75 126 73.2091 126 71V63Z" fill="#60462B"/>
<path d="M182 63C182 60.7909 183.791 59 186 59V59C188.209 59 190 60.7909 190 63V100C190 102.209 188.209 104 186 104V104C183.791 104 182 102.209 182 100V63Z" fill="#6B5035"/>
<path d="M166 63C166 60.7909 167.791 59 170 59V59C172.209 59 174 60.7909 174 63V100C174 102.209 172.209 104 170 104V104C167.791 104 166 102.209 166 100V63Z" fill="#6B5035"/>
<path d="M150 63C150 60.7909 151.791 59 154 59V59C156.209 59 158 60.7909 158 63V85C158 87.2091 156.209 89 154 89V89C151.791 89 150 87.2091 150 85V63Z" fill="#6B5035"/>
<path d="M134 63C134 60.7909 135.791 59 138 59V59C140.209 59 142 60.7909 142 63V75C142 77.2091 140.209 79 138 79V79C135.791 79 134 77.2091 134 75V63Z" fill="#6B5035"/>
<path d="M118 63C118 60.7909 119.791 59 122 59V59C124.209 59 126 60.7909 126 63V64C126 66.2091 124.209 68 122 68V68C119.791 68 118 66.2091 118 64V63Z" fill="#6B5035"/>
<path d="M98.9043 74C96.6952 74 94.9043 72.2091 94.9043 70V70C94.9043 67.7909 96.6952 66 98.9043 66H126.904C129.113 66 130.904 67.7909 130.904 70V70C130.904 72.2091 129.113 74 126.904 74H98.9043Z" fill="#3E311E"/>
<path d="M60.9043 103C59.2474 103 57.9043 101.657 57.9043 100V100C57.9043 98.3431 59.2474 97 60.9043 97H163.904C165.561 97 166.904 98.3431 166.904 100V100C166.904 101.657 165.561 103 163.904 103H60.9043Z" fill="#2B2112"/>
<rect x="129.904" y="108" width="21" height="38" fill="#0B0703"/>
<path d="M62.9043 146C60.6952 146 58.9043 144.209 58.9043 142V142C58.9043 139.791 60.6952 138 62.9043 138H121.904C124.113 138 125.904 139.791 125.904 142V142C125.904 144.209 124.113 146 121.904 146H62.9043Z" fill="#3E311E"/>
<path d="M157.904 146C155.695 146 153.904 144.209 153.904 142V142C153.904 139.791 155.695 138 157.904 138H163.904C166.113 138 167.904 139.791 167.904 142V142C167.904 144.209 166.113 146 163.904 146H157.904Z" fill="#3E311E"/>
<path d="M62.9043 137C60.6952 137 58.9043 135.209 58.9043 133V133C58.9043 130.791 60.6952 129 62.9043 129H121.904C124.113 129 125.904 130.791 125.904 133V133C125.904 135.209 124.113 137 121.904 137H62.9043Z" fill="#3E311E"/>
<path d="M157.904 137C155.695 137 153.904 135.209 153.904 133V133C153.904 130.791 155.695 129 157.904 129H163.904C166.113 129 167.904 130.791 167.904 133V133C167.904 135.209 166.113 137 163.904 137H157.904Z" fill="#3E311E"/>
<path d="M62.9043 128C60.6952 128 58.9043 126.209 58.9043 124V124C58.9043 121.791 60.6952 120 62.9043 120H72.9043C75.1134 120 76.9043 121.791 76.9043 124V124C76.9043 126.209 75.1134 128 72.9043 128H62.9043Z" fill="#3E311E"/>
<path d="M109.904 128C107.695 128 105.904 126.209 105.904 124V124C105.904 121.791 107.695 120 109.904 120H121.904C124.113 120 125.904 121.791 125.904 124V124C125.904 126.209 124.113 128 121.904 128H109.904Z" fill="#3E311E"/>
<path d="M157.904 128C155.695 128 153.904 126.209 153.904 124V124C153.904 121.791 155.695 120 157.904 120H163.904C166.113 120 167.904 121.791 167.904 124V124C167.904 126.209 166.113 128 163.904 128H157.904Z" fill="#3E311E"/>
<path d="M62.9043 119C60.6952 119 58.9043 117.209 58.9043 115V115C58.9043 112.791 60.6952 111 62.9043 111H72.9043C75.1134 111 76.9043 112.791 76.9043 115V115C76.9043 117.209 75.1134 119 72.9043 119H62.9043Z" fill="#3E311E"/>
<path d="M109.904 119C107.695 119 105.904 117.209 105.904 115V115C105.904 112.791 107.695 111 109.904 111H121.904C124.113 111 125.904 112.791 125.904 115V115C125.904 117.209 124.113 119 121.904 119H109.904Z" fill="#3E311E"/>
<path d="M157.904 119C155.695 119 153.904 117.209 153.904 115V115C153.904 112.791 155.695 111 157.904 111H163.904C166.113 111 167.904 112.791 167.904 115V115C167.904 117.209 166.113 119 163.904 119H157.904Z" fill="#3E311E"/>
<path d="M109.904 110C107.695 110 105.904 108.209 105.904 106V106C105.904 103.791 107.695 102 109.904 102H163.904C166.113 102 167.904 103.791 167.904 106V106C167.904 108.209 166.113 110 163.904 110H109.904Z" fill="#3E311E"/>
<path d="M62.9043 110C60.6952 110 58.9043 108.209 58.9043 106V106C58.9043 103.791 60.6952 102 62.9043 102H110.904C113.113 102 114.904 103.791 114.904 106V106C114.904 108.209 113.113 110 110.904 110H62.9043Z" fill="#3E311E"/>
<rect x="125.904" y="106" width="5" height="40" fill="#705030"/>
<rect x="77.9043" y="107" width="26" height="20" fill="#0B0703"/>
<rect x="76.9043" y="106" width="3" height="22" fill="#705030"/>
<rect x="76.9043" y="125" width="27" height="3" fill="#705030"/>
<rect x="77.9043" y="106" width="26" height="3" fill="#705030"/>
<rect x="101.904" y="106" width="3" height="22" fill="#705030"/>
<rect x="148.904" y="106" width="5" height="40" fill="#705030"/>
<rect x="125.904" y="111" width="5" height="28" transform="rotate(-90 125.904 111)" fill="#705030"/>
<rect width="8.76854" height="93.1535" rx="4.38427" transform="matrix(-0.647559 0.762016 -0.810241 -0.586097 182.727 103.967)" fill="#705030"/>
<rect width="8.76854" height="94.1331" rx="4.38427" transform="matrix(0.647559 0.762016 0.810241 -0.586097 43.6583 104.171)" fill="#705030"/>
<rect width="0.876662" height="17.4153" transform="matrix(-0.457113 0.889409 -0.884971 -0.465647 42.2765 130.499)" fill="#977137"/>
<path d="M37.1075 134.713C39.4039 136.912 41.7826 133.871 42.1936 132.437L40.452 132.016L41.7063 129.704L40.1651 128.893C40.2017 129.903 40.35 129.486 39.1633 130.842C37.7241 132.488 35.1811 129.572 33.5166 128.366C33.6296 129.416 34.8111 132.515 37.1075 134.713Z" fill="#9F9F9F"/>
<rect x="33.0001" y="133.799" width="12" height="17.2009" fill="#2B2112"/>
<circle cx="11" cy="148" r="3" fill="#352A19"/>
<circle cx="11" cy="148" r="2" fill="#503E25"/>
<circle cx="17" cy="148" r="3" fill="#352A19"/>
<circle cx="17" cy="148" r="2" fill="#503E25"/>
<circle cx="23" cy="148" r="3" fill="#352A19"/>
<circle cx="23" cy="148" r="2" fill="#503E25"/>
<circle cx="5" cy="148" r="3" fill="#352A19"/>
<circle cx="5" cy="148" r="2" fill="#503E25"/>
<circle cx="8" cy="143" r="3" fill="#352A19"/>
<circle cx="8" cy="143" r="2" fill="#503E25"/>
<circle cx="14" cy="143" r="3" fill="#352A19"/>
<circle cx="14" cy="143" r="2" fill="#503E25"/>
<circle cx="20" cy="143" r="3" fill="#352A19"/>
<circle cx="20" cy="143" r="2" fill="#503E25"/>
<circle cx="11" cy="138" r="3" fill="#352A19"/>
<circle cx="11" cy="138" r="2" fill="#503E25"/>
<circle cx="17" cy="138" r="3" fill="#352A19"/>
<circle cx="17" cy="138" r="2" fill="#503E25"/>
<path d="M169 146H172V143C169.6 143 169 145 169 146Z" fill="#352A19"/>
<path d="M170 146H172V144C170.4 144 170 145.333 170 146Z" fill="#503E25"/>
<path d="M169 143H172V140C169.6 140 169 142 169 143Z" fill="#352A19"/>
<path d="M170 143H172V141C170.4 141 170 142.333 170 143Z" fill="#503E25"/>
<path d="M169 140H172V137C169.6 137 169 139 169 140Z" fill="#352A19"/>
<path d="M170 140H172V138C170.4 138 170 139.333 170 140Z" fill="#503E25"/>
<path d="M169 137H172V134C169.6 134 169 136 169 137Z" fill="#352A19"/>
<path d="M170 137H172V135C170.4 135 170 136.333 170 137Z" fill="#503E25"/>
<path d="M169 134H172V131C169.6 131 169 133 169 134Z" fill="#352A19"/>
<path d="M170 134H172V132C170.4 132 170 133.333 170 134Z" fill="#503E25"/>
<path d="M175 146H178V143C175.6 143 175 145 175 146Z" fill="#352A19"/>
<path d="M176 146H178V144C176.4 144 176 145.333 176 146Z" fill="#503E25"/>
<path d="M175 143H178V140C175.6 140 175 142 175 143Z" fill="#352A19"/>
<path d="M176 143H178V141C176.4 141 176 142.333 176 143Z" fill="#503E25"/>
<path d="M175 140H178V137C175.6 137 175 139 175 140Z" fill="#352A19"/>
<path d="M176 140H178V138C176.4 138 176 139.333 176 140Z" fill="#503E25"/>
<path d="M175 137H178V134C175.6 134 175 136 175 137Z" fill="#352A19"/>
<path d="M176 137H178V135C176.4 135 176 136.333 176 137Z" fill="#503E25"/>
<path d="M175 134H178V131C175.6 131 175 133 175 134Z" fill="#352A19"/>
<path d="M176 134H178V132C176.4 132 176 133.333 176 134Z" fill="#503E25"/>
<path d="M181 146H184V143C181.6 143 181 145 181 146Z" fill="#352A19"/>
<path d="M182 146H184V144C182.4 144 182 145.333 182 146Z" fill="#503E25"/>
<path d="M181 143H184V140C181.6 140 181 142 181 143Z" fill="#352A19"/>
<path d="M182 143H184V141C182.4 141 182 142.333 182 143Z" fill="#503E25"/>
<path d="M181 140H184V137C181.6 137 181 139 181 140Z" fill="#352A19"/>
<path d="M182 140H184V138C182.4 138 182 139.333 182 140Z" fill="#503E25"/>
<path d="M181 137H184V134C181.6 134 181 136 181 137Z" fill="#352A19"/>
<path d="M182 137H184V135C182.4 135 182 136.333 182 137Z" fill="#503E25"/>
<path d="M181 134H184V131C181.6 131 181 133 181 134Z" fill="#352A19"/>
<path d="M182 134H184V132C182.4 132 182 133.333 182 134Z" fill="#503E25"/>
<path d="M169 131H172V128C169.6 128 169 130 169 131Z" fill="#352A19"/>
<path d="M170 131H172V129C170.4 129 170 130.333 170 131Z" fill="#503E25"/>
<path d="M187 146H190V143C187.6 143 187 145 187 146Z" fill="#352A19"/>
<path d="M188 146H190V144C188.4 144 188 145.333 188 146Z" fill="#503E25"/>
<path d="M187 143H190V140C187.6 140 187 142 187 143Z" fill="#352A19"/>
<path d="M188 143H190V141C188.4 141 188 142.333 188 143Z" fill="#503E25"/>
<path d="M187 140H190V137C187.6 137 187 139 187 140Z" fill="#352A19"/>
<path d="M188 140H190V138C188.4 138 188 139.333 188 140Z" fill="#503E25"/>
<path d="M187 137H190V134C187.6 134 187 136 187 137Z" fill="#352A19"/>
<path d="M188 137H190V135C188.4 135 188 136.333 188 137Z" fill="#503E25"/>
<path d="M187 134H190V131C187.6 131 187 133 187 134Z" fill="#352A19"/>
<path d="M188 134H190V132C188.4 132 188 133.333 188 134Z" fill="#503E25"/>
<path d="M175 131H178V128C175.6 128 175 130 175 131Z" fill="#352A19"/>
<path d="M176 131H178V129C176.4 129 176 130.333 176 131Z" fill="#503E25"/>
<path d="M169 128H172V125C169.6 125 169 127 169 128Z" fill="#352A19"/>
<path d="M170 128H172V126C170.4 126 170 127.333 170 128Z" fill="#503E25"/>
<path d="M172 143H175V146C172.6 146 172 144 172 143Z" fill="#352A19"/>
<path d="M173 143H175V145C173.4 145 173 143.667 173 143Z" fill="#503E25"/>
<path d="M172 140H175V143C172.6 143 172 141 172 140Z" fill="#352A19"/>
<path d="M173 140H175V142C173.4 142 173 140.667 173 140Z" fill="#503E25"/>
<path d="M172 137H175V140C172.6 140 172 138 172 137Z" fill="#352A19"/>
<path d="M173 137H175V139C173.4 139 173 137.667 173 137Z" fill="#503E25"/>
<path d="M172 134H175V137C172.6 137 172 135 172 134Z" fill="#352A19"/>
<path d="M173 134H175V136C173.4 136 173 134.667 173 134Z" fill="#503E25"/>
<path d="M172 131H175V134C172.6 134 172 132 172 131Z" fill="#352A19"/>
<path d="M173 131H175V133C173.4 133 173 131.667 173 131Z" fill="#503E25"/>
<path d="M178 143H181V146C178.6 146 178 144 178 143Z" fill="#352A19"/>
<path d="M179 143H181V145C179.4 145 179 143.667 179 143Z" fill="#503E25"/>
<path d="M178 140H181V143C178.6 143 178 141 178 140Z" fill="#352A19"/>
<path d="M179 140H181V142C179.4 142 179 140.667 179 140Z" fill="#503E25"/>
<path d="M178 137H181V140C178.6 140 178 138 178 137Z" fill="#352A19"/>
<path d="M179 137H181V139C179.4 139 179 137.667 179 137Z" fill="#503E25"/>
<path d="M178 134H181V137C178.6 137 178 135 178 134Z" fill="#352A19"/>
<path d="M179 134H181V136C179.4 136 179 134.667 179 134Z" fill="#503E25"/>
<path d="M178 131H181V134C178.6 134 178 132 178 131Z" fill="#352A19"/>
<path d="M179 131H181V133C179.4 133 179 131.667 179 131Z" fill="#503E25"/>
<path d="M184 143H187V146C184.6 146 184 144 184 143Z" fill="#352A19"/>
<path d="M185 143H187V145C185.4 145 185 143.667 185 143Z" fill="#503E25"/>
<path d="M184 140H187V143C184.6 143 184 141 184 140Z" fill="#352A19"/>
<path d="M185 140H187V142C185.4 142 185 140.667 185 140Z" fill="#503E25"/>
<path d="M184 137H187V140C184.6 140 184 138 184 137Z" fill="#352A19"/>
<path d="M185 137H187V139C185.4 139 185 137.667 185 137Z" fill="#503E25"/>
<path d="M184 134H187V137C184.6 137 184 135 184 134Z" fill="#352A19"/>
<path d="M185 134H187V136C185.4 136 185 134.667 185 134Z" fill="#503E25"/>
<path d="M184 131H187V134C184.6 134 184 132 184 131Z" fill="#352A19"/>
<path d="M185 131H187V133C185.4 133 185 131.667 185 131Z" fill="#503E25"/>
<path d="M172 128H175V131C172.6 131 172 129 172 128Z" fill="#352A19"/>
<path d="M173 128H175V130C173.4 130 173 128.667 173 128Z" fill="#503E25"/>
<path d="M190 143H193V146C190.6 146 190 144 190 143Z" fill="#352A19"/>
<path d="M191 143H193V145C191.4 145 191 143.667 191 143Z" fill="#503E25"/>
<path d="M190 140H193V143C190.6 143 190 141 190 140Z" fill="#352A19"/>
<path d="M191 140H193V142C191.4 142 191 140.667 191 140Z" fill="#503E25"/>
<path d="M190 137H193V140C190.6 140 190 138 190 137Z" fill="#352A19"/>
<path d="M191 137H193V139C191.4 139 191 137.667 191 137Z" fill="#503E25"/>
<path d="M190 134H193V137C190.6 137 190 135 190 134Z" fill="#352A19"/>
<path d="M191 134H193V136C191.4 136 191 134.667 191 134Z" fill="#503E25"/>
<path d="M190 131H193V134C190.6 134 190 132 190 131Z" fill="#352A19"/>
<path d="M191 131H193V133C191.4 133 191 131.667 191 131Z" fill="#503E25"/>
<path d="M178 128H181V131C178.6 131 178 129 178 128Z" fill="#352A19"/>
<path d="M179 128H181V130C179.4 130 179 128.667 179 128Z" fill="#503E25"/>
<path d="M172 125H175V128C172.6 128 172 126 172 125Z" fill="#352A19"/>
<path d="M173 125H175V127C173.4 127 173 125.667 173 125Z" fill="#503E25"/>
<rect x="128" y="108" width="24" height="38" fill="#2E2415"/>
<rect x="130" y="129" width="4" height="1" fill="#858585"/>
</svg>
