<svg width="201" height="200" viewBox="0 0 201 200" fill="none" xmlns="http://www.w3.org/2000/svg">
<rect x="51" y="195" width="149" height="5" fill="#5C5E5F"/>
<path d="M58.2769 197.215C58.1299 196.039 59.0469 195 60.2322 195H72.9698C74.0408 195 74.8631 195.949 74.7102 197.009C74.5886 197.853 73.8799 198.487 73.0284 198.516L60.2979 198.94C59.2795 198.974 58.4033 198.226 58.2769 197.215Z" fill="#5A5A5A"/>
<path d="M90.2769 197.215C90.1299 196.039 91.0469 195 92.2322 195H104.97C106.041 195 106.863 195.949 106.71 197.009C106.589 197.853 105.88 198.487 105.028 198.516L92.2979 198.94C91.2795 198.974 90.4033 198.226 90.2769 197.215Z" fill="#5A5A5A"/>
<path d="M142.277 197.215C142.13 196.039 143.047 195 144.232 195H156.97C158.041 195 158.863 195.949 158.71 197.009C158.589 197.853 157.88 198.487 157.028 198.516L144.298 198.94C143.28 198.974 142.403 198.226 142.277 197.215Z" fill="#5A5A5A"/>
<path d="M66.1646 197.848C66.0758 199.009 66.9941 200 68.1588 200H76.8158C77.9897 200 78.9112 198.994 78.808 197.824L78.77 197.394C78.6826 196.403 77.88 195.626 76.8866 195.572L68.3361 195.106C67.2502 195.047 66.3161 195.867 66.2332 196.951L66.1646 197.848Z" fill="#5A5A5A"/>
<path d="M118.165 197.848C118.076 199.009 118.994 200 120.159 200H128.816C129.99 200 130.911 198.994 130.808 197.824L130.77 197.394C130.683 196.403 129.88 195.626 128.887 195.572L120.336 195.106C119.25 195.047 118.316 195.867 118.233 196.951L118.165 197.848Z" fill="#5A5A5A"/>
<path d="M163.165 197.848C163.076 199.009 163.994 200 165.159 200H173.816C174.99 200 175.911 198.994 175.808 197.824L175.77 197.394C175.683 196.403 174.88 195.626 173.887 195.572L165.336 195.106C164.25 195.047 163.316 195.867 163.233 196.951L163.165 197.848Z" fill="#5A5A5A"/>
<path d="M65.0101 145.292L116.02 110L164 145.292V195H64L65.0101 145.292Z" fill="#0B0804"/>
<rect x="80" y="116" width="10" height="13" fill="#424242"/>
<rect x="79" y="113" width="12" height="4" fill="#5C5C5C"/>
<path d="M79 137.9V129.35H150V137.9H79Z" fill="#3E311E"/>
<path d="M75 150.4V145.4H157V150.4H75Z" fill="#3E311E"/>
<path d="M166 141L198 150.692V195H166V141Z" fill="#0B0703"/>
<path d="M141 159C138.791 159 137 157.209 137 155C137 152.791 138.791 151 141 151H195C197.209 151 199 152.791 199 155C199 157.209 197.209 159 195 159H141Z" fill="#3E311E"/>
<rect x="195" y="162" width="3" height="33" fill="#292115"/>
<path d="M99 123.65V115.1H131V123.65H99Z" fill="#3E311E"/>
<rect width="5.08633" height="36.0647" rx="2.54317" transform="matrix(-0.343477 0.939161 -0.963108 -0.269114 200.626 160.555)" fill="#705030"/>
<path d="M69 147.4V138.85H160V147.4H69Z" fill="#3E311E"/>
<path d="M62.9043 147L115.904 109L165.904 147V195H62.9043V147Z" fill="#292115"/>
<rect x="156.904" y="143" width="11" height="52" fill="#292115"/>
<path d="M64.9043 150C62.6952 150 60.9043 148.209 60.9043 146C60.9043 143.791 62.6952 142 64.9043 142H165.904C168.113 142 169.904 143.791 169.904 146C169.904 148.209 168.113 150 165.904 150H64.9043Z" fill="#3E311E"/>
<path d="M76.9043 141C74.6952 141 72.9043 139.209 72.9043 137C72.9043 134.791 74.6952 133 76.9043 133H151.904C154.113 133 155.904 134.791 155.904 137C155.904 139.209 154.113 141 151.904 141H76.9043Z" fill="#3E311E"/>
<path d="M88.9043 132C86.6952 132 84.9043 130.209 84.9043 128C84.9043 125.791 86.6952 124 88.9043 124H140.904C143.113 124 144.904 125.791 144.904 128C144.904 130.209 143.113 132 140.904 132H88.9043Z" fill="#3E311E"/>
<path d="M122 116C119.791 116 118 114.209 118 112C118 109.791 119.791 108 122 108H196C198.209 108 200 109.791 200 112C200 114.209 198.209 116 196 116H122Z" fill="#60462B"/>
<path d="M192 112C192 109.791 193.791 108 196 108C198.209 108 200 109.791 200 112V149C200 151.209 198.209 153 196 153C193.791 153 192 151.209 192 149V112Z" fill="#60462B"/>
<path d="M176 112C176 109.791 177.791 108 180 108C182.209 108 184 109.791 184 112V149C184 151.209 182.209 153 180 153C177.791 153 176 151.209 176 149V112Z" fill="#60462B"/>
<path d="M160 112C160 109.791 161.791 108 164 108C166.209 108 168 109.791 168 112V149C168 151.209 166.209 153 164 153C161.791 153 160 151.209 160 149V112Z" fill="#60462B"/>
<path d="M144 112C144 109.791 145.791 108 148 108C150.209 108 152 109.791 152 112V129C152 131.209 150.209 133 148 133C145.791 133 144 131.209 144 129V112Z" fill="#60462B"/>
<path d="M128 112C128 109.791 129.791 108 132 108C134.209 108 136 109.791 136 112V120C136 122.209 134.209 124 132 124C129.791 124 128 122.209 128 120V112Z" fill="#60462B"/>
<path d="M184 112C184 109.791 185.791 108 188 108C190.209 108 192 109.791 192 112V149C192 151.209 190.209 153 188 153C185.791 153 184 151.209 184 149V112Z" fill="#6B5035"/>
<path d="M168 112C168 109.791 169.791 108 172 108C174.209 108 176 109.791 176 112V149C176 151.209 174.209 153 172 153C169.791 153 168 151.209 168 149V112Z" fill="#6B5035"/>
<path d="M152 112C152 109.791 153.791 108 156 108C158.209 108 160 109.791 160 112V134C160 136.209 158.209 138 156 138C153.791 138 152 136.209 152 134V112Z" fill="#6B5035"/>
<path d="M136 112C136 109.791 137.791 108 140 108C142.209 108 144 109.791 144 112V124C144 126.209 142.209 128 140 128C137.791 128 136 126.209 136 124V112Z" fill="#6B5035"/>
<path d="M120 112C120 109.791 121.791 108 124 108C126.209 108 128 109.791 128 112V113C128 115.209 126.209 117 124 117C121.791 117 120 115.209 120 113V112Z" fill="#6B5035"/>
<path d="M100.904 123C98.6952 123 96.9043 121.209 96.9043 119C96.9043 116.791 98.6952 115 100.904 115H128.904C131.113 115 132.904 116.791 132.904 119C132.904 121.209 131.113 123 128.904 123H100.904Z" fill="#3E311E"/>
<path d="M62.9043 152C61.2474 152 59.9043 150.657 59.9043 149C59.9043 147.343 61.2474 146 62.9043 146H165.904C167.561 146 168.904 147.343 168.904 149C168.904 150.657 167.561 152 165.904 152H62.9043Z" fill="#2B2112"/>
<rect x="131.904" y="157" width="21" height="38" fill="#0B0703"/>
<path d="M64.9043 195C62.6952 195 60.9043 193.209 60.9043 191C60.9043 188.791 62.6952 187 64.9043 187H123.904C126.113 187 127.904 188.791 127.904 191C127.904 193.209 126.113 195 123.904 195H64.9043Z" fill="#3E311E"/>
<path d="M159.904 195C157.695 195 155.904 193.209 155.904 191C155.904 188.791 157.695 187 159.904 187H165.904C168.113 187 169.904 188.791 169.904 191C169.904 193.209 168.113 195 165.904 195H159.904Z" fill="#3E311E"/>
<path d="M64.9043 186C62.6952 186 60.9043 184.209 60.9043 182C60.9043 179.791 62.6952 178 64.9043 178H123.904C126.113 178 127.904 179.791 127.904 182C127.904 184.209 126.113 186 123.904 186H64.9043Z" fill="#3E311E"/>
<path d="M159.904 186C157.695 186 155.904 184.209 155.904 182C155.904 179.791 157.695 178 159.904 178H165.904C168.113 178 169.904 179.791 169.904 182C169.904 184.209 168.113 186 165.904 186H159.904Z" fill="#3E311E"/>
<path d="M64.9043 177C62.6952 177 60.9043 175.209 60.9043 173C60.9043 170.791 62.6952 169 64.9043 169H74.9043C77.1134 169 78.9043 170.791 78.9043 173C78.9043 175.209 77.1134 177 74.9043 177H64.9043Z" fill="#3E311E"/>
<path d="M111.904 177C109.695 177 107.904 175.209 107.904 173C107.904 170.791 109.695 169 111.904 169H123.904C126.113 169 127.904 170.791 127.904 173C127.904 175.209 126.113 177 123.904 177H111.904Z" fill="#3E311E"/>
<path d="M159.904 177C157.695 177 155.904 175.209 155.904 173C155.904 170.791 157.695 169 159.904 169H165.904C168.113 169 169.904 170.791 169.904 173C169.904 175.209 168.113 177 165.904 177H159.904Z" fill="#3E311E"/>
<path d="M64.9043 168C62.6952 168 60.9043 166.209 60.9043 164C60.9043 161.791 62.6952 160 64.9043 160H74.9043C77.1134 160 78.9043 161.791 78.9043 164C78.9043 166.209 77.1134 168 74.9043 168H64.9043Z" fill="#3E311E"/>
<path d="M111.904 168C109.695 168 107.904 166.209 107.904 164C107.904 161.791 109.695 160 111.904 160H123.904C126.113 160 127.904 161.791 127.904 164C127.904 166.209 126.113 168 123.904 168H111.904Z" fill="#3E311E"/>
<path d="M159.904 168C157.695 168 155.904 166.209 155.904 164C155.904 161.791 157.695 160 159.904 160H165.904C168.113 160 169.904 161.791 169.904 164C169.904 166.209 168.113 168 165.904 168H159.904Z" fill="#3E311E"/>
<path d="M111.904 159C109.695 159 107.904 157.209 107.904 155C107.904 152.791 109.695 151 111.904 151H165.904C168.113 151 169.904 152.791 169.904 155C169.904 157.209 168.113 159 165.904 159H111.904Z" fill="#3E311E"/>
<path d="M64.9043 159C62.6952 159 60.9043 157.209 60.9043 155C60.9043 152.791 62.6952 151 64.9043 151H112.904C115.113 151 116.904 152.791 116.904 155C116.904 157.209 115.113 159 112.904 159H64.9043Z" fill="#3E311E"/>
<rect x="127.904" y="155" width="5" height="40" fill="#705030"/>
<rect x="79.9043" y="156" width="26" height="20" fill="#0B0703"/>
<rect x="78.9043" y="155" width="3" height="22" fill="#705030"/>
<rect x="78.9043" y="174" width="27" height="3" fill="#705030"/>
<rect x="79.9043" y="155" width="26" height="3" fill="#705030"/>
<rect x="103.904" y="155" width="3" height="22" fill="#705030"/>
<rect x="150.904" y="155" width="5" height="40" fill="#705030"/>
<rect x="127.904" y="160" width="5" height="28" transform="rotate(-90 127.904 160)" fill="#705030"/>
<rect width="8.76854" height="93.1535" rx="4.38427" transform="matrix(-0.647559 0.762016 -0.810241 -0.586097 184.727 152.967)" fill="#705030"/>
<rect width="8.76854" height="94.1331" rx="4.38427" transform="matrix(0.647559 0.762016 0.810241 -0.586097 45.6583 153.171)" fill="#705030"/>
<rect width="0.876662" height="17.4153" transform="matrix(-0.457113 0.889409 -0.884971 -0.465647 44.2765 179.499)" fill="#977137"/>
<path d="M39.1075 183.713C41.4039 185.912 43.7826 182.871 44.1936 181.437L42.452 181.016L43.7063 178.704L42.1651 177.893C42.2017 178.903 42.35 178.486 41.1633 179.842C39.7241 181.488 37.1811 178.572 35.5166 177.366C35.6296 178.416 36.8111 181.515 39.1075 183.713Z" fill="#9F9F9F"/>
<rect x="35.0001" y="182.799" width="12" height="17.2009" fill="#2B2112"/>
<circle cx="13" cy="197" r="3" fill="#352A19"/>
<circle cx="13" cy="197" r="2" fill="#503E25"/>
<circle cx="19" cy="197" r="3" fill="#352A19"/>
<circle cx="19" cy="197" r="2" fill="#503E25"/>
<circle cx="25" cy="197" r="3" fill="#352A19"/>
<circle cx="25" cy="197" r="2" fill="#503E25"/>
<circle cx="7" cy="197" r="3" fill="#352A19"/>
<circle cx="7" cy="197" r="2" fill="#503E25"/>
<circle cx="10" cy="192" r="3" fill="#352A19"/>
<circle cx="10" cy="192" r="2" fill="#503E25"/>
<circle cx="16" cy="192" r="3" fill="#352A19"/>
<circle cx="16" cy="192" r="2" fill="#503E25"/>
<circle cx="22" cy="192" r="3" fill="#352A19"/>
<circle cx="22" cy="192" r="2" fill="#503E25"/>
<circle cx="13" cy="187" r="3" fill="#352A19"/>
<circle cx="13" cy="187" r="2" fill="#503E25"/>
<circle cx="19" cy="187" r="3" fill="#352A19"/>
<circle cx="19" cy="187" r="2" fill="#503E25"/>
<path d="M171 195H174V192C171.6 192 171 194 171 195Z" fill="#352A19"/>
<path d="M172 195H174V193C172.4 193 172 194.333 172 195Z" fill="#503E25"/>
<path d="M171 192H174V189C171.6 189 171 191 171 192Z" fill="#352A19"/>
<path d="M172 192H174V190C172.4 190 172 191.333 172 192Z" fill="#503E25"/>
<path d="M171 189H174V186C171.6 186 171 188 171 189Z" fill="#352A19"/>
<path d="M172 189H174V187C172.4 187 172 188.333 172 189Z" fill="#503E25"/>
<path d="M171 186H174V183C171.6 183 171 185 171 186Z" fill="#352A19"/>
<path d="M172 186H174V184C172.4 184 172 185.333 172 186Z" fill="#503E25"/>
<path d="M171 183H174V180C171.6 180 171 182 171 183Z" fill="#352A19"/>
<path d="M172 183H174V181C172.4 181 172 182.333 172 183Z" fill="#503E25"/>
<path d="M177 195H180V192C177.6 192 177 194 177 195Z" fill="#352A19"/>
<path d="M178 195H180V193C178.4 193 178 194.333 178 195Z" fill="#503E25"/>
<path d="M177 192H180V189C177.6 189 177 191 177 192Z" fill="#352A19"/>
<path d="M178 192H180V190C178.4 190 178 191.333 178 192Z" fill="#503E25"/>
<path d="M177 189H180V186C177.6 186 177 188 177 189Z" fill="#352A19"/>
<path d="M178 189H180V187C178.4 187 178 188.333 178 189Z" fill="#503E25"/>
<path d="M177 186H180V183C177.6 183 177 185 177 186Z" fill="#352A19"/>
<path d="M178 186H180V184C178.4 184 178 185.333 178 186Z" fill="#503E25"/>
<path d="M177 183H180V180C177.6 180 177 182 177 183Z" fill="#352A19"/>
<path d="M178 183H180V181C178.4 181 178 182.333 178 183Z" fill="#503E25"/>
<path d="M183 195H186V192C183.6 192 183 194 183 195Z" fill="#352A19"/>
<path d="M184 195H186V193C184.4 193 184 194.333 184 195Z" fill="#503E25"/>
<path d="M183 192H186V189C183.6 189 183 191 183 192Z" fill="#352A19"/>
<path d="M184 192H186V190C184.4 190 184 191.333 184 192Z" fill="#503E25"/>
<path d="M183 189H186V186C183.6 186 183 188 183 189Z" fill="#352A19"/>
<path d="M184 189H186V187C184.4 187 184 188.333 184 189Z" fill="#503E25"/>
<path d="M183 186H186V183C183.6 183 183 185 183 186Z" fill="#352A19"/>
<path d="M184 186H186V184C184.4 184 184 185.333 184 186Z" fill="#503E25"/>
<path d="M183 183H186V180C183.6 180 183 182 183 183Z" fill="#352A19"/>
<path d="M184 183H186V181C184.4 181 184 182.333 184 183Z" fill="#503E25"/>
<path d="M171 180H174V177C171.6 177 171 179 171 180Z" fill="#352A19"/>
<path d="M172 180H174V178C172.4 178 172 179.333 172 180Z" fill="#503E25"/>
<path d="M189 195H192V192C189.6 192 189 194 189 195Z" fill="#352A19"/>
<path d="M190 195H192V193C190.4 193 190 194.333 190 195Z" fill="#503E25"/>
<path d="M189 192H192V189C189.6 189 189 191 189 192Z" fill="#352A19"/>
<path d="M190 192H192V190C190.4 190 190 191.333 190 192Z" fill="#503E25"/>
<path d="M189 189H192V186C189.6 186 189 188 189 189Z" fill="#352A19"/>
<path d="M190 189H192V187C190.4 187 190 188.333 190 189Z" fill="#503E25"/>
<path d="M189 186H192V183C189.6 183 189 185 189 186Z" fill="#352A19"/>
<path d="M190 186H192V184C190.4 184 190 185.333 190 186Z" fill="#503E25"/>
<path d="M189 183H192V180C189.6 180 189 182 189 183Z" fill="#352A19"/>
<path d="M190 183H192V181C190.4 181 190 182.333 190 183Z" fill="#503E25"/>
<path d="M177 180H180V177C177.6 177 177 179 177 180Z" fill="#352A19"/>
<path d="M178 180H180V178C178.4 178 178 179.333 178 180Z" fill="#503E25"/>
<path d="M171 177H174V174C171.6 174 171 176 171 177Z" fill="#352A19"/>
<path d="M172 177H174V175C172.4 175 172 176.333 172 177Z" fill="#503E25"/>
<path d="M174 192H177V195C174.6 195 174 193 174 192Z" fill="#352A19"/>
<path d="M175 192H177V194C175.4 194 175 192.667 175 192Z" fill="#503E25"/>
<path d="M174 189H177V192C174.6 192 174 190 174 189Z" fill="#352A19"/>
<path d="M175 189H177V191C175.4 191 175 189.667 175 189Z" fill="#503E25"/>
<path d="M174 186H177V189C174.6 189 174 187 174 186Z" fill="#352A19"/>
<path d="M175 186H177V188C175.4 188 175 186.667 175 186Z" fill="#503E25"/>
<path d="M174 183H177V186C174.6 186 174 184 174 183Z" fill="#352A19"/>
<path d="M175 183H177V185C175.4 185 175 183.667 175 183Z" fill="#503E25"/>
<path d="M174 180H177V183C174.6 183 174 181 174 180Z" fill="#352A19"/>
<path d="M175 180H177V182C175.4 182 175 180.667 175 180Z" fill="#503E25"/>
<path d="M180 192H183V195C180.6 195 180 193 180 192Z" fill="#352A19"/>
<path d="M181 192H183V194C181.4 194 181 192.667 181 192Z" fill="#503E25"/>
<path d="M180 189H183V192C180.6 192 180 190 180 189Z" fill="#352A19"/>
<path d="M181 189H183V191C181.4 191 181 189.667 181 189Z" fill="#503E25"/>
<path d="M180 186H183V189C180.6 189 180 187 180 186Z" fill="#352A19"/>
<path d="M181 186H183V188C181.4 188 181 186.667 181 186Z" fill="#503E25"/>
<path d="M180 183H183V186C180.6 186 180 184 180 183Z" fill="#352A19"/>
<path d="M181 183H183V185C181.4 185 181 183.667 181 183Z" fill="#503E25"/>
<path d="M180 180H183V183C180.6 183 180 181 180 180Z" fill="#352A19"/>
<path d="M181 180H183V182C181.4 182 181 180.667 181 180Z" fill="#503E25"/>
<path d="M186 192H189V195C186.6 195 186 193 186 192Z" fill="#352A19"/>
<path d="M187 192H189V194C187.4 194 187 192.667 187 192Z" fill="#503E25"/>
<path d="M186 189H189V192C186.6 192 186 190 186 189Z" fill="#352A19"/>
<path d="M187 189H189V191C187.4 191 187 189.667 187 189Z" fill="#503E25"/>
<path d="M186 186H189V189C186.6 189 186 187 186 186Z" fill="#352A19"/>
<path d="M187 186H189V188C187.4 188 187 186.667 187 186Z" fill="#503E25"/>
<path d="M186 183H189V186C186.6 186 186 184 186 183Z" fill="#352A19"/>
<path d="M187 183H189V185C187.4 185 187 183.667 187 183Z" fill="#503E25"/>
<path d="M186 180H189V183C186.6 183 186 181 186 180Z" fill="#352A19"/>
<path d="M187 180H189V182C187.4 182 187 180.667 187 180Z" fill="#503E25"/>
<path d="M174 177H177V180C174.6 180 174 178 174 177Z" fill="#352A19"/>
<path d="M175 177H177V179C175.4 179 175 177.667 175 177Z" fill="#503E25"/>
<path d="M192 192H195V195C192.6 195 192 193 192 192Z" fill="#352A19"/>
<path d="M193 192H195V194C193.4 194 193 192.667 193 192Z" fill="#503E25"/>
<path d="M192 189H195V192C192.6 192 192 190 192 189Z" fill="#352A19"/>
<path d="M193 189H195V191C193.4 191 193 189.667 193 189Z" fill="#503E25"/>
<path d="M192 186H195V189C192.6 189 192 187 192 186Z" fill="#352A19"/>
<path d="M193 186H195V188C193.4 188 193 186.667 193 186Z" fill="#503E25"/>
<path d="M192 183H195V186C192.6 186 192 184 192 183Z" fill="#352A19"/>
<path d="M193 183H195V185C193.4 185 193 183.667 193 183Z" fill="#503E25"/>
<path d="M192 180H195V183C192.6 183 192 181 192 180Z" fill="#352A19"/>
<path d="M193 180H195V182C193.4 182 193 180.667 193 180Z" fill="#503E25"/>
<path d="M180 177H183V180C180.6 180 180 178 180 177Z" fill="#352A19"/>
<path d="M181 177H183V179C181.4 179 181 177.667 181 177Z" fill="#503E25"/>
<path d="M174 174H177V177C174.6 177 174 175 174 174Z" fill="#352A19"/>
<path d="M175 174H177V176C175.4 176 175 174.667 175 174Z" fill="#503E25"/>
<rect x="130" y="157" width="24" height="38" fill="#2E2415"/>
<rect x="132" y="178" width="4" height="1" fill="#858585"/>
</svg>
