<svg width="200" height="200" viewBox="0 0 200 200" fill="none" xmlns="http://www.w3.org/2000/svg">
<rect x="51" y="195" width="128" height="5" fill="#5C5E5F"/>
<path d="M58.2769 197.215C58.1299 196.039 59.0469 195 60.2322 195H72.9698C74.0408 195 74.8631 195.949 74.7102 197.009C74.5886 197.853 73.8799 198.487 73.0284 198.516L60.2979 198.94C59.2795 198.974 58.4033 198.226 58.2769 197.215Z" fill="#5A5A5A"/>
<path d="M90.2769 197.215C90.1299 196.039 91.0469 195 92.2322 195H104.97C106.041 195 106.863 195.949 106.71 197.009C106.589 197.853 105.88 198.487 105.028 198.516L92.2979 198.94C91.2795 198.974 90.4033 198.226 90.2769 197.215Z" fill="#5A5A5A"/>
<path d="M142.277 197.215C142.13 196.039 143.047 195 144.232 195H156.97C158.041 195 158.863 195.949 158.71 197.009C158.589 197.853 157.88 198.487 157.028 198.516L144.298 198.94C143.28 198.974 142.403 198.226 142.277 197.215Z" fill="#5A5A5A"/>
<path d="M66.1646 197.848C66.0758 199.009 66.9941 200 68.1588 200H76.8158C77.9897 200 78.9112 198.994 78.808 197.824L78.77 197.394C78.6826 196.403 77.88 195.626 76.8866 195.572L68.3361 195.106C67.2502 195.047 66.3161 195.867 66.2332 196.951L66.1646 197.848Z" fill="#5A5A5A"/>
<path d="M118.165 197.848C118.076 199.009 118.994 200 120.159 200H128.816C129.99 200 130.911 198.994 130.808 197.824L130.77 197.394C130.683 196.403 129.88 195.626 128.887 195.572L120.336 195.106C119.25 195.047 118.316 195.867 118.233 196.951L118.165 197.848Z" fill="#5A5A5A"/>
<path d="M163.165 197.848C163.076 199.009 163.994 200 165.159 200H173.816C174.99 200 175.911 198.994 175.808 197.824L175.77 197.394C175.683 196.403 174.88 195.626 173.887 195.572L165.336 195.106C164.25 195.047 163.316 195.867 163.233 196.951L163.165 197.848Z" fill="#5A5A5A"/>
<path d="M65.0101 145.292L116.02 110L164 145.292V195H64L65.0101 145.292Z" fill="#0B0804"/>
<rect x="80" y="116" width="10" height="13" fill="#424242"/>
<rect x="79" y="113" width="12" height="4" fill="#5C5C5C"/>
<path d="M79 137.9V129.35H150V137.9H79Z" fill="#3E311E"/>
<path d="M75 150.4V145.4H157V150.4H75Z" fill="#3E311E"/>
<path d="M141 159C138.791 159 137 157.209 137 155C137 152.791 138.791 151 141 151H174C176.209 151 178 152.791 178 155C178 157.209 176.209 159 174 159H141Z" fill="#3E311E"/>
<path d="M99 123.65V115.1H131V123.65H99Z" fill="#3E311E"/>
<path d="M69 147.4V138.85H160V147.4H69Z" fill="#3E311E"/>
<path d="M62.9043 147L115.904 109L165.904 147V195H62.9043V147Z" fill="#292115"/>
<rect x="156.904" y="143" width="11" height="52" fill="#292115"/>
<path d="M64.9043 150C62.6952 150 60.9043 148.209 60.9043 146C60.9043 143.791 62.6952 142 64.9043 142H165.904C168.113 142 169.904 143.791 169.904 146C169.904 148.209 168.113 150 165.904 150H64.9043Z" fill="#3E311E"/>
<path d="M76.9043 141C74.6952 141 72.9043 139.209 72.9043 137C72.9043 134.791 74.6952 133 76.9043 133H151.904C154.113 133 155.904 134.791 155.904 137C155.904 139.209 154.113 141 151.904 141H76.9043Z" fill="#3E311E"/>
<path d="M88.9043 132C86.6952 132 84.9043 130.209 84.9043 128C84.9043 125.791 86.6952 124 88.9043 124H140.904C143.113 124 144.904 125.791 144.904 128C144.904 130.209 143.113 132 140.904 132H88.9043Z" fill="#3E311E"/>
<path d="M100.904 123C98.6952 123 96.9043 121.209 96.9043 119C96.9043 116.791 98.6952 115 100.904 115H128.904C131.113 115 132.904 116.791 132.904 119C132.904 121.209 131.113 123 128.904 123H100.904Z" fill="#3E311E"/>
<path d="M62.9043 152C61.2474 152 59.9043 150.657 59.9043 149C59.9043 147.343 61.2474 146 62.9043 146H165.904C167.561 146 168.904 147.343 168.904 149C168.904 150.657 167.561 152 165.904 152H62.9043Z" fill="#2B2112"/>
<rect x="131.904" y="157" width="21" height="38" fill="#0B0703"/>
<path d="M64.9043 195C62.6952 195 60.9043 193.209 60.9043 191C60.9043 188.791 62.6952 187 64.9043 187H123.904C126.113 187 127.904 188.791 127.904 191C127.904 193.209 126.113 195 123.904 195H64.9043Z" fill="#3E311E"/>
<path d="M159.904 195C157.695 195 155.904 193.209 155.904 191C155.904 188.791 157.695 187 159.904 187H165.904C168.113 187 169.904 188.791 169.904 191C169.904 193.209 168.113 195 165.904 195H159.904Z" fill="#3E311E"/>
<path d="M64.9043 186C62.6952 186 60.9043 184.209 60.9043 182C60.9043 179.791 62.6952 178 64.9043 178H123.904C126.113 178 127.904 179.791 127.904 182C127.904 184.209 126.113 186 123.904 186H64.9043Z" fill="#3E311E"/>
<path d="M159.904 186C157.695 186 155.904 184.209 155.904 182C155.904 179.791 157.695 178 159.904 178H165.904C168.113 178 169.904 179.791 169.904 182C169.904 184.209 168.113 186 165.904 186H159.904Z" fill="#3E311E"/>
<path d="M64.9043 177C62.6952 177 60.9043 175.209 60.9043 173C60.9043 170.791 62.6952 169 64.9043 169H74.9043C77.1134 169 78.9043 170.791 78.9043 173C78.9043 175.209 77.1134 177 74.9043 177H64.9043Z" fill="#3E311E"/>
<path d="M111.904 177C109.695 177 107.904 175.209 107.904 173C107.904 170.791 109.695 169 111.904 169H123.904C126.113 169 127.904 170.791 127.904 173C127.904 175.209 126.113 177 123.904 177H111.904Z" fill="#3E311E"/>
<path d="M159.904 177C157.695 177 155.904 175.209 155.904 173C155.904 170.791 157.695 169 159.904 169H165.904C168.113 169 169.904 170.791 169.904 173C169.904 175.209 168.113 177 165.904 177H159.904Z" fill="#3E311E"/>
<path d="M64.9043 168C62.6952 168 60.9043 166.209 60.9043 164C60.9043 161.791 62.6952 160 64.9043 160H74.9043C77.1134 160 78.9043 161.791 78.9043 164C78.9043 166.209 77.1134 168 74.9043 168H64.9043Z" fill="#3E311E"/>
<path d="M111.904 168C109.695 168 107.904 166.209 107.904 164C107.904 161.791 109.695 160 111.904 160H123.904C126.113 160 127.904 161.791 127.904 164C127.904 166.209 126.113 168 123.904 168H111.904Z" fill="#3E311E"/>
<path d="M159.904 168C157.695 168 155.904 166.209 155.904 164C155.904 161.791 157.695 160 159.904 160H165.904C168.113 160 169.904 161.791 169.904 164C169.904 166.209 168.113 168 165.904 168H159.904Z" fill="#3E311E"/>
<path d="M111.904 159C109.695 159 107.904 157.209 107.904 155C107.904 152.791 109.695 151 111.904 151H165.904C168.113 151 169.904 152.791 169.904 155C169.904 157.209 168.113 159 165.904 159H111.904Z" fill="#3E311E"/>
<path d="M64.9043 159C62.6952 159 60.9043 157.209 60.9043 155C60.9043 152.791 62.6952 151 64.9043 151H112.904C115.113 151 116.904 152.791 116.904 155C116.904 157.209 115.113 159 112.904 159H64.9043Z" fill="#3E311E"/>
<rect x="127.904" y="155" width="5" height="40" fill="#705030"/>
<rect x="79.9043" y="156" width="26" height="20" fill="#0B0703"/>
<rect x="78.9043" y="155" width="3" height="22" fill="#705030"/>
<rect x="78.9043" y="174" width="27" height="3" fill="#705030"/>
<rect x="79.9043" y="155" width="26" height="3" fill="#705030"/>
<rect x="103.904" y="155" width="3" height="22" fill="#705030"/>
<rect x="150.904" y="155" width="5" height="40" fill="#705030"/>
<rect x="127.904" y="160" width="5" height="28" transform="rotate(-90 127.904 160)" fill="#705030"/>
<rect width="8.76854" height="93.1535" rx="4.38427" transform="matrix(-0.647559 0.762016 -0.810241 -0.586097 184.727 152.967)" fill="#705030"/>
<rect width="8.76854" height="94.1331" rx="4.38427" transform="matrix(0.647559 0.762016 0.810241 -0.586097 45.6583 153.171)" fill="#705030"/>
<rect width="0.876662" height="17.4153" transform="matrix(-0.457113 0.889409 -0.884971 -0.465647 44.2765 179.499)" fill="#977137"/>
<path d="M39.1075 183.713C41.4039 185.912 43.7826 182.871 44.1936 181.437L42.452 181.016L43.7063 178.704L42.1651 177.893C42.2017 178.903 42.35 178.486 41.1633 179.842C39.7241 181.488 37.1811 178.572 35.5166 177.366C35.6296 178.416 36.8111 181.515 39.1075 183.713Z" fill="#9F9F9F"/>
<rect x="35.0001" y="182.799" width="12" height="17.2009" fill="#2B2112"/>
<rect x="130" y="157" width="24" height="38" fill="#2E2415"/>
<rect x="132" y="178" width="4" height="1" fill="#858585"/>
</svg>
